Atma-Regular.ufo
<glyph name="exclam" format="1">
  <advance width="217"/>
  <unicode hex="0021"/>
  <outline>
    <contour>
      <point x="75" y="209" type="qcurve"/>
      <point x="67" y="338"/>
      <point x="60" y="549"/>
      <point x="60" y="665" type="qcurve" smooth="yes"/>
      <point x="60" y="690"/>
      <point x="60" y="716"/>
      <point x="61" y="724" type="qcurve"/>
      <point x="77" y="731"/>
      <point x="101" y="737"/>
      <point x="114" y="737" type="qcurve" smooth="yes"/>
      <point x="120" y="737"/>
      <point x="132" y="736"/>
      <point x="148" y="733" type="qcurve"/>
      <point x="136" y="620"/>
      <point x="129" y="356"/>
      <point x="133" y="207" type="qcurve"/>
      <point x="126" y="206"/>
      <point x="116" y="205"/>
      <point x="110" y="205" type="qcurve" smooth="yes"/>
      <point x="99" y="205"/>
      <point x="82" y="207"/>
    </contour>
    <contour>
      <point x="110" y="-5" type="qcurve" smooth="yes"/>
      <point x="101" y="-5"/>
      <point x="82" y="-3"/>
      <point x="73" y="0" type="qcurve"/>
      <point x="72" y="14"/>
      <point x="72" y="46"/>
      <point x="73" y="77" type="qcurve"/>
      <point x="97" y="78"/>
      <point x="129" y="77"/>
      <point x="145" y="76" type="qcurve"/>
      <point x="146" y="67"/>
      <point x="147" y="47"/>
      <point x="148" y="29" type="qcurve" smooth="yes"/>
      <point x="149" y="17"/>
      <point x="150" y="5"/>
      <point x="150" y="-1" type="qcurve"/>
      <point x="140" y="-3"/>
      <point x="121" y="-5"/>
    </contour>
  </outline>
</glyph>
<glyph name="ampersand" format="1">
  <advance width="759"/>
  <unicode hex="0026"/>
  <outline>
    <contour>
      <point x="370" y="671" type="qcurve" smooth="yes"/>
      <point x="335" y="671"/>
      <point x="293" y="594"/>
      <point x="293" y="528" type="qcurve" smooth="yes"/>
      <point x="293" y="503"/>
      <point x="298" y="455"/>
      <point x="302" y="432" type="qcurve"/>
      <point x="366" y="448"/>
      <point x="433" y="523"/>
      <point x="433" y="579" type="qcurve" smooth="yes"/>
      <point x="433" y="622"/>
      <point x="400" y="671"/>
    </contour>
    <contour>
      <point x="116" y="196" type="qcurve" smooth="yes"/>
      <point x="116" y="107"/>
      <point x="231" y="0"/>
      <point x="325" y="0" type="qcurve" smooth="yes"/>
      <point x="366" y="0"/>
      <point x="442" y="30"/>
      <point x="473" y="58" type="qcurve"/>
      <point x="386" y="121"/>
      <point x="268" y="279"/>
      <point x="242" y="369" type="qcurve"/>
      <point x="182" y="349"/>
      <point x="116" y="258"/>
    </contour>
    <contour>
      <point x="709" y="10" type="qcurve"/>
      <point x="702" y="-6"/>
      <point x="676" y="-34"/>
      <point x="659" y="-43" type="qcurve"/>
      <point x="625" y="-30"/>
      <point x="559" y="3"/>
      <point x="528" y="22" type="qcurve"/>
      <point x="486" y="-16"/>
      <point x="378" y="-57"/>
      <point x="319" y="-57" type="qcurve" smooth="yes"/>
      <point x="193" y="-57"/>
      <point x="40" y="77"/>
      <point x="40" y="184" type="qcurve" smooth="yes"/>
      <point x="40" y="267"/>
      <point x="139" y="385"/>
      <point x="231" y="410" type="qcurve"/>
      <point x="225" y="438"/>
      <point x="220" y="494"/>
      <point x="220" y="521" type="qcurve" smooth="yes"/>
      <point x="220" y="613"/>
      <point x="305" y="721"/>
      <point x="379" y="721" type="qcurve" smooth="yes"/>
      <point x="436" y="721"/>
      <point x="506" y="646"/>
      <point x="506" y="586" type="qcurve" smooth="yes"/>
      <point x="506" y="514"/>
      <point x="406" y="415"/>
      <point x="311" y="393" type="qcurve"/>
      <point x="334" y="311"/>
      <point x="439" y="171"/>
      <point x="519" y="113" type="qcurve"/>
      <point x="541" y="148"/>
      <point x="565" y="234"/>
      <point x="565" y="279" type="qcurve" smooth="yes"/>
      <point x="565" y="309"/>
      <point x="560" y="356"/>
      <point x="554" y="383" type="qcurve"/>
      <point x="571" y="387"/>
      <point x="611" y="386"/>
      <point x="632" y="381" type="qcurve"/>
      <point x="635" y="355"/>
      <point x="637" y="309"/>
      <point x="636" y="284" type="qcurve" smooth="yes"/>
      <point x="635" y="224"/>
      <point x="604" y="119"/>
      <point x="575" y="76" type="qcurve"/>
      <point x="604" y="58"/>
      <point x="672" y="25"/>
    </contour>
  </outline>
</glyph>
<glyph name="parenright" format="1">
  <advance width="352"/>
  <unicode hex="0029"/>
  <outline>
    <contour>
      <point x="1" y="-119" type="qcurve"/>
      <point x="119" y="-45"/>
      <point x="246" y="186"/>
      <point x="246" y="323" type="qcurve" smooth="yes"/>
      <point x="246" y="460"/>
      <point x="132" y="684"/>
      <point x="25" y="757" type="qcurve"/>
      <point x="40" y="775"/>
      <point x="63" y="794"/>
      <point x="77" y="800" type="qcurve"/>
      <point x="191" y="718"/>
      <point x="314" y="473"/>
      <point x="314" y="329" type="qcurve" smooth="yes"/>
      <point x="314" y="177"/>
      <point x="180" y="-76"/>
      <point x="54" y="-163" type="qcurve"/>
      <point x="42" y="-157"/>
      <point x="16" y="-136"/>
    </contour>
  </outline>
</glyph>
<glyph name="plus" format="1">
  <advance width="365"/>
  <unicode hex="002B"/>
  <outline>
    <contour>
      <point x="211" y="309" type="qcurve"/>
      <point x="210" y="277"/>
      <point x="206" y="214"/>
      <point x="202" y="183" type="qcurve"/>
      <point x="189" y="181"/>
      <point x="162" y="181"/>
      <point x="149" y="183" type="qcurve"/>
      <point x="152" y="211"/>
      <point x="156" y="270"/>
      <point x="157" y="308" type="qcurve"/>
      <point x="122" y="309"/>
      <point x="58" y="314"/>
      <point x="28" y="318" type="qcurve"/>
      <point x="28" y="332"/>
      <point x="31" y="358"/>
      <point x="34" y="371" type="qcurve"/>
      <point x="66" y="367"/>
      <point x="126" y="363"/>
      <point x="157" y="362" type="qcurve"/>
      <point x="156" y="394"/>
      <point x="153" y="454"/>
      <point x="150" y="485" type="qcurve"/>
      <point x="162" y="488"/>
      <point x="188" y="489"/>
      <point x="202" y="487" type="qcurve"/>
      <point x="206" y="457"/>
      <point x="210" y="395"/>
      <point x="211" y="363" type="qcurve"/>
      <point x="234" y="363"/>
      <point x="293" y="366"/>
      <point x="338" y="370" type="qcurve"/>
      <point x="338" y="356"/>
      <point x="335" y="330"/>
      <point x="332" y="318" type="qcurve"/>
      <point x="303" y="314"/>
      <point x="242" y="310"/>
    </contour>
  </outline>
</glyph>
<glyph name="comma" format="1">
  <advance width="139"/>
  <unicode hex="002C"/>
  <outline>
    <contour>
      <point x="43" y="81" type="qcurve"/>
      <point x="63" y="82"/>
      <point x="100" y="80"/>
      <point x="117" y="77" type="qcurve"/>
      <point x="115" y="3"/>
      <point x="84" y="-138"/>
      <point x="53" y="-222" type="qcurve"/>
      <point x="41" y="-221"/>
      <point x="16" y="-215"/>
      <point x="1" y="-211" type="qcurve"/>
      <point x="21" y="-129"/>
      <point x="41" y="7"/>
    </contour>
  </outline>
</glyph>
<glyph name="hyphen" format="1">
  <advance width="282"/>
  <unicode hex="002D"/>
  <outline>
    <contour>
      <point x="247" y="251" type="qcurve"/>
      <point x="180" y="243"/>
      <point x="62" y="247"/>
      <point x="29" y="257" type="qcurve"/>
      <point x="28" y="278"/>
      <point x="31" y="309"/>
      <point x="35" y="325" type="qcurve"/>
      <point x="59" y="320"/>
      <point x="129" y="314"/>
      <point x="162" y="314" type="qcurve" smooth="yes"/>
      <point x="194" y="314"/>
      <point x="237" y="316"/>
      <point x="253" y="319" type="qcurve"/>
      <point x="253" y="300"/>
      <point x="250" y="267"/>
    </contour>
  </outline>
</glyph>
<glyph name="period" format="1">
  <advance width="167"/>
  <unicode hex="002E"/>
  <outline>
    <contour>
      <point x="38" y="76" type="qcurve"/>
      <point x="64" y="82"/>
      <point x="110" y="83"/>
      <point x="133" y="79" type="qcurve"/>
      <point x="132" y="47"/>
      <point x="129" y="14"/>
      <point x="126" y="-2" type="qcurve"/>
      <point x="101" y="-5"/>
      <point x="62" y="-5"/>
      <point x="41" y="-2" type="qcurve"/>
      <point x="41" y="4"/>
      <point x="40" y="17"/>
      <point x="40" y="29" type="qcurve" smooth="yes"/>
      <point x="39" y="47"/>
      <point x="38" y="67"/>
    </contour>
  </outline>
</glyph>
<glyph name="slash" format="1">
  <advance width="464"/>
  <unicode hex="002F"/>
  <outline>
    <contour>
      <point x="402" y="746" type="qcurve"/>
      <point x="417" y="741"/>
      <point x="445" y="725"/>
      <point x="458" y="714" type="qcurve"/>
      <point x="371" y="505"/>
      <point x="145" y="29"/>
      <point x="25" y="-200" type="qcurve"/>
      <point x="10" y="-196"/>
      <point x="-19" y="-181"/>
      <point x="-33" y="-171" type="qcurve"/>
      <point x="51" y="-24"/>
      <point x="275" y="449"/>
    </contour>
  </outline>
</glyph>
<glyph name="one" format="1">
  <advance width="339"/>
  <unicode hex="0031"/>
  <outline>
    <contour>
      <point x="224" y="-36" type="qcurve"/>
      <point x="218" y="-39"/>
      <point x="202" y="-42"/>
      <point x="191" y="-43" type="qcurve" smooth="yes"/>
      <point x="183" y="-44"/>
      <point x="168" y="-44"/>
      <point x="160" y="-43" type="qcurve"/>
      <point x="163" y="25"/>
      <point x="172" y="122"/>
      <point x="179" y="181" type="qcurve" smooth="yes"/>
      <point x="188" y="273"/>
      <point x="222" y="473"/>
      <point x="243" y="563" type="qcurve"/>
      <point x="205" y="532"/>
      <point x="117" y="469"/>
      <point x="64" y="435" type="qcurve"/>
      <point x="49" y="448"/>
      <point x="31" y="473"/>
      <point x="22" y="491" type="qcurve"/>
      <point x="104" y="536"/>
      <point x="245" y="638"/>
      <point x="303" y="694" type="qcurve"/>
      <point x="320" y="685"/>
      <point x="339" y="671"/>
      <point x="348" y="663" type="qcurve"/>
      <point x="310" y="565"/>
      <point x="241" y="171"/>
    </contour>
  </outline>
</glyph>
<glyph name="two" format="1">
  <advance width="395"/>
  <unicode hex="0032"/>
  <outline>
    <contour>
      <point x="377" y="35" type="qcurve"/>
      <point x="375" y="15"/>
      <point x="367" y="-18"/>
      <point x="360" y="-33" type="qcurve"/>
      <point x="247" y="-25"/>
      <point x="71" y="1"/>
      <point x="2" y="20" type="qcurve"/>
      <point x="3" y="35"/>
      <point x="8" y="61"/>
      <point x="12" y="73" type="qcurve"/>
      <point x="163" y="186"/>
      <point x="297" y="375"/>
      <point x="297" y="477" type="qcurve" smooth="yes"/>
      <point x="297" y="527"/>
      <point x="252" y="587"/>
      <point x="213" y="587" type="qcurve" smooth="yes"/>
      <point x="173" y="587"/>
      <point x="115" y="507"/>
      <point x="102" y="432" type="qcurve"/>
      <point x="84" y="432"/>
      <point x="48" y="440"/>
      <point x="30" y="448" type="qcurve"/>
      <point x="50" y="541"/>
      <point x="146" y="641"/>
      <point x="215" y="641" type="qcurve" smooth="yes"/>
      <point x="287" y="641"/>
      <point x="374" y="547"/>
      <point x="374" y="470" type="qcurve" smooth="yes"/>
      <point x="374" y="372"/>
      <point x="230" y="165"/>
      <point x="86" y="57" type="qcurve"/>
      <point x="168" y="45"/>
      <point x="299" y="36"/>
    </contour>
  </outline>
</glyph>
<glyph name="five" format="1">
  <advance width="408"/>
  <unicode hex="0035"/>
  <outline>
    <contour>
      <point x="375" y="188" type="qcurve" smooth="yes"/>
      <point x="375" y="88"/>
      <point x="275" y="-37"/>
      <point x="195" y="-37" type="qcurve" smooth="yes"/>
      <point x="111" y="-37"/>
      <point x="11" y="86"/>
      <point x="5" y="198" type="qcurve"/>
      <point x="12" y="198"/>
      <point x="50" y="195"/>
      <point x="80" y="191" type="qcurve"/>
      <point x="80" y="106"/>
      <point x="138" y="17"/>
      <point x="193" y="17" type="qcurve" smooth="yes"/>
      <point x="244" y="17"/>
      <point x="297" y="98"/>
      <point x="297" y="175" type="qcurve" smooth="yes"/>
      <point x="297" y="254"/>
      <point x="226" y="345"/>
      <point x="162" y="345" type="qcurve" smooth="yes"/>
      <point x="143" y="345"/>
      <point x="107" y="336"/>
      <point x="91" y="328" type="qcurve"/>
      <point x="80" y="336"/>
      <point x="64" y="353"/>
      <point x="59" y="361" type="qcurve"/>
      <point x="57" y="381"/>
      <point x="56" y="415"/>
      <point x="56" y="433" type="qcurve" smooth="yes"/>
      <point x="56" y="490"/>
      <point x="67" y="612"/>
      <point x="77" y="664" type="qcurve"/>
      <point x="171" y="643"/>
      <point x="314" y="626"/>
      <point x="409" y="624" type="qcurve"/>
      <point x="408" y="607"/>
      <point x="398" y="570"/>
      <point x="391" y="552" type="qcurve"/>
      <point x="308" y="560"/>
      <point x="196" y="576"/>
      <point x="136" y="589" type="qcurve"/>
      <point x="127" y="532"/>
      <point x="120" y="430"/>
      <point x="122" y="388" type="qcurve"/>
      <point x="137" y="395"/>
      <point x="176" y="402"/>
      <point x="195" y="402" type="qcurve" smooth="yes"/>
      <point x="278" y="402"/>
      <point x="375" y="287"/>
    </contour>
  </outline>
</glyph>
<glyph name="seven" format="1">
  <advance width="378"/>
  <unicode hex="0037"/>
  <outline>
    <contour>
      <point x="384" y="595" type="qcurve"/>
      <point x="271" y="432"/>
      <point x="142" y="172"/>
      <point x="80" y="-11" type="qcurve"/>
      <point x="59" y="-12"/>
      <point x="23" y="-7"/>
      <point x="4" y="0" type="qcurve"/>
      <point x="68" y="172"/>
      <point x="213" y="456"/>
      <point x="306" y="591" type="qcurve"/>
      <point x="202" y="588"/>
      <point x="65" y="596"/>
      <point x="-12" y="607" type="qcurve"/>
      <point x="-13" y="624"/>
      <point x="-7" y="659"/>
      <point x="-1" y="676" type="qcurve"/>
      <point x="117" y="656"/>
      <point x="276" y="644"/>
      <point x="371" y="647" type="qcurve"/>
      <point x="377" y="632"/>
      <point x="383" y="608"/>
    </contour>
  </outline>
</glyph>
<glyph name="nine" format="1">
  <advance width="487"/>
  <unicode hex="0039"/>
  <outline>
    <contour>
      <point x="123" y="479" type="qcurve" smooth="yes"/>
      <point x="123" y="404"/>
      <point x="185" y="320"/>
      <point x="239" y="320" type="qcurve" smooth="yes"/>
      <point x="285" y="320"/>
      <point x="356" y="398"/>
      <point x="371" y="466" type="qcurve"/>
      <point x="360" y="557"/>
      <point x="293" y="654"/>
      <point x="243" y="654" type="qcurve" smooth="yes"/>
      <point x="191" y="654"/>
      <point x="123" y="555"/>
    </contour>
    <contour>
      <point x="454" y="386" type="qcurve" smooth="yes"/>
      <point x="454" y="209"/>
      <point x="303" y="-30"/>
      <point x="189" y="-30" type="qcurve" smooth="yes"/>
      <point x="142" y="-30"/>
      <point x="66" y="10"/>
      <point x="33" y="51" type="qcurve"/>
      <point x="42" y="68"/>
      <point x="63" y="97"/>
      <point x="77" y="111" type="qcurve"/>
      <point x="98" y="70"/>
      <point x="160" y="28"/>
      <point x="199" y="28" type="qcurve"/>
      <point x="271" y="28"/>
      <point x="372" y="212"/>
      <point x="376" y="353" type="qcurve"/>
      <point x="347" y="309"/>
      <point x="268" y="263"/>
      <point x="221" y="263" type="qcurve" smooth="yes"/>
      <point x="145" y="263"/>
      <point x="45" y="377"/>
      <point x="45" y="463" type="qcurve" smooth="yes"/>
      <point x="45" y="571"/>
      <point x="158" y="711"/>
      <point x="245" y="711" type="qcurve" smooth="yes"/>
      <point x="342" y="711"/>
      <point x="454" y="538"/>
    </contour>
  </outline>
</glyph>
<glyph name="colon" format="1">
  <advance width="168"/>
  <unicode hex="003A"/>
  <outline>
    <contour>
      <point x="91" y="547" type="qcurve" smooth="yes"/>
      <point x="101" y="547"/>
      <point x="122" y="544"/>
      <point x="132" y="542" type="qcurve"/>
      <point x="132" y="506"/>
      <point x="130" y="473"/>
      <point x="128" y="460" type="qcurve"/>
      <point x="106" y="458"/>
      <point x="65" y="458"/>
      <point x="40" y="461" type="qcurve"/>
      <point x="40" y="469"/>
      <point x="39" y="487"/>
      <point x="38" y="503" type="qcurve" smooth="yes"/>
      <point x="37" y="518"/>
      <point x="36" y="534"/>
      <point x="36" y="541" type="qcurve"/>
      <point x="48" y="544"/>
      <point x="75" y="547"/>
    </contour>
    <contour>
      <point x="39" y="79" type="qcurve"/>
      <point x="66" y="84"/>
      <point x="112" y="85"/>
      <point x="135" y="83" type="qcurve"/>
      <point x="134" y="52"/>
      <point x="132" y="16"/>
      <point x="130" y="-1" type="qcurve"/>
      <point x="108" y="-3"/>
      <point x="62" y="-3"/>
      <point x="41" y="0" type="qcurve"/>
      <point x="41" y="3"/>
      <point x="39" y="58"/>
    </contour>
  </outline>
</glyph>
<glyph name="greater" format="1">
  <advance width="364"/>
  <unicode hex="003E"/>
  <outline>
    <contour>
      <point x="46" y="167" type="qcurve"/>
      <point x="39" y="185"/>
      <point x="30" y="209"/>
      <point x="29" y="216" type="qcurve"/>
      <point x="102" y="247"/>
      <point x="216" y="308"/>
      <point x="267" y="342" type="qcurve"/>
      <point x="225" y="371"/>
      <point x="112" y="431"/>
      <point x="32" y="465" type="qcurve"/>
      <point x="33" y="477"/>
      <point x="42" y="501"/>
      <point x="49" y="513" type="qcurve"/>
      <point x="134" y="481"/>
      <point x="279" y="403"/>
      <point x="334" y="360" type="qcurve"/>
      <point x="331" y="321" type="line"/>
      <point x="272" y="278"/>
      <point x="132" y="202"/>
    </contour>
  </outline>
</glyph>
<glyph name="question" format="1">
  <advance width="383"/>
  <unicode hex="003F"/>
  <outline>
    <contour>
      <point x="199" y="208" type="qcurve"/>
      <point x="191" y="206"/>
      <point x="169" y="205"/>
      <point x="146" y="205" type="qcurve"/>
      <point x="139" y="282"/>
      <point x="132" y="375"/>
      <point x="131" y="391" type="qcurve"/>
      <point x="202" y="407"/>
      <point x="275" y="499"/>
      <point x="275" y="571" type="qcurve" smooth="yes"/>
      <point x="275" y="634"/>
      <point x="226" y="710"/>
      <point x="185" y="710" type="qcurve" smooth="yes"/>
      <point x="137" y="710"/>
      <point x="84" y="617"/>
      <point x="84" y="534" type="qcurve"/>
      <point x="66" y="534"/>
      <point x="30" y="540"/>
      <point x="15" y="545" type="qcurve"/>
      <point x="22" y="654"/>
      <point x="109" y="763"/>
      <point x="191" y="763" type="qcurve" smooth="yes"/>
      <point x="263" y="763"/>
      <point x="353" y="658"/>
      <point x="353" y="574" type="qcurve" smooth="yes"/>
      <point x="353" y="499"/>
      <point x="273" y="389"/>
      <point x="201" y="364" type="qcurve"/>
      <point x="201" y="350"/>
      <point x="200" y="318"/>
      <point x="200" y="286" type="qcurve" smooth="yes"/>
      <point x="200" y="255"/>
      <point x="199" y="223"/>
    </contour>
    <contour>
      <point x="217" y="29" type="qcurve" smooth="yes"/>
      <point x="218" y="18"/>
      <point x="219" y="6"/>
      <point x="219" y="0" type="qcurve"/>
      <point x="209" y="-2"/>
      <point x="190" y="-4"/>
      <point x="179" y="-4" type="qcurve" smooth="yes"/>
      <point x="172" y="-4"/>
      <point x="156" y="-2"/>
      <point x="143" y="0" type="qcurve"/>
      <point x="142" y="19"/>
      <point x="141" y="57"/>
      <point x="142" y="78" type="qcurve"/>
      <point x="166" y="79"/>
      <point x="198" y="78"/>
      <point x="214" y="77" type="qcurve"/>
      <point x="215" y="67"/>
      <point x="216" y="48"/>
    </contour>
  </outline>
</glyph>
<glyph name="B" format="1">
  <advance width="574"/>
  <unicode hex="0042"/>
  <outline>
    <contour>
      <point x="534" y="259" type="qcurve" smooth="yes"/>
      <point x="534" y="143"/>
      <point x="353" y="-20"/>
      <point x="223" y="-20" type="qcurve" smooth="yes"/>
      <point x="187" y="-20"/>
      <point x="113" y="0"/>
      <point x="87" y="16" type="qcurve"/>
      <point x="79" y="183"/>
      <point x="73" y="408"/>
      <point x="73" y="538" type="qcurve" smooth="yes"/>
      <point x="73" y="550"/>
      <point x="73" y="577"/>
      <point x="73" y="606" type="qcurve" smooth="yes"/>
      <point x="72" y="642"/>
      <point x="72" y="682"/>
      <point x="72" y="701" type="qcurve"/>
      <point x="113" y="720"/>
      <point x="205" y="740"/>
      <point x="252" y="740" type="qcurve"/>
      <point x="362" y="740"/>
      <point x="484" y="654"/>
      <point x="484" y="577" type="qcurve" smooth="yes"/>
      <point x="484" y="524"/>
      <point x="426" y="444"/>
      <point x="369" y="417" type="qcurve"/>
      <point x="450" y="405"/>
      <point x="534" y="324"/>
    </contour>
    <contour>
      <point x="404" y="568" type="qcurve" smooth="yes"/>
      <point x="404" y="624"/>
      <point x="326" y="685"/>
      <point x="253" y="685" type="qcurve" smooth="yes"/>
      <point x="230" y="685"/>
      <point x="182" y="678"/>
      <point x="158" y="672" type="qcurve"/>
      <point x="153" y="615"/>
      <point x="149" y="492"/>
      <point x="149" y="406" type="qcurve"/>
      <point x="281" y="418"/>
      <point x="404" y="495"/>
    </contour>
    <contour>
      <point x="155" y="53" type="qcurve"/>
      <point x="173" y="45"/>
      <point x="213" y="36"/>
      <point x="233" y="36" type="qcurve" smooth="yes"/>
      <point x="323" y="36"/>
      <point x="453" y="158"/>
      <point x="453" y="240" type="qcurve" smooth="yes"/>
      <point x="453" y="306"/>
      <point x="377" y="371"/>
      <point x="299" y="371" type="qcurve" smooth="yes"/>
      <point x="265" y="371"/>
      <point x="181" y="356"/>
      <point x="149" y="344" type="qcurve"/>
      <point x="149" y="323"/>
      <point x="149" y="280"/>
      <point x="149" y="258" type="qcurve" smooth="yes"/>
      <point x="149" y="198"/>
      <point x="152" y="101"/>
    </contour>
  </outline>
</glyph>
<glyph name="D" format="1">
  <advance width="576"/>
  <unicode hex="0044"/>
  <outline>
    <contour>
      <point x="535" y="444" type="qcurve" smooth="yes"/>
      <point x="535" y="292"/>
      <point x="325" y="44"/>
      <point x="148" y="-11" type="qcurve"/>
      <point x="141" y="-11"/>
      <point x="87" y="-5"/>
      <point x="80" y="-3" type="qcurve"/>
      <point x="71" y="157"/>
      <point x="64" y="392"/>
      <point x="64" y="508" type="qcurve" smooth="yes"/>
      <point x="64" y="549"/>
      <point x="66" y="640"/>
      <point x="67" y="675" type="qcurve"/>
      <point x="110" y="696"/>
      <point x="202" y="717"/>
      <point x="255" y="717" type="qcurve" smooth="yes"/>
      <point x="392" y="717"/>
      <point x="535" y="577"/>
    </contour>
    <contour>
      <point x="152" y="643" type="qcurve"/>
      <point x="147" y="557"/>
      <point x="142" y="410"/>
      <point x="142" y="229" type="qcurve" smooth="yes"/>
      <point x="142" y="177"/>
      <point x="143" y="92"/>
      <point x="145" y="49" type="qcurve"/>
      <point x="297" y="107"/>
      <point x="453" y="308"/>
      <point x="453" y="446" type="qcurve" smooth="yes"/>
      <point x="453" y="550"/>
      <point x="344" y="659"/>
      <point x="240" y="659" type="qcurve" smooth="yes"/>
      <point x="218" y="659"/>
      <point x="175" y="651"/>
    </contour>
  </outline>
</glyph>
<glyph name="N" format="1">
  <advance width="630"/>
  <unicode hex="004E"/>
  <outline>
    <contour>
      <point x="150" y="331" type="qcurve" smooth="yes"/>
      <point x="151" y="263"/>
      <point x="160" y="94"/>
      <point x="169" y="-32" type="qcurve"/>
      <point x="156" y="-35"/>
      <point x="122" y="-39"/>
      <point x="104" y="-40" type="qcurve"/>
      <point x="83" y="198"/>
      <point x="67" y="518"/>
      <point x="67" y="677" type="qcurve"/>
      <point x="68" y="677"/>
      <point x="70" y="678"/>
      <point x="70" y="678" type="qcurve"/>
      <point x="95" y="690"/>
      <point x="132" y="701"/>
      <point x="156" y="705" type="qcurve"/>
      <point x="259" y="572"/>
      <point x="412" y="307"/>
      <point x="478" y="149" type="qcurve"/>
      <point x="480" y="182"/>
      <point x="481" y="265"/>
      <point x="481" y="352" type="qcurve" smooth="yes"/>
      <point x="481" y="486"/>
      <point x="472" y="683"/>
      <point x="463" y="742" type="qcurve"/>
      <point x="488" y="750"/>
      <point x="527" y="756"/>
      <point x="548" y="757" type="qcurve"/>
      <point x="552" y="672"/>
      <point x="554" y="587"/>
      <point x="554" y="549" type="qcurve" smooth="yes"/>
      <point x="554" y="392"/>
      <point x="544" y="156"/>
      <point x="533" y="24" type="qcurve"/>
      <point x="518" y="21"/>
      <point x="487" y="18"/>
      <point x="468" y="17" type="qcurve"/>
      <point x="395" y="189"/>
      <point x="235" y="470"/>
      <point x="148" y="582" type="qcurve"/>
      <point x="147" y="529"/>
      <point x="150" y="351"/>
    </contour>
  </outline>
</glyph>
<glyph name="O" format="1">
  <advance width="599"/>
  <unicode hex="004F"/>
  <outline>
    <contour>
      <point x="326" y="733" type="qcurve" smooth="yes"/>
      <point x="437" y="733"/>
      <point x="552" y="560"/>
      <point x="552" y="394" type="qcurve" smooth="yes"/>
      <point x="552" y="322"/>
      <point x="521" y="181"/>
      <point x="492" y="126" type="qcurve" smooth="yes"/>
      <point x="455" y="54"/>
      <point x="344" y="-20"/>
      <point x="274" y="-20" type="qcurve" smooth="yes"/>
      <point x="171" y="-20"/>
      <point x="44" y="180"/>
      <point x="44" y="339" type="qcurve" smooth="yes"/>
      <point x="44" y="511"/>
      <point x="202" y="733"/>
    </contour>
    <contour>
      <point x="282" y="39" type="qcurve" smooth="yes"/>
      <point x="369" y="39"/>
      <point x="470" y="228"/>
      <point x="470" y="377" type="qcurve" smooth="yes"/>
      <point x="470" y="529"/>
      <point x="394" y="672"/>
      <point x="313" y="672" type="qcurve" smooth="yes"/>
      <point x="231" y="672"/>
      <point x="127" y="493"/>
      <point x="127" y="351" type="qcurve" smooth="yes"/>
      <point x="127" y="215"/>
      <point x="210" y="39"/>
    </contour>
  </outline>
</glyph>
<glyph name="P" format="1">
  <advance width="550"/>
  <unicode hex="0050"/>
  <outline>
    <contour>
      <point x="143" y="232" type="qcurve"/>
      <point x="144" y="168"/>
      <point x="152" y="33"/>
      <point x="161" y="-68" type="qcurve"/>
      <point x="147" y="-70"/>
      <point x="103" y="-68"/>
      <point x="92" y="-65" type="qcurve"/>
      <point x="78" y="102"/>
      <point x="67" y="348"/>
      <point x="67" y="538" type="qcurve" smooth="yes"/>
      <point x="67" y="575"/>
      <point x="71" y="679"/>
      <point x="74" y="715" type="qcurve"/>
      <point x="126" y="729"/>
      <point x="215" y="742"/>
      <point x="256" y="742" type="qcurve" smooth="yes"/>
      <point x="378" y="742"/>
      <point x="511" y="639"/>
      <point x="511" y="547" type="qcurve" smooth="yes"/>
      <point x="511" y="443"/>
      <point x="331" y="288"/>
    </contour>
    <contour>
      <point x="159" y="674" type="qcurve"/>
      <point x="151" y="589"/>
      <point x="143" y="430"/>
      <point x="143" y="336" type="qcurve"/>
      <point x="143" y="325"/>
      <point x="143" y="304"/>
      <point x="143" y="293" type="qcurve"/>
      <point x="285" y="331"/>
      <point x="429" y="454"/>
      <point x="429" y="537" type="qcurve" smooth="yes"/>
      <point x="429" y="610"/>
      <point x="339" y="687"/>
      <point x="254" y="687" type="qcurve" smooth="yes"/>
      <point x="231" y="687"/>
      <point x="184" y="681"/>
    </contour>
  </outline>
</glyph>
<glyph name="R" format="1">
  <advance width="562"/>
  <unicode hex="0052"/>
  <outline>
    <contour>
      <point x="542" y="6" type="qcurve"/>
      <point x="532" y="-3"/>
      <point x="490" y="-24"/>
      <point x="472" y="-28" type="qcurve"/>
      <point x="415" y="100"/>
      <point x="332" y="250"/>
      <point x="282" y="318" type="qcurve"/>
      <point x="258" y="307"/>
      <point x="199" y="288"/>
      <point x="165" y="279" type="qcurve"/>
      <point x="162" y="199"/>
      <point x="154" y="59"/>
      <point x="148" y="-5" type="qcurve"/>
      <point x="133" y="-7"/>
      <point x="94" y="-4"/>
      <point x="82" y="-1" type="qcurve"/>
      <point x="87" y="78"/>
      <point x="90" y="175"/>
      <point x="90" y="228" type="qcurve" smooth="yes"/>
      <point x="90" y="389"/>
      <point x="80" y="577"/>
      <point x="66" y="703" type="qcurve"/>
      <point x="110" y="734"/>
      <point x="223" y="770"/>
      <point x="278" y="770" type="qcurve" smooth="yes"/>
      <point x="377" y="770"/>
      <point x="492" y="666"/>
      <point x="492" y="579" type="qcurve" smooth="yes"/>
      <point x="492" y="505"/>
      <point x="418" y="390"/>
      <point x="343" y="347" type="qcurve"/>
      <point x="391" y="290"/>
      <point x="491" y="119"/>
    </contour>
    <contour>
      <point x="153" y="684" type="qcurve"/>
      <point x="160" y="595"/>
      <point x="166" y="461"/>
      <point x="166" y="394" type="qcurve" smooth="yes"/>
      <point x="166" y="379"/>
      <point x="166" y="350"/>
      <point x="166" y="335" type="qcurve"/>
      <point x="291" y="366"/>
      <point x="411" y="478"/>
      <point x="411" y="565" type="qcurve" smooth="yes"/>
      <point x="411" y="636"/>
      <point x="338" y="713"/>
      <point x="270" y="713" type="qcurve" smooth="yes"/>
      <point x="240" y="713"/>
      <point x="181" y="698"/>
    </contour>
  </outline>
</glyph>
<glyph name="S" format="1">
  <advance width="475"/>
  <unicode hex="0053"/>
  <outline>
    <contour>
      <point x="394" y="288" type="qcurve" smooth="yes"/>
      <point x="414" y="258"/>
      <point x="433" y="189"/>
      <point x="433" y="148" type="qcurve" smooth="yes"/>
      <point x="433" y="65"/>
      <point x="327" y="-40"/>
      <point x="244" y="-40" type="qcurve" smooth="yes"/>
      <point x="144" y="-40"/>
      <point x="31" y="107"/>
      <point x="31" y="225" type="qcurve"/>
      <point x="47" y="233"/>
      <point x="85" y="245"/>
      <point x="103" y="246" type="qcurve"/>
      <point x="102" y="139"/>
      <point x="175" y="17"/>
      <point x="241" y="17" type="qcurve" smooth="yes"/>
      <point x="291" y="17"/>
      <point x="352" y="84"/>
      <point x="352" y="139" type="qcurve" smooth="yes"/>
      <point x="352" y="192"/>
      <point x="304" y="275"/>
      <point x="224" y="334" type="qcurve" smooth="yes"/>
      <point x="176" y="370"/>
      <point x="132" y="413"/>
      <point x="117" y="436" type="qcurve" smooth="yes"/>
      <point x="97" y="466"/>
      <point x="77" y="536"/>
      <point x="77" y="577" type="qcurve" smooth="yes"/>
      <point x="77" y="664"/>
      <point x="176" y="767"/>
      <point x="259" y="767" type="qcurve" smooth="yes"/>
      <point x="335" y="767"/>
      <point x="420" y="680"/>
      <point x="440" y="576" type="qcurve"/>
      <point x="426" y="568"/>
      <point x="393" y="560"/>
      <point x="368" y="559" type="qcurve"/>
      <point x="359" y="638"/>
      <point x="307" y="708"/>
      <point x="256" y="708" type="qcurve" smooth="yes"/>
      <point x="209" y="708"/>
      <point x="159" y="646"/>
      <point x="159" y="587" type="qcurve" smooth="yes"/>
      <point x="159" y="533"/>
      <point x="208" y="448"/>
      <point x="288" y="388" type="qcurve" smooth="yes"/>
      <point x="336" y="352"/>
      <point x="379" y="310"/>
    </contour>
  </outline>
</glyph>
<glyph name="V" format="1">
  <advance width="559"/>
  <unicode hex="0056"/>
  <outline>
    <contour>
      <point x="521" y="747" type="qcurve"/>
      <point x="495" y="510"/>
      <point x="393" y="149"/>
      <point x="282" y="-87" type="qcurve"/>
      <point x="268" y="-91"/>
      <point x="238" y="-95"/>
      <point x="219" y="-95" type="qcurve"/>
      <point x="147" y="72"/>
      <point x="49" y="423"/>
      <point x="22" y="612" type="qcurve"/>
      <point x="42" y="621"/>
      <point x="80" y="632"/>
      <point x="102" y="634" type="qcurve"/>
      <point x="122" y="468"/>
      <point x="201" y="148"/>
      <point x="260" y="-2" type="qcurve"/>
      <point x="342" y="196"/>
      <point x="426" y="539"/>
      <point x="446" y="761" type="qcurve"/>
      <point x="466" y="761"/>
      <point x="501" y="754"/>
    </contour>
  </outline>
</glyph>
<glyph name="W" format="1">
  <advance width="746"/>
  <unicode hex="0057"/>
  <outline>
    <contour>
      <point x="364" y="336" type="qcurve"/>
      <point x="341" y="235"/>
      <point x="281" y="48"/>
      <point x="238" y="-53" type="qcurve"/>
      <point x="224" y="-58"/>
      <point x="194" y="-63"/>
      <point x="180" y="-64" type="qcurve"/>
      <point x="105" y="166"/>
      <point x="35" y="473"/>
      <point x="16" y="656" type="qcurve"/>
      <point x="38" y="663"/>
      <point x="77" y="671"/>
      <point x="99" y="672" type="qcurve"/>
      <point x="108" y="528"/>
      <point x="163" y="242"/>
      <point x="218" y="54" type="qcurve"/>
      <point x="272" y="210"/>
      <point x="323" y="418"/>
      <point x="336" y="533" type="qcurve"/>
      <point x="354" y="537"/>
      <point x="395" y="543"/>
      <point x="413" y="544" type="qcurve"/>
      <point x="420" y="412"/>
      <point x="459" y="190"/>
      <point x="496" y="63" type="qcurve"/>
      <point x="562" y="233"/>
      <point x="637" y="537"/>
      <point x="655" y="710" type="qcurve"/>
      <point x="675" y="709"/>
      <point x="712" y="698"/>
      <point x="731" y="687" type="qcurve"/>
      <point x="700" y="481"/>
      <point x="602" y="154"/>
      <point x="518" y="-28" type="qcurve"/>
      <point x="505" y="-31"/>
      <point x="478" y="-35"/>
      <point x="456" y="-37" type="qcurve"/>
      <point x="414" y="99"/>
      <point x="374" y="263"/>
    </contour>
  </outline>
</glyph>
<glyph name="X" format="1">
  <advance width="642"/>
  <unicode hex="0058"/>
  <outline>
    <contour>
      <point x="576" y="12" type="qcurve"/>
      <point x="564" y="0"/>
      <point x="534" y="-21"/>
      <point x="518" y="-28" type="qcurve"/>
      <point x="468" y="88"/>
      <point x="382" y="266"/>
      <point x="342" y="339" type="qcurve"/>
      <point x="262" y="240"/>
      <point x="128" y="89"/>
      <point x="59" y="19" type="qcurve"/>
      <point x="46" y="28"/>
      <point x="22" y="50"/>
      <point x="16" y="61" type="qcurve"/>
      <point x="108" y="160"/>
      <point x="246" y="321"/>
      <point x="306" y="400" type="qcurve"/>
      <point x="255" y="485"/>
      <point x="140" y="637"/>
      <point x="65" y="717" type="qcurve"/>
      <point x="84" y="734"/>
      <point x="122" y="759"/>
      <point x="142" y="766" type="qcurve"/>
      <point x="212" y="680"/>
      <point x="316" y="534"/>
      <point x="359" y="462" type="qcurve"/>
      <point x="410" y="533"/>
      <point x="496" y="671"/>
      <point x="535" y="742" type="qcurve"/>
      <point x="550" y="734"/>
      <point x="581" y="707"/>
      <point x="593" y="690" type="qcurve"/>
      <point x="550" y="620"/>
      <point x="453" y="478"/>
      <point x="394" y="401" type="qcurve"/>
      <point x="436" y="327"/>
      <point x="520" y="146"/>
    </contour>
  </outline>
</glyph>
<glyph name="Y" format="1">
  <advance width="513"/>
  <unicode hex="0059"/>
  <outline>
    <contour>
      <point x="479" y="684" type="qcurve"/>
      <point x="402" y="385"/>
      <point x="260" y="54"/>
      <point x="159" y="-83" type="qcurve"/>
      <point x="141" y="-78"/>
      <point x="107" y="-64"/>
      <point x="95" y="-55" type="qcurve"/>
      <point x="139" y="7"/>
      <point x="210" y="127"/>
      <point x="238" y="188" type="qcurve"/>
      <point x="160" y="295"/>
      <point x="56" y="533"/>
      <point x="14" y="704" type="qcurve"/>
      <point x="34" y="715"/>
      <point x="75" y="727"/>
      <point x="98" y="728" type="qcurve"/>
      <point x="123" y="596"/>
      <point x="207" y="373"/>
      <point x="272" y="264" type="qcurve"/>
      <point x="312" y="360"/>
      <point x="371" y="580"/>
      <point x="393" y="715" type="qcurve"/>
      <point x="417" y="710"/>
      <point x="459" y="694"/>
    </contour>
  </outline>
</glyph>
<glyph name="Z" format="1">
  <advance width="585"/>
  <unicode hex="005A"/>
  <outline>
    <contour>
      <point x="522" y="46" type="qcurve"/>
      <point x="521" y="25"/>
      <point x="512" y="-14"/>
      <point x="503" y="-34" type="qcurve"/>
      <point x="386" y="-33"/>
      <point x="133" y="-13"/>
      <point x="23" y="5" type="qcurve"/>
      <point x="22" y="21"/>
      <point x="25" y="55"/>
      <point x="28" y="69" type="qcurve"/>
      <point x="180" y="228"/>
      <point x="397" y="499"/>
      <point x="463" y="615" type="qcurve"/>
      <point x="360" y="625"/>
      <point x="180" y="648"/>
      <point x="90" y="664" type="qcurve"/>
      <point x="91" y="685"/>
      <point x="101" y="721"/>
      <point x="112" y="738" type="qcurve"/>
      <point x="203" y="719"/>
      <point x="392" y="687"/>
      <point x="558" y="663" type="qcurve"/>
      <point x="557" y="652"/>
      <point x="550" y="611"/>
      <point x="548" y="606" type="qcurve"/>
      <point x="468" y="481"/>
      <point x="251" y="215"/>
      <point x="101" y="55" type="qcurve"/>
      <point x="214" y="44"/>
      <point x="425" y="39"/>
    </contour>
  </outline>
</glyph>
<glyph name="b" format="1">
  <advance width="448"/>
  <unicode hex="0062"/>
  <outline>
    <contour>
      <point x="408" y="300" type="qcurve" smooth="yes"/>
      <point x="408" y="148"/>
      <point x="283" y="-34"/>
      <point x="181" y="-34" type="qcurve" smooth="yes"/>
      <point x="146" y="-34"/>
      <point x="88" y="-12"/>
      <point x="62" y="11" type="qcurve"/>
      <point x="59" y="66"/>
      <point x="55" y="218"/>
      <point x="55" y="319" type="qcurve" smooth="yes"/>
      <point x="55" y="429"/>
      <point x="65" y="648"/>
      <point x="73" y="713" type="qcurve"/>
      <point x="84" y="717"/>
      <point x="111" y="721"/>
      <point x="128" y="721" type="qcurve" smooth="yes"/>
      <point x="136" y="721"/>
      <point x="150" y="719"/>
      <point x="164" y="716" type="qcurve"/>
      <point x="155" y="661"/>
      <point x="139" y="520"/>
      <point x="133" y="436" type="qcurve"/>
      <point x="158" y="474"/>
      <point x="224" y="511"/>
      <point x="266" y="511" type="qcurve" smooth="yes"/>
      <point x="335" y="511"/>
      <point x="408" y="403"/>
    </contour>
    <contour>
      <point x="127" y="44" type="qcurve"/>
      <point x="139" y="33"/>
      <point x="169" y="23"/>
      <point x="186" y="23" type="qcurve" smooth="yes"/>
      <point x="254" y="23"/>
      <point x="328" y="171"/>
      <point x="328" y="304" type="qcurve" smooth="yes"/>
      <point x="328" y="379"/>
      <point x="284" y="454"/>
      <point x="240" y="454" type="qcurve" smooth="yes"/>
      <point x="208" y="454"/>
      <point x="147" y="389"/>
      <point x="128" y="333" type="qcurve"/>
      <point x="127" y="301"/>
      <point x="125" y="239"/>
      <point x="125" y="210" type="qcurve" smooth="yes"/>
      <point x="125" y="130"/>
      <point x="126" y="68"/>
    </contour>
  </outline>
</glyph>
<glyph name="i" format="1">
  <advance width="206"/>
  <unicode hex="0069"/>
  <outline>
    <contour>
      <point x="150" y="741" type="qcurve" smooth="yes"/>
      <point x="164" y="740"/>
      <point x="185" y="735"/>
      <point x="194" y="730" type="qcurve"/>
      <point x="184" y="708"/>
      <point x="163" y="647"/>
      <point x="157" y="618" type="qcurve"/>
      <point x="146" y="616"/>
      <point x="112" y="615"/>
      <point x="94" y="616" type="qcurve"/>
      <point x="92" y="625"/>
      <point x="91" y="640"/>
      <point x="91" y="648" type="qcurve" smooth="yes"/>
      <point x="91" y="669"/>
      <point x="100" y="717"/>
      <point x="108" y="734" type="qcurve"/>
      <point x="119" y="739"/>
      <point x="137" y="742"/>
    </contour>
    <contour>
      <point x="73" y="498" type="qcurve"/>
      <point x="85" y="505"/>
      <point x="110" y="512"/>
      <point x="124" y="512" type="qcurve" smooth="yes"/>
      <point x="132" y="512"/>
      <point x="145" y="510"/>
      <point x="152" y="508" type="qcurve"/>
      <point x="132" y="403"/>
      <point x="116" y="121"/>
      <point x="124" y="-1" type="qcurve"/>
      <point x="117" y="-5"/>
      <point x="95" y="-9"/>
      <point x="84" y="-9" type="qcurve" smooth="yes"/>
      <point x="79" y="-9"/>
      <point x="70" y="-8"/>
      <point x="64" y="-7" type="qcurve"/>
      <point x="47" y="120"/>
      <point x="52" y="391"/>
    </contour>
  </outline>
</glyph>
<glyph name="j" format="1">
  <advance width="229"/>
  <unicode hex="006A"/>
  <outline>
    <contour>
      <point x="128" y="738" type="qcurve"/>
      <point x="119" y="715"/>
      <point x="103" y="652"/>
      <point x="99" y="623" type="qcurve"/>
      <point x="89" y="620"/>
      <point x="58" y="617"/>
      <point x="36" y="616" type="qcurve"/>
      <point x="32" y="629"/>
      <point x="29" y="653"/>
      <point x="29" y="663" type="qcurve" smooth="yes"/>
      <point x="27" y="684"/>
      <point x="31" y="721"/>
      <point x="36" y="738" type="qcurve"/>
      <point x="46" y="743"/>
      <point x="68" y="748"/>
      <point x="82" y="748" type="qcurve" smooth="yes"/>
      <point x="98" y="747"/>
      <point x="118" y="743"/>
    </contour>
    <contour>
      <point x="164" y="196" type="qcurve" smooth="yes"/>
      <point x="164" y="7"/>
      <point x="77" y="-194"/>
      <point x="-4" y="-194" type="qcurve" smooth="yes"/>
      <point x="-46" y="-194"/>
      <point x="-113" y="-150"/>
      <point x="-137" y="-107" type="qcurve"/>
      <point x="-130" y="-91"/>
      <point x="-108" y="-64"/>
      <point x="-96" y="-55" type="qcurve"/>
      <point x="-78" y="-93"/>
      <point x="-37" y="-129"/>
      <point x="-11" y="-129" type="qcurve" smooth="yes"/>
      <point x="37" y="-129"/>
      <point x="87" y="14"/>
      <point x="87" y="151" type="qcurve" smooth="yes"/>
      <point x="87" y="222"/>
      <point x="65" y="382"/>
      <point x="31" y="528" type="qcurve"/>
      <point x="50" y="535"/>
      <point x="96" y="539"/>
      <point x="122" y="537" type="qcurve"/>
      <point x="145" y="418"/>
      <point x="164" y="262"/>
    </contour>
  </outline>
</glyph>
<glyph name="m" format="1">
  <advance width="707"/>
  <unicode hex="006D"/>
  <outline>
    <contour>
      <point x="126" y="167" type="qcurve" smooth="yes"/>
      <point x="126" y="109"/>
      <point x="130" y="4"/>
      <point x="133" y="-19" type="qcurve"/>
      <point x="120" y="-23"/>
      <point x="84" y="-29"/>
      <point x="67" y="-29" type="qcurve"/>
      <point x="60" y="89"/>
      <point x="48" y="415"/>
      <point x="48" y="522" type="qcurve"/>
      <point x="58" y="527"/>
      <point x="86" y="533"/>
      <point x="101" y="533" type="qcurve" smooth="yes"/>
      <point x="116" y="533"/>
      <point x="133" y="531"/>
      <point x="141" y="529" type="qcurve"/>
      <point x="140" y="519"/>
      <point x="135" y="460"/>
      <point x="132" y="411" type="qcurve"/>
      <point x="163" y="459"/>
      <point x="236" y="507"/>
      <point x="278" y="507" type="qcurve" smooth="yes"/>
      <point x="314" y="507"/>
      <point x="361" y="473"/>
      <point x="374" y="438" type="qcurve"/>
      <point x="409" y="500"/>
      <point x="488" y="562"/>
      <point x="534" y="562" type="qcurve" smooth="yes"/>
      <point x="593" y="562"/>
      <point x="647" y="472"/>
      <point x="647" y="375" type="qcurve" smooth="yes"/>
      <point x="647" y="287"/>
      <point x="614" y="65"/>
      <point x="590" y="-22" type="qcurve"/>
      <point x="572" y="-21"/>
      <point x="531" y="-14"/>
      <point x="517" y="-9" type="qcurve"/>
      <point x="544" y="99"/>
      <point x="571" y="290"/>
      <point x="571" y="378" type="qcurve" smooth="yes"/>
      <point x="571" y="441"/>
      <point x="542" y="496"/>
      <point x="509" y="496" type="qcurve" smooth="yes"/>
      <point x="476" y="496"/>
      <point x="412" y="430"/>
      <point x="388" y="371" type="qcurve"/>
      <point x="389" y="354"/>
      <point x="390" y="331"/>
      <point x="390" y="321" type="qcurve" smooth="yes"/>
      <point x="390" y="250"/>
      <point x="366" y="70"/>
      <point x="351" y="11" type="qcurve"/>
      <point x="336" y="12"/>
      <point x="297" y="19"/>
      <point x="281" y="24" type="qcurve"/>
      <point x="300" y="125"/>
      <point x="315" y="263"/>
      <point x="315" y="322" type="qcurve" smooth="yes"/>
      <point x="315" y="386"/>
      <point x="286" y="441"/>
      <point x="253" y="441" type="qcurve" smooth="yes"/>
      <point x="218" y="441"/>
      <point x="151" y="379"/>
      <point x="129" y="325" type="qcurve"/>
      <point x="128" y="285"/>
      <point x="126" y="202"/>
    </contour>
  </outline>
</glyph>
<glyph name="n" format="1">
  <advance width="461"/>
  <unicode hex="006E"/>
  <outline>
    <contour>
      <point x="126" y="167" type="qcurve" smooth="yes"/>
      <point x="126" y="120"/>
      <point x="130" y="1"/>
      <point x="133" y="-26" type="qcurve"/>
      <point x="120" y="-30"/>
      <point x="84" y="-36"/>
      <point x="67" y="-36" type="qcurve"/>
      <point x="60" y="69"/>
      <point x="50" y="403"/>
      <point x="50" y="519" type="qcurve"/>
      <point x="60" y="524"/>
      <point x="88" y="530"/>
      <point x="103" y="530" type="qcurve" smooth="yes"/>
      <point x="113" y="530"/>
      <point x="132" y="528"/>
      <point x="142" y="526" type="qcurve"/>
      <point x="140" y="508"/>
      <point x="135" y="429"/>
      <point x="134" y="417" type="qcurve"/>
      <point x="167" y="472"/>
      <point x="241" y="526"/>
      <point x="282" y="526" type="qcurve" smooth="yes"/>
      <point x="344" y="526"/>
      <point x="401" y="435"/>
      <point x="401" y="338" type="qcurve" smooth="yes"/>
      <point x="401" y="260"/>
      <point x="376" y="66"/>
      <point x="362" y="11" type="qcurve"/>
      <point x="346" y="12"/>
      <point x="307" y="19"/>
      <point x="291" y="24" type="qcurve"/>
      <point x="309" y="122"/>
      <point x="325" y="274"/>
      <point x="325" y="341" type="qcurve" smooth="yes"/>
      <point x="325" y="404"/>
      <point x="294" y="460"/>
      <point x="259" y="460" type="qcurve" smooth="yes"/>
      <point x="224" y="460"/>
      <point x="155" y="390"/>
      <point x="130" y="329" type="qcurve"/>
      <point x="128" y="257"/>
      <point x="126" y="191"/>
    </contour>
  </outline>
</glyph>
<glyph name="p" format="1">
  <advance width="453"/>
  <unicode hex="0070"/>
  <outline>
    <contour>
      <point x="135" y="86" type="qcurve"/>
      <point x="147" y="74"/>
      <point x="175" y="62"/>
      <point x="191" y="62" type="qcurve" smooth="yes"/>
      <point x="249" y="62"/>
      <point x="335" y="229"/>
      <point x="335" y="352" type="qcurve" smooth="yes"/>
      <point x="335" y="415"/>
      <point x="293" y="487"/>
      <point x="257" y="487" type="qcurve" smooth="yes"/>
      <point x="215" y="487"/>
      <point x="151" y="409"/>
      <point x="132" y="333" type="qcurve"/>
      <point x="131" y="321"/>
      <point x="131" y="291"/>
      <point x="131" y="261" type="qcurve"/>
      <point x="131" y="224"/>
      <point x="133" y="144"/>
    </contour>
    <contour>
      <point x="139" y="17" type="qcurve"/>
      <point x="143" y="-41"/>
      <point x="156" y="-151"/>
      <point x="166" y="-210" type="qcurve"/>
      <point x="152" y="-215"/>
      <point x="115" y="-220"/>
      <point x="99" y="-220" type="qcurve"/>
      <point x="82" y="-92"/>
      <point x="60" y="220"/>
      <point x="60" y="348" type="qcurve" smooth="yes"/>
      <point x="60" y="407"/>
      <point x="64" y="501"/>
      <point x="69" y="547" type="qcurve"/>
      <point x="82" y="554"/>
      <point x="113" y="561"/>
      <point x="130" y="561" type="qcurve" smooth="yes"/>
      <point x="135" y="561"/>
      <point x="149" y="559"/>
      <point x="159" y="557" type="qcurve"/>
      <point x="152" y="528"/>
      <point x="143" y="474"/>
      <point x="140" y="448" type="qcurve"/>
      <point x="167" y="500"/>
      <point x="242" y="556"/>
      <point x="287" y="556" type="qcurve" smooth="yes"/>
      <point x="345" y="556"/>
      <point x="415" y="448"/>
      <point x="415" y="358" type="qcurve" smooth="yes"/>
      <point x="415" y="209"/>
      <point x="285" y="10"/>
      <point x="191" y="10" type="qcurve" smooth="yes"/>
      <point x="178" y="10"/>
      <point x="152" y="13"/>
    </contour>
  </outline>
</glyph>
<glyph name="s" format="1">
  <advance width="374"/>
  <unicode hex="0073"/>
  <outline>
    <contour>
      <point x="222" y="288" type="qcurve" smooth="yes"/>
      <point x="294" y="236"/>
      <point x="339" y="163"/>
      <point x="339" y="119" type="qcurve" smooth="yes"/>
      <point x="339" y="50"/>
      <point x="251" y="-40"/>
      <point x="183" y="-40" type="qcurve" smooth="yes"/>
      <point x="112" y="-40"/>
      <point x="23" y="62"/>
      <point x="23" y="146" type="qcurve"/>
      <point x="38" y="151"/>
      <point x="71" y="156"/>
      <point x="87" y="155" type="qcurve"/>
      <point x="85" y="88"/>
      <point x="136" y="12"/>
      <point x="184" y="12" type="qcurve" smooth="yes"/>
      <point x="220" y="12"/>
      <point x="263" y="61"/>
      <point x="263" y="103" type="qcurve" smooth="yes"/>
      <point x="263" y="137"/>
      <point x="225" y="196"/>
      <point x="162" y="242" type="qcurve" smooth="yes"/>
      <point x="88" y="296"/>
      <point x="42" y="373"/>
      <point x="42" y="420" type="qcurve" smooth="yes"/>
      <point x="42" y="483"/>
      <point x="118" y="558"/>
      <point x="183" y="558" type="qcurve" smooth="yes"/>
      <point x="245" y="558"/>
      <point x="316" y="486"/>
      <point x="330" y="407" type="qcurve"/>
      <point x="315" y="400"/>
      <point x="284" y="393"/>
      <point x="267" y="391" type="qcurve"/>
      <point x="259" y="450"/>
      <point x="218" y="504"/>
      <point x="182" y="504" type="qcurve" smooth="yes"/>
      <point x="152" y="504"/>
      <point x="117" y="464"/>
      <point x="117" y="430" type="qcurve" smooth="yes"/>
      <point x="117" y="395"/>
      <point x="157" y="335"/>
    </contour>
  </outline>
</glyph>
<glyph name="u" format="1">
  <advance width="410"/>
  <unicode hex="0075"/>
  <outline>
    <contour>
      <point x="187" y="-10" type="qcurve" smooth="yes"/>
      <point x="114" y="-10"/>
      <point x="39" y="132"/>
      <point x="39" y="270" type="qcurve" smooth="yes"/>
      <point x="39" y="340"/>
      <point x="62" y="481"/>
      <point x="79" y="512" type="qcurve"/>
      <point x="88" y="515"/>
      <point x="106" y="518"/>
      <point x="115" y="518" type="qcurve" smooth="yes"/>
      <point x="124" y="518"/>
      <point x="139" y="515"/>
      <point x="146" y="511" type="qcurve"/>
      <point x="131" y="463"/>
      <point x="115" y="339"/>
      <point x="115" y="267" type="qcurve" smooth="yes"/>
      <point x="115" y="170"/>
      <point x="160" y="46"/>
      <point x="198" y="46" type="qcurve" smooth="yes"/>
      <point x="245" y="46"/>
      <point x="294" y="190"/>
      <point x="294" y="320" type="qcurve" smooth="yes"/>
      <point x="294" y="360"/>
      <point x="286" y="447"/>
      <point x="282" y="464" type="qcurve"/>
      <point x="297" y="471"/>
      <point x="341" y="479"/>
      <point x="361" y="479" type="qcurve"/>
      <point x="366" y="456"/>
      <point x="371" y="392"/>
      <point x="371" y="359" type="qcurve" smooth="yes"/>
      <point x="371" y="180"/>
      <point x="278" y="-10"/>
    </contour>
  </outline>
</glyph>
<glyph name="x" format="1">
  <advance width="483"/>
  <unicode hex="0078"/>
  <outline>
    <contour>
      <point x="450" y="7" type="qcurve"/>
      <point x="437" y="-3"/>
      <point x="405" y="-22"/>
      <point x="392" y="-27" type="qcurve"/>
      <point x="359" y="45"/>
      <point x="291" y="174"/>
      <point x="256" y="232" type="qcurve"/>
      <point x="209" y="175"/>
      <point x="104" y="63"/>
      <point x="37" y="-2" type="qcurve"/>
      <point x="25" y="6"/>
      <point x="5" y="28"/>
      <point x="-2" y="40" type="qcurve"/>
      <point x="56" y="95"/>
      <point x="169" y="220"/>
      <point x="222" y="287" type="qcurve"/>
      <point x="183" y="348"/>
      <point x="104" y="458"/>
      <point x="63" y="507" type="qcurve"/>
      <point x="83" y="522"/>
      <point x="124" y="546"/>
      <point x="144" y="553" type="qcurve"/>
      <point x="183" y="496"/>
      <point x="247" y="395"/>
      <point x="275" y="347" type="qcurve"/>
      <point x="306" y="391"/>
      <point x="371" y="488"/>
      <point x="406" y="545" type="qcurve"/>
      <point x="416" y="538"/>
      <point x="434" y="521"/>
      <point x="459" y="489" type="qcurve"/>
      <point x="419" y="432"/>
      <point x="345" y="334"/>
      <point x="309" y="289" type="qcurve"/>
      <point x="350" y="216"/>
      <point x="418" y="78"/>
    </contour>
  </outline>
</glyph>
<glyph name="z" format="1">
  <advance width="441"/>
  <unicode hex="007A"/>
  <outline>
    <contour>
      <point x="384" y="49" type="qcurve"/>
      <point x="383" y="33"/>
      <point x="375" y="0"/>
      <point x="367" y="-18" type="qcurve"/>
      <point x="262" y="-17"/>
      <point x="95" y="1"/>
      <point x="15" y="21" type="qcurve"/>
      <point x="14" y="36"/>
      <point x="16" y="62"/>
      <point x="18" y="73" type="qcurve"/>
      <point x="103" y="187"/>
      <point x="251" y="362"/>
      <point x="332" y="444" type="qcurve"/>
      <point x="275" y="455"/>
      <point x="167" y="468"/>
      <point x="65" y="476" type="qcurve"/>
      <point x="67" y="498"/>
      <point x="73" y="524"/>
      <point x="80" y="541" type="qcurve"/>
      <point x="176" y="533"/>
      <point x="321" y="507"/>
      <point x="410" y="480" type="qcurve"/>
      <point x="410" y="467"/>
      <point x="405" y="438"/>
      <point x="401" y="427" type="qcurve"/>
      <point x="308" y="331"/>
      <point x="163" y="162"/>
      <point x="86" y="59" type="qcurve"/>
      <point x="171" y="48"/>
      <point x="306" y="44"/>
    </contour>
  </outline>
</glyph>
<glyph name="braceleft" format="1">
  <advance width="295"/>
  <unicode hex="007B"/>
  <outline>
    <contour>
      <point x="257" y="-152" type="qcurve"/>
      <point x="240" y="-160"/>
      <point x="209" y="-166"/>
      <point x="185" y="-166" type="qcurve" smooth="yes"/>
      <point x="131" y="-166"/>
      <point x="63" y="-93"/>
      <point x="63" y="-36" type="qcurve" smooth="yes"/>
      <point x="63" y="-3"/>
      <point x="82" y="56"/>
      <point x="107" y="97" type="qcurve" smooth="yes"/>
      <point x="137" y="144"/>
      <point x="157" y="194"/>
      <point x="157" y="215" type="qcurve" smooth="yes"/>
      <point x="157" y="246"/>
      <point x="118" y="287"/>
      <point x="89" y="287" type="qcurve" smooth="yes"/>
      <point x="79" y="287"/>
      <point x="58" y="285"/>
      <point x="45" y="282" type="qcurve"/>
      <point x="40" y="303"/>
      <point x="39" y="353"/>
      <point x="43" y="371" type="qcurve"/>
      <point x="53" y="368"/>
      <point x="72" y="366"/>
      <point x="85" y="366" type="qcurve" smooth="yes"/>
      <point x="116" y="366"/>
      <point x="152" y="405"/>
      <point x="152" y="439" type="qcurve" smooth="yes"/>
      <point x="152" y="457"/>
      <point x="138" y="493"/>
      <point x="102" y="550" type="qcurve" smooth="yes"/>
      <point x="76" y="592"/>
      <point x="56" y="651"/>
      <point x="56" y="684" type="qcurve" smooth="yes"/>
      <point x="56" y="741"/>
      <point x="125" y="814"/>
      <point x="179" y="814" type="qcurve" smooth="yes"/>
      <point x="201" y="814"/>
      <point x="234" y="807"/>
      <point x="249" y="800" type="qcurve"/>
      <point x="251" y="788"/>
      <point x="244" y="761"/>
      <point x="237" y="748" type="qcurve"/>
      <point x="225" y="754"/>
      <point x="205" y="759"/>
      <point x="191" y="759" type="qcurve" smooth="yes"/>
      <point x="162" y="759"/>
      <point x="127" y="717"/>
      <point x="127" y="681" type="qcurve" smooth="yes"/>
      <point x="127" y="657"/>
      <point x="144" y="609"/>
      <point x="170" y="565" type="qcurve" smooth="yes"/>
      <point x="199" y="520"/>
      <point x="216" y="468"/>
      <point x="216" y="442" type="qcurve" smooth="yes"/>
      <point x="216" y="402"/>
      <point x="173" y="341"/>
      <point x="135" y="328" type="qcurve"/>
      <point x="175" y="317"/>
      <point x="220" y="256"/>
      <point x="220" y="213" type="qcurve" smooth="yes"/>
      <point x="220" y="187"/>
      <point x="203" y="135"/>
      <point x="176" y="88" type="qcurve" smooth="yes"/>
      <point x="149" y="43"/>
      <point x="133" y="-7"/>
      <point x="133" y="-32" type="qcurve" smooth="yes"/>
      <point x="133" y="-68"/>
      <point x="167" y="-110"/>
      <point x="197" y="-110" type="qcurve" smooth="yes"/>
      <point x="211" y="-110"/>
      <point x="231" y="-106"/>
      <point x="244" y="-100" type="qcurve"/>
      <point x="250" y="-112"/>
      <point x="257" y="-139"/>
    </contour>
  </outline>
</glyph>
<glyph name="bar" format="1">
  <advance width="265"/>
  <unicode hex="007C"/>
  <outline>
    <contour>
      <point x="171" y="-163" type="qcurve"/>
      <point x="160" y="-166"/>
      <point x="125" y="-171"/>
      <point x="114" y="-170" type="qcurve"/>
      <point x="103" y="9"/>
      <point x="93" y="467"/>
      <point x="94" y="713" type="qcurve"/>
      <point x="109" y="721"/>
      <point x="150" y="727"/>
      <point x="170" y="725" type="qcurve"/>
      <point x="161" y="562"/>
      <point x="163" y="27"/>
    </contour>
  </outline>
</glyph>
<glyph name="braceright" format="1">
  <advance width="313"/>
  <unicode hex="007D"/>
  <outline>
    <contour>
      <point x="193" y="98" type="qcurve" smooth="yes"/>
      <point x="217" y="58"/>
      <point x="236" y="-1"/>
      <point x="235" y="-35" type="qcurve" smooth="yes"/>
      <point x="234" y="-91"/>
      <point x="162" y="-163"/>
      <point x="107" y="-162" type="qcurve" smooth="yes"/>
      <point x="85" y="-161"/>
      <point x="56" y="-156"/>
      <point x="44" y="-150" type="qcurve"/>
      <point x="43" y="-136"/>
      <point x="48" y="-109"/>
      <point x="55" y="-97" type="qcurve"/>
      <point x="69" y="-103"/>
      <point x="89" y="-108"/>
      <point x="101" y="-108" type="qcurve" smooth="yes"/>
      <point x="130" y="-109"/>
      <point x="165" y="-67"/>
      <point x="165" y="-32" type="qcurve" smooth="yes"/>
      <point x="166" y="-8"/>
      <point x="150" y="41"/>
      <point x="124" y="86" type="qcurve" smooth="yes"/>
      <point x="98" y="131"/>
      <point x="82" y="181"/>
      <point x="83" y="207" type="qcurve" smooth="yes"/>
      <point x="84" y="249"/>
      <point x="128" y="309"/>
      <point x="167" y="321" type="qcurve"/>
      <point x="126" y="333"/>
      <point x="82" y="395"/>
      <point x="84" y="440" type="qcurve" smooth="yes"/>
      <point x="84" y="466"/>
      <point x="102" y="517"/>
      <point x="131" y="564" type="qcurve" smooth="yes"/>
      <point x="159" y="609"/>
      <point x="176" y="660"/>
      <point x="177" y="685" type="qcurve" smooth="yes"/>
      <point x="178" y="720"/>
      <point x="144" y="763"/>
      <point x="115" y="764" type="qcurve" smooth="yes"/>
      <point x="100" y="764"/>
      <point x="81" y="760"/>
      <point x="70" y="754" type="qcurve"/>
      <point x="65" y="765"/>
      <point x="60" y="791"/>
      <point x="61" y="807" type="qcurve"/>
      <point x="75" y="814"/>
      <point x="105" y="819"/>
      <point x="126" y="818" type="qcurve" smooth="yes"/>
      <point x="181" y="817"/>
      <point x="249" y="744"/>
      <point x="248" y="688" type="qcurve" smooth="yes"/>
      <point x="247" y="654"/>
      <point x="226" y="597"/>
      <point x="199" y="555" type="qcurve" smooth="yes"/>
      <point x="167" y="505"/>
      <point x="147" y="455"/>
      <point x="147" y="434" type="qcurve" smooth="yes"/>
      <point x="147" y="402"/>
      <point x="184" y="362"/>
      <point x="212" y="362" type="qcurve" smooth="yes"/>
      <point x="230" y="362"/>
      <point x="247" y="363"/>
      <point x="255" y="365" type="qcurve"/>
      <point x="259" y="343"/>
      <point x="259" y="292"/>
      <point x="254" y="276" type="qcurve"/>
      <point x="241" y="280"/>
      <point x="224" y="282"/>
      <point x="214" y="282" type="qcurve" smooth="yes"/>
      <point x="184" y="283"/>
      <point x="148" y="244"/>
      <point x="147" y="211" type="qcurve" smooth="yes"/>
      <point x="146" y="192"/>
      <point x="159" y="156"/>
    </contour>
  </outline>
</glyph>
<glyph name="asciitilde" format="1">
  <advance width="354"/>
  <unicode hex="007E"/>
  <outline>
    <contour>
      <point x="182" y="349" type="qcurve" smooth="yes"/>
      <point x="207" y="339"/>
      <point x="229" y="333"/>
      <point x="238" y="333" type="qcurve" smooth="yes"/>
      <point x="259" y="333"/>
      <point x="281" y="356"/>
      <point x="279" y="377" type="qcurve"/>
      <point x="291" y="378"/>
      <point x="311" y="374"/>
      <point x="324" y="369" type="qcurve"/>
      <point x="328" y="331"/>
      <point x="284" y="282"/>
      <point x="246" y="282" type="qcurve" smooth="yes"/>
      <point x="230" y="282"/>
      <point x="194" y="290"/>
      <point x="162" y="303" type="qcurve" smooth="yes"/>
      <point x="138" y="313"/>
      <point x="118" y="318"/>
      <point x="110" y="318" type="qcurve" smooth="yes"/>
      <point x="88" y="318"/>
      <point x="69" y="298"/>
      <point x="71" y="276" type="qcurve"/>
      <point x="63" y="275"/>
      <point x="43" y="279"/>
      <point x="29" y="283" type="qcurve"/>
      <point x="25" y="321"/>
      <point x="67" y="369"/>
      <point x="105" y="369" type="qcurve" smooth="yes"/>
      <point x="119" y="369"/>
      <point x="151" y="361"/>
    </contour>
  </outline>
</glyph>
<glyph name="exclamdown" format="1">
  <advance width="217"/>
  <unicode hex="00A1"/>
  <outline>
    <contour>
      <point x="98" y="555" type="qcurve" smooth="yes"/>
      <point x="106" y="555"/>
      <point x="122" y="553"/>
      <point x="135" y="551" type="qcurve"/>
      <point x="137" y="530"/>
      <point x="137" y="491"/>
      <point x="135" y="473" type="qcurve"/>
      <point x="114" y="472"/>
      <point x="81" y="472"/>
      <point x="63" y="473" type="qcurve"/>
      <point x="62" y="481"/>
      <point x="61" y="497"/>
      <point x="61" y="512" type="qcurve" smooth="yes"/>
      <point x="60" y="527"/>
      <point x="59" y="543"/>
      <point x="58" y="551" type="qcurve"/>
      <point x="68" y="553"/>
      <point x="87" y="555"/>
    </contour>
    <contour>
      <point x="134" y="341" type="qcurve"/>
      <point x="141" y="220"/>
      <point x="148" y="12"/>
      <point x="148" y="-115" type="qcurve" smooth="yes"/>
      <point x="148" y="-139"/>
      <point x="148" y="-165"/>
      <point x="147" y="-174" type="qcurve"/>
      <point x="132" y="-180"/>
      <point x="108" y="-186"/>
      <point x="95" y="-186" type="qcurve" smooth="yes"/>
      <point x="84" y="-186"/>
      <point x="68" y="-184"/>
      <point x="61" y="-182" type="qcurve"/>
      <point x="73" y="-66"/>
      <point x="80" y="201"/>
      <point x="76" y="342" type="qcurve"/>
      <point x="80" y="344"/>
      <point x="91" y="345"/>
      <point x="99" y="345" type="qcurve" smooth="yes"/>
      <point x="106" y="345"/>
      <point x="120" y="343"/>
    </contour>
  </outline>
</glyph>
<glyph name="cent" format="1">
  <advance width="428"/>
  <unicode hex="00A2"/>
  <outline>
    <contour>
      <point x="398" y="192" type="qcurve"/>
      <point x="383" y="135"/>
      <point x="271" y="46"/>
      <point x="206" y="46" type="qcurve" smooth="yes"/>
      <point x="191" y="46"/>
      <point x="164" y="50"/>
      <point x="150" y="54" type="qcurve"/>
      <point x="141" y="28"/>
      <point x="120" y="-24"/>
      <point x="107" y="-49" type="qcurve"/>
      <point x="90" y="-48"/>
      <point x="59" y="-39"/>
      <point x="47" y="-31" type="qcurve"/>
      <point x="65" y="1"/>
      <point x="91" y="55"/>
      <point x="101" y="83" type="qcurve"/>
      <point x="70" y="111"/>
      <point x="37" y="207"/>
      <point x="37" y="271" type="qcurve" smooth="yes"/>
      <point x="37" y="418"/>
      <point x="159" y="613"/>
      <point x="253" y="613" type="qcurve" smooth="yes"/>
      <point x="271" y="613"/>
      <point x="303" y="607"/>
      <point x="316" y="601" type="qcurve"/>
      <point x="325" y="631"/>
      <point x="343" y="677"/>
      <point x="353" y="695" type="qcurve"/>
      <point x="365" y="695"/>
      <point x="393" y="686"/>
      <point x="410" y="676" type="qcurve"/>
      <point x="390" y="638"/>
      <point x="368" y="590"/>
      <point x="360" y="568" type="qcurve"/>
      <point x="378" y="547"/>
      <point x="397" y="483"/>
      <point x="397" y="441" type="qcurve"/>
      <point x="382" y="433"/>
      <point x="344" y="425"/>
      <point x="321" y="425" type="qcurve"/>
      <point x="321" y="493"/>
      <point x="284" y="561"/>
      <point x="248" y="561" type="qcurve" smooth="yes"/>
      <point x="193" y="561"/>
      <point x="113" y="388"/>
      <point x="113" y="276" type="qcurve" smooth="yes"/>
      <point x="113" y="194"/>
      <point x="168" y="101"/>
      <point x="218" y="101" type="qcurve" smooth="yes"/>
      <point x="255" y="101"/>
      <point x="320" y="163"/>
      <point x="346" y="224" type="qcurve"/>
      <point x="361" y="222"/>
      <point x="393" y="202"/>
    </contour>
  </outline>
</glyph>
<glyph name="section" format="1">
  <advance width="368"/>
  <unicode hex="00A7"/>
  <outline>
    <contour>
      <point x="175" y="352" type="qcurve"/>
      <point x="138" y="343"/>
      <point x="98" y="298"/>
      <point x="98" y="264" type="qcurve" smooth="yes"/>
      <point x="98" y="231"/>
      <point x="139" y="176"/>
      <point x="187" y="144" type="qcurve"/>
      <point x="223" y="153"/>
      <point x="262" y="198"/>
      <point x="262" y="232" type="qcurve" smooth="yes"/>
      <point x="262" y="265"/>
      <point x="222" y="319"/>
    </contour>
    <contour>
      <point x="323" y="-44" type="qcurve" smooth="yes"/>
      <point x="323" y="-102"/>
      <point x="243" y="-183"/>
      <point x="184" y="-183" type="qcurve" smooth="yes"/>
      <point x="120" y="-183"/>
      <point x="47" y="-110"/>
      <point x="32" y="-33" type="qcurve"/>
      <point x="45" y="-25"/>
      <point x="75" y="-17"/>
      <point x="89" y="-17" type="qcurve"/>
      <point x="98" y="-76"/>
      <point x="144" y="-133"/>
      <point x="182" y="-133" type="qcurve" smooth="yes"/>
      <point x="213" y="-133"/>
      <point x="251" y="-90"/>
      <point x="251" y="-55" type="qcurve" smooth="yes"/>
      <point x="251" y="-14"/>
      <point x="205" y="50"/>
      <point x="148" y="88" type="qcurve" smooth="yes"/>
      <point x="81" y="133"/>
      <point x="31" y="207"/>
      <point x="31" y="252" type="qcurve" smooth="yes"/>
      <point x="31" y="296"/>
      <point x="81" y="365"/>
      <point x="128" y="384" type="qcurve"/>
      <point x="86" y="417"/>
      <point x="48" y="488"/>
      <point x="48" y="533" type="qcurve" smooth="yes"/>
      <point x="48" y="594"/>
      <point x="129" y="677"/>
      <point x="189" y="677" type="qcurve" smooth="yes"/>
      <point x="252" y="677"/>
      <point x="324" y="606"/>
      <point x="337" y="529" type="qcurve"/>
      <point x="325" y="522"/>
      <point x="297" y="515"/>
      <point x="279" y="514" type="qcurve"/>
      <point x="271" y="573"/>
      <point x="229" y="626"/>
      <point x="192" y="626" type="qcurve" smooth="yes"/>
      <point x="158" y="626"/>
      <point x="120" y="584"/>
      <point x="120" y="545" type="qcurve" smooth="yes"/>
      <point x="120" y="503"/>
      <point x="163" y="441"/>
      <point x="215" y="407" type="qcurve" smooth="yes"/>
      <point x="281" y="363"/>
      <point x="330" y="289"/>
      <point x="330" y="243" type="qcurve" smooth="yes"/>
      <point x="330" y="199"/>
      <point x="281" y="131"/>
      <point x="234" y="111" type="qcurve"/>
      <point x="281" y="75"/>
      <point x="323" y="2"/>
    </contour>
  </outline>
</glyph>
<glyph name="logicalnot" format="1">
  <advance width="364"/>
  <unicode hex="00AC"/>
  <outline>
    <contour>
      <point x="335" y="399" type="qcurve"/>
      <point x="339" y="359"/>
      <point x="337" y="269"/>
      <point x="331" y="219" type="qcurve"/>
      <point x="318" y="219"/>
      <point x="294" y="221"/>
      <point x="277" y="224" type="qcurve"/>
      <point x="282" y="254"/>
      <point x="285" y="308"/>
      <point x="284" y="342" type="qcurve"/>
      <point x="221" y="337"/>
      <point x="88" y="339"/>
      <point x="25" y="347" type="qcurve"/>
      <point x="25" y="361"/>
      <point x="28" y="386"/>
      <point x="31" y="401" type="qcurve"/>
      <point x="105" y="392"/>
      <point x="245" y="391"/>
    </contour>
  </outline>
</glyph>
<glyph name="registered" format="1">
  <advance width="747"/>
  <unicode hex="00AE"/>
  <outline>
    <contour>
      <point x="400" y="699" type="qcurve" smooth="yes"/>
      <point x="544" y="699"/>
      <point x="705" y="507"/>
      <point x="705" y="341" type="qcurve" smooth="yes"/>
      <point x="705" y="172"/>
      <point x="524" y="-21"/>
      <point x="366" y="-21" type="qcurve" smooth="yes"/>
      <point x="220" y="-21"/>
      <point x="42" y="165"/>
      <point x="42" y="318" type="qcurve" smooth="yes"/>
      <point x="42" y="490"/>
      <point x="239" y="699"/>
    </contour>
    <contour>
      <point x="108" y="329" type="qcurve" smooth="yes"/>
      <point x="108" y="191"/>
      <point x="251" y="31"/>
      <point x="374" y="31" type="qcurve" smooth="yes"/>
      <point x="501" y="31"/>
      <point x="639" y="194"/>
      <point x="639" y="343" type="qcurve" smooth="yes"/>
      <point x="639" y="485"/>
      <point x="507" y="646"/>
      <point x="388" y="646" type="qcurve" smooth="yes"/>
      <point x="271" y="646"/>
      <point x="108" y="463"/>
    </contour>
    <contour>
      <point x="530" y="152" type="qcurve"/>
      <point x="521" y="143"/>
      <point x="489" y="127"/>
      <point x="471" y="122" type="qcurve"/>
      <point x="441" y="191"/>
      <point x="398" y="270"/>
      <point x="373" y="305" type="qcurve"/>
      <point x="354" y="299"/>
      <point x="335" y="293"/>
      <point x="326" y="290" type="qcurve"/>
      <point x="325" y="252"/>
      <point x="321" y="176"/>
      <point x="317" y="139" type="qcurve"/>
      <point x="303" y="138"/>
      <point x="273" y="140"/>
      <point x="262" y="143" type="qcurve"/>
      <point x="264" y="172"/>
      <point x="265" y="219"/>
      <point x="265" y="245" type="qcurve" smooth="yes"/>
      <point x="265" y="328"/>
      <point x="258" y="447"/>
      <point x="250" y="518" type="qcurve"/>
      <point x="275" y="536"/>
      <point x="341" y="557"/>
      <point x="374" y="557" type="qcurve" smooth="yes"/>
      <point x="433" y="557"/>
      <point x="502" y="499"/>
      <point x="502" y="451" type="qcurve" smooth="yes"/>
      <point x="502" y="413"/>
      <point x="463" y="353"/>
      <point x="423" y="329" type="qcurve"/>
      <point x="450" y="298"/>
      <point x="503" y="210"/>
    </contour>
    <contour>
      <point x="322" y="507" type="qcurve"/>
      <point x="325" y="454"/>
      <point x="327" y="386"/>
      <point x="327" y="355" type="qcurve" smooth="yes"/>
      <point x="327" y="349"/>
      <point x="327" y="337"/>
      <point x="327" y="331" type="qcurve"/>
      <point x="383" y="345"/>
      <point x="436" y="399"/>
      <point x="436" y="442" type="qcurve" smooth="yes"/>
      <point x="436" y="478"/>
      <point x="400" y="517"/>
      <point x="368" y="517" type="qcurve" smooth="yes"/>
      <point x="357" y="517"/>
      <point x="333" y="512"/>
    </contour>
  </outline>
</glyph>
<glyph name="twosuperior" format="1">
  <advance width="275"/>
  <unicode hex="00B2"/>
  <outline>
    <contour>
      <point x="262" y="346" type="qcurve"/>
      <point x="261" y="332"/>
      <point x="255" y="305"/>
      <point x="249" y="290" type="qcurve"/>
      <point x="169" y="294"/>
      <point x="42" y="312"/>
      <point x="-1" y="325" type="qcurve"/>
      <point x="-1" y="339"/>
      <point x="2" y="358"/>
      <point x="5" y="366" type="qcurve"/>
      <point x="107" y="438"/>
      <point x="195" y="550"/>
      <point x="195" y="610" type="qcurve" smooth="yes"/>
      <point x="195" y="639"/>
      <point x="169" y="673"/>
      <point x="146" y="673" type="qcurve" smooth="yes"/>
      <point x="121" y="673"/>
      <point x="86" y="626"/>
      <point x="77" y="579" type="qcurve"/>
      <point x="58" y="579"/>
      <point x="28" y="585"/>
      <point x="14" y="591" type="qcurve"/>
      <point x="28" y="651"/>
      <point x="97" y="714"/>
      <point x="148" y="714" type="qcurve" smooth="yes"/>
      <point x="200" y="714"/>
      <point x="264" y="652"/>
      <point x="264" y="602" type="qcurve" smooth="yes"/>
      <point x="264" y="544"/>
      <point x="169" y="419"/>
      <point x="78" y="356" type="qcurve"/>
      <point x="127" y="351"/>
      <point x="210" y="346"/>
    </contour>
  </outline>
</glyph>
<glyph name="threesuperior" format="1">
  <advance width="291"/>
  <unicode hex="00B3"/>
  <outline>
    <contour>
      <point x="284" y="410" type="qcurve" smooth="yes"/>
      <point x="284" y="349"/>
      <point x="209" y="272"/>
      <point x="151" y="272" type="qcurve" smooth="yes"/>
      <point x="95" y="272"/>
      <point x="24" y="347"/>
      <point x="21" y="413" type="qcurve"/>
      <point x="34" y="419"/>
      <point x="66" y="424"/>
      <point x="85" y="424" type="qcurve"/>
      <point x="85" y="372"/>
      <point x="122" y="314"/>
      <point x="154" y="314" type="qcurve" smooth="yes"/>
      <point x="183" y="314"/>
      <point x="215" y="356"/>
      <point x="215" y="394" type="qcurve" smooth="yes"/>
      <point x="215" y="451"/>
      <point x="147" y="510"/>
      <point x="85" y="505" type="qcurve"/>
      <point x="81" y="522"/>
      <point x="79" y="537"/>
      <point x="79" y="543" type="qcurve"/>
      <point x="121" y="567"/>
      <point x="184" y="620"/>
      <point x="207" y="652" type="qcurve"/>
      <point x="152" y="648"/>
      <point x="60" y="635"/>
      <point x="16" y="625" type="qcurve"/>
      <point x="13" y="636"/>
      <point x="10" y="663"/>
      <point x="11" y="678" type="qcurve"/>
      <point x="70" y="691"/>
      <point x="203" y="706"/>
      <point x="267" y="707" type="qcurve"/>
      <point x="270" y="697"/>
      <point x="274" y="670"/>
      <point x="274" y="655" type="qcurve"/>
      <point x="251" y="620"/>
      <point x="198" y="567"/>
      <point x="160" y="540" type="qcurve"/>
      <point x="220" y="528"/>
      <point x="284" y="461"/>
    </contour>
  </outline>
</glyph>
<glyph name="ordmasculine" format="1">
  <advance width="243"/>
  <unicode hex="00BA"/>
  <outline>
    <contour>
      <point x="7" y="569" type="qcurve" smooth="yes"/>
      <point x="7" y="641"/>
      <point x="80" y="732"/>
      <point x="138" y="732" type="qcurve" smooth="yes"/>
      <point x="184" y="732"/>
      <point x="236" y="671"/>
      <point x="236" y="617" type="qcurve" smooth="yes"/>
      <point x="236" y="538"/>
      <point x="166" y="435"/>
      <point x="107" y="435" type="qcurve" smooth="yes"/>
      <point x="61" y="435"/>
      <point x="7" y="509"/>
    </contour>
    <contour>
      <point x="170" y="591" type="qcurve" smooth="yes"/>
      <point x="170" y="642"/>
      <point x="147" y="691"/>
      <point x="124" y="691" type="qcurve" smooth="yes"/>
      <point x="101" y="691"/>
      <point x="71" y="626"/>
      <point x="71" y="577" type="qcurve" smooth="yes"/>
      <point x="71" y="533"/>
      <point x="97" y="475"/>
      <point x="120" y="475" type="qcurve" smooth="yes"/>
      <point x="141" y="475"/>
      <point x="170" y="544"/>
    </contour>
  </outline>
</glyph>
<glyph name="questiondown" format="1">
  <advance width="368"/>
  <unicode hex="00BF"/>
  <outline>
    <contour>
      <point x="165" y="522" type="qcurve" smooth="yes"/>
      <point x="164" y="534"/>
      <point x="163" y="546"/>
      <point x="163" y="552" type="qcurve"/>
      <point x="173" y="554"/>
      <point x="192" y="556"/>
      <point x="203" y="556" type="qcurve" smooth="yes"/>
      <point x="212" y="556"/>
      <point x="230" y="554"/>
      <point x="239" y="551" type="qcurve"/>
      <point x="240" y="532"/>
      <point x="241" y="494"/>
      <point x="240" y="473" type="qcurve"/>
      <point x="216" y="472"/>
      <point x="184" y="473"/>
      <point x="168" y="474" type="qcurve"/>
      <point x="167" y="484"/>
      <point x="166" y="503"/>
    </contour>
    <contour>
      <point x="368" y="6" type="qcurve"/>
      <point x="362" y="-102"/>
      <point x="273" y="-211"/>
      <point x="191" y="-211" type="qcurve" smooth="yes"/>
      <point x="119" y="-211"/>
      <point x="29" y="-106"/>
      <point x="29" y="-22" type="qcurve" smooth="yes"/>
      <point x="29" y="53"/>
      <point x="110" y="163"/>
      <point x="182" y="187" type="qcurve"/>
      <point x="182" y="247"/>
      <point x="182" y="311"/>
      <point x="183" y="343" type="qcurve"/>
      <point x="194" y="345"/>
      <point x="222" y="347"/>
      <point x="236" y="346" type="qcurve"/>
      <point x="243" y="269"/>
      <point x="251" y="176"/>
      <point x="251" y="161" type="qcurve"/>
      <point x="180" y="144"/>
      <point x="107" y="52"/>
      <point x="107" y="-19" type="qcurve" smooth="yes"/>
      <point x="107" y="-82"/>
      <point x="156" y="-158"/>
      <point x="197" y="-158" type="qcurve" smooth="yes"/>
      <point x="245" y="-158"/>
      <point x="298" y="-65"/>
      <point x="298" y="17" type="qcurve"/>
      <point x="316" y="17"/>
      <point x="352" y="11"/>
    </contour>
  </outline>
</glyph>
<glyph name="AE" format="1">
  <advance width="820"/>
  <unicode hex="00C6"/>
  <outline>
    <contour>
      <point x="780" y="-16" type="qcurve"/>
      <point x="694" y="-28"/>
      <point x="518" y="-42"/>
      <point x="426" y="-44" type="qcurve"/>
      <point x="418" y="10"/>
      <point x="403" y="128"/>
      <point x="395" y="198" type="qcurve"/>
      <point x="344" y="197"/>
      <point x="242" y="187"/>
      <point x="197" y="179" type="qcurve"/>
      <point x="174" y="130"/>
      <point x="120" y="28"/>
      <point x="89" y="-26" type="qcurve"/>
      <point x="68" y="-21"/>
      <point x="35" y="-2"/>
      <point x="21" y="12" type="qcurve"/>
      <point x="120" y="173"/>
      <point x="246" y="477"/>
      <point x="304" y="699" type="qcurve"/>
      <point x="316" y="699"/>
      <point x="343" y="695"/>
      <point x="371" y="689" type="qcurve"/>
      <point x="499" y="712"/>
      <point x="663" y="729"/>
      <point x="756" y="731" type="qcurve"/>
      <point x="757" y="714"/>
      <point x="754" y="682"/>
      <point x="751" y="666" type="qcurve"/>
      <point x="670" y="666"/>
      <point x="520" y="654"/>
      <point x="444" y="641" type="qcurve"/>
      <point x="443" y="571"/>
      <point x="447" y="444"/>
      <point x="451" y="379" type="qcurve"/>
      <point x="553" y="397"/>
      <point x="654" y="411"/>
      <point x="705" y="415" type="qcurve"/>
      <point x="709" y="397"/>
      <point x="712" y="367"/>
      <point x="711" y="352" type="qcurve"/>
      <point x="643" y="348"/>
      <point x="534" y="335"/>
      <point x="456" y="322" type="qcurve"/>
      <point x="461" y="256"/>
      <point x="479" y="98"/>
      <point x="491" y="16" type="qcurve"/>
      <point x="574" y="19"/>
      <point x="712" y="35"/>
      <point x="775" y="48" type="qcurve"/>
      <point x="778" y="36"/>
      <point x="781" y="-1"/>
    </contour>
    <contour>
      <point x="361" y="636" type="qcurve"/>
      <point x="332" y="527"/>
      <point x="265" y="334"/>
      <point x="224" y="240" type="qcurve"/>
      <point x="261" y="246"/>
      <point x="343" y="254"/>
      <point x="389" y="256" type="qcurve"/>
      <point x="378" y="363"/>
      <point x="364" y="557"/>
    </contour>
  </outline>
</glyph>
<glyph name="Eth" format="1">
  <advance width="576"/>
  <unicode hex="00D0"/>
  <outline>
    <contour>
      <point x="142" y="345" type="qcurve"/>
      <point x="142" y="316"/>
      <point x="142" y="258"/>
      <point x="142" y="229" type="qcurve" smooth="yes"/>
      <point x="142" y="177"/>
      <point x="143" y="92"/>
      <point x="145" y="49" type="qcurve"/>
      <point x="297" y="107"/>
      <point x="453" y="308"/>
      <point x="453" y="446" type="qcurve" smooth="yes"/>
      <point x="453" y="550"/>
      <point x="344" y="659"/>
      <point x="240" y="659" type="qcurve" smooth="yes"/>
      <point x="217" y="659"/>
      <point x="173" y="651"/>
      <point x="152" y="644" type="qcurve"/>
      <point x="147" y="568"/>
      <point x="143" y="451"/>
      <point x="142" y="396" type="qcurve"/>
      <point x="178" y="398"/>
      <point x="252" y="405"/>
      <point x="294" y="412" type="qcurve"/>
      <point x="295" y="398"/>
      <point x="294" y="372"/>
      <point x="292" y="360" type="qcurve"/>
      <point x="253" y="353"/>
      <point x="178" y="346"/>
    </contour>
    <contour>
      <point x="535" y="444" type="qcurve" smooth="yes"/>
      <point x="535" y="292"/>
      <point x="325" y="44"/>
      <point x="148" y="-11" type="qcurve"/>
      <point x="141" y="-11"/>
      <point x="87" y="-5"/>
      <point x="80" y="-3" type="qcurve"/>
      <point x="74" y="118"/>
      <point x="67" y="277"/>
      <point x="66" y="344" type="qcurve"/>
      <point x="43" y="345"/>
      <point x="-3" y="348"/>
      <point x="-25" y="350" type="qcurve"/>
      <point x="-26" y="369"/>
      <point x="-25" y="394"/>
      <point x="-23" y="403" type="qcurve"/>
      <point x="1" y="401"/>
      <point x="44" y="398"/>
      <point x="65" y="397" type="qcurve"/>
      <point x="64" y="417"/>
      <point x="64" y="462"/>
      <point x="64" y="508" type="qcurve" smooth="yes"/>
      <point x="64" y="549"/>
      <point x="66" y="640"/>
      <point x="67" y="675" type="qcurve"/>
      <point x="111" y="696"/>
      <point x="201" y="717"/>
      <point x="242" y="717" type="qcurve" smooth="yes"/>
      <point x="387" y="717"/>
      <point x="535" y="579"/>
    </contour>
  </outline>
</glyph>
<glyph name="Oslash" format="1">
  <advance width="586"/>
  <unicode hex="00D8"/>
  <outline>
    <contour>
      <point x="307" y="672" type="qcurve" smooth="yes"/>
      <point x="225" y="672"/>
      <point x="121" y="493"/>
      <point x="121" y="351" type="qcurve" smooth="yes"/>
      <point x="121" y="291"/>
      <point x="140" y="180"/>
      <point x="158" y="138" type="qcurve"/>
      <point x="211" y="235"/>
      <point x="326" y="471"/>
      <point x="402" y="634" type="qcurve"/>
      <point x="383" y="653"/>
      <point x="337" y="672"/>
    </contour>
    <contour>
      <point x="193" y="79" type="qcurve"/>
      <point x="211" y="59"/>
      <point x="252" y="39"/>
      <point x="276" y="39" type="qcurve" smooth="yes"/>
      <point x="363" y="39"/>
      <point x="463" y="228"/>
      <point x="463" y="377" type="qcurve" smooth="yes"/>
      <point x="463" y="438"/>
      <point x="451" y="532"/>
      <point x="439" y="567" type="qcurve"/>
      <point x="388" y="458"/>
      <point x="271" y="226"/>
    </contour>
    <contour>
      <point x="485" y="126" type="qcurve" smooth="yes"/>
      <point x="448" y="54"/>
      <point x="337" y="-20"/>
      <point x="267" y="-20" type="qcurve" smooth="yes"/>
      <point x="237" y="-20"/>
      <point x="183" y="-2"/>
      <point x="159" y="16" type="qcurve"/>
      <point x="151" y="0"/>
      <point x="130" y="-38"/>
      <point x="109" y="-76" type="qcurve"/>
      <point x="90" y="-70"/>
      <point x="65" y="-56"/>
      <point x="53" y="-44" type="qcurve"/>
      <point x="72" y="-14"/>
      <point x="102" y="38"/>
      <point x="115" y="61" type="qcurve"/>
      <point x="78" y="110"/>
      <point x="38" y="254"/>
      <point x="38" y="339" type="qcurve" smooth="yes"/>
      <point x="38" y="511"/>
      <point x="196" y="733"/>
      <point x="319" y="733" type="qcurve" smooth="yes"/>
      <point x="352" y="733"/>
      <point x="409" y="717"/>
      <point x="433" y="701" type="qcurve"/>
      <point x="440" y="717"/>
      <point x="458" y="755"/>
      <point x="475" y="793" type="qcurve"/>
      <point x="489" y="787"/>
      <point x="515" y="772"/>
      <point x="527" y="761" type="qcurve"/>
      <point x="499" y="699"/>
      <point x="486" y="669"/>
      <point x="480" y="656" type="qcurve"/>
      <point x="512" y="613"/>
      <point x="545" y="482"/>
      <point x="545" y="394" type="qcurve" smooth="yes"/>
      <point x="545" y="322"/>
      <point x="514" y="181"/>
    </contour>
  </outline>
</glyph>
<glyph name="Thorn" format="1">
  <advance width="537"/>
  <unicode hex="00DE"/>
  <outline>
    <contour>
      <point x="143" y="95" type="qcurve"/>
      <point x="148" y="18"/>
      <point x="152" y="-41"/>
      <point x="154" y="-68" type="qcurve"/>
      <point x="137" y="-70"/>
      <point x="98" y="-68"/>
      <point x="86" y="-65" type="qcurve"/>
      <point x="72" y="102"/>
      <point x="61" y="348"/>
      <point x="61" y="538" type="qcurve" smooth="yes"/>
      <point x="61" y="575"/>
      <point x="65" y="681"/>
      <point x="68" y="716" type="qcurve"/>
      <point x="90" y="718"/>
      <point x="135" y="713"/>
      <point x="155" y="705" type="qcurve"/>
      <point x="154" y="691"/>
      <point x="151" y="659"/>
      <point x="145" y="594" type="qcurve"/>
      <point x="176" y="599"/>
      <point x="229" y="604"/>
      <point x="254" y="604" type="qcurve" smooth="yes"/>
      <point x="376" y="604"/>
      <point x="509" y="501"/>
      <point x="509" y="409" type="qcurve" smooth="yes"/>
      <point x="509" y="305"/>
      <point x="330" y="152"/>
    </contour>
    <contour>
      <point x="141" y="533" type="qcurve"/>
      <point x="138" y="488"/>
      <point x="136" y="393"/>
      <point x="136" y="336" type="qcurve" smooth="yes"/>
      <point x="136" y="282"/>
      <point x="138" y="195"/>
      <point x="140" y="154" type="qcurve"/>
      <point x="283" y="192"/>
      <point x="427" y="316"/>
      <point x="427" y="399" type="qcurve" smooth="yes"/>
      <point x="427" y="472"/>
      <point x="337" y="549"/>
      <point x="252" y="549" type="qcurve" smooth="yes"/>
      <point x="222" y="549"/>
      <point x="167" y="541"/>
    </contour>
  </outline>
</glyph>
<glyph name="divide" format="1">
  <advance width="365"/>
  <unicode hex="00F7"/>
  <outline>
    <contour>
      <point x="246" y="480" type="qcurve"/>
      <point x="245" y="447"/>
      <point x="242" y="413"/>
      <point x="239" y="398" type="qcurve"/>
      <point x="214" y="395"/>
      <point x="175" y="395"/>
      <point x="154" y="398" type="qcurve"/>
      <point x="154" y="399"/>
      <point x="150" y="456"/>
      <point x="150" y="477" type="qcurve"/>
      <point x="175" y="482"/>
      <point x="222" y="484"/>
    </contour>
    <contour>
      <point x="27" y="295" type="qcurve"/>
      <point x="27" y="310"/>
      <point x="30" y="336"/>
      <point x="33" y="349" type="qcurve"/>
      <point x="103" y="341"/>
      <point x="243" y="340"/>
      <point x="337" y="347" type="qcurve"/>
      <point x="337" y="334"/>
      <point x="334" y="308"/>
      <point x="331" y="295" type="qcurve"/>
      <point x="258" y="286"/>
      <point x="101" y="286"/>
    </contour>
    <contour>
      <point x="243" y="234" type="qcurve"/>
      <point x="242" y="202"/>
      <point x="239" y="168"/>
      <point x="236" y="152" type="qcurve"/>
      <point x="211" y="149"/>
      <point x="172" y="149"/>
      <point x="151" y="152" type="qcurve"/>
      <point x="151" y="153"/>
      <point x="147" y="210"/>
      <point x="147" y="231" type="qcurve"/>
      <point x="171" y="236"/>
      <point x="219" y="238"/>
    </contour>
  </outline>
</glyph>
<glyph name="oslash" format="1">
  <advance width="449"/>
  <unicode hex="00F8"/>
  <outline>
    <contour>
      <point x="225" y="480" type="qcurve" smooth="yes"/>
      <point x="177" y="480"/>
      <point x="106" y="348"/>
      <point x="106" y="252" type="qcurve" smooth="yes"/>
      <point x="106" y="222"/>
      <point x="114" y="164"/>
      <point x="122" y="139" type="qcurve"/>
      <point x="165" y="222"/>
      <point x="242" y="380"/>
      <point x="280" y="461" type="qcurve"/>
      <point x="269" y="470"/>
      <point x="241" y="480"/>
    </contour>
    <contour>
      <point x="158" y="72" type="qcurve"/>
      <point x="171" y="58"/>
      <point x="200" y="45"/>
      <point x="217" y="45" type="qcurve" smooth="yes"/>
      <point x="262" y="45"/>
      <point x="330" y="182"/>
      <point x="330" y="278" type="qcurve" smooth="yes"/>
      <point x="330" y="316"/>
      <point x="324" y="374"/>
      <point x="317" y="396" type="qcurve"/>
      <point x="279" y="312"/>
      <point x="200" y="151"/>
    </contour>
    <contour>
      <point x="410" y="320" type="qcurve" smooth="yes"/>
      <point x="410" y="175"/>
      <point x="297" y="-10"/>
      <point x="204" y="-10" type="qcurve" smooth="yes"/>
      <point x="182" y="-10"/>
      <point x="143" y="1"/>
      <point x="126" y="12" type="qcurve"/>
      <point x="122" y="5"/>
      <point x="113" y="-11"/>
      <point x="104" y="-28" type="qcurve" smooth="yes"/>
      <point x="95" y="-44"/>
      <point x="86" y="-60"/>
      <point x="82" y="-67" type="qcurve"/>
      <point x="68" y="-63"/>
      <point x="43" y="-49"/>
      <point x="29" y="-38" type="qcurve"/>
      <point x="32" y="-32"/>
      <point x="39" y="-18"/>
      <point x="47" y="-5" type="qcurve" smooth="yes"/>
      <point x="60" y="20"/>
      <point x="73" y="45"/>
      <point x="79" y="56" type="qcurve"/>
      <point x="55" y="91"/>
      <point x="30" y="187"/>
      <point x="30" y="242" type="qcurve" smooth="yes"/>
      <point x="30" y="372"/>
      <point x="149" y="536"/>
      <point x="243" y="536" type="qcurve" smooth="yes"/>
      <point x="260" y="536"/>
      <point x="293" y="530"/>
      <point x="309" y="523" type="qcurve"/>
      <point x="312" y="529"/>
      <point x="318" y="543"/>
      <point x="325" y="558" type="qcurve" smooth="yes"/>
      <point x="332" y="575"/>
      <point x="340" y="592"/>
      <point x="343" y="599" type="qcurve"/>
      <point x="356" y="593"/>
      <point x="378" y="580"/>
      <point x="392" y="568" type="qcurve"/>
      <point x="389" y="561"/>
      <point x="382" y="544"/>
      <point x="375" y="528" type="qcurve" smooth="yes"/>
      <point x="367" y="511"/>
      <point x="360" y="494"/>
      <point x="357" y="487" type="qcurve"/>
      <point x="383" y="458"/>
      <point x="410" y="373"/>
    </contour>
  </outline>
</glyph>
<glyph name="thorn" format="1">
  <advance width="445"/>
  <unicode hex="00FE"/>
  <outline>
    <contour>
      <point x="131" y="83" type="qcurve"/>
      <point x="142" y="72"/>
      <point x="169" y="62"/>
      <point x="184" y="62" type="qcurve" smooth="yes"/>
      <point x="243" y="62"/>
      <point x="328" y="228"/>
      <point x="328" y="352" type="qcurve" smooth="yes"/>
      <point x="328" y="415"/>
      <point x="286" y="487"/>
      <point x="250" y="487" type="qcurve" smooth="yes"/>
      <point x="208" y="487"/>
      <point x="144" y="408"/>
      <point x="125" y="333" type="qcurve"/>
      <point x="125" y="270"/>
      <point x="128" y="143"/>
    </contour>
    <contour>
      <point x="136" y="16" type="qcurve"/>
      <point x="140" y="-46"/>
      <point x="152" y="-161"/>
      <point x="159" y="-210" type="qcurve"/>
      <point x="144" y="-215"/>
      <point x="108" y="-220"/>
      <point x="91" y="-220" type="qcurve"/>
      <point x="58" y="43"/>
      <point x="46" y="564"/>
      <point x="73" y="732" type="qcurve"/>
      <point x="86" y="740"/>
      <point x="113" y="748"/>
      <point x="128" y="748" type="qcurve" smooth="yes"/>
      <point x="137" y="748"/>
      <point x="152" y="746"/>
      <point x="162" y="743" type="qcurve"/>
      <point x="148" y="687"/>
      <point x="130" y="532"/>
      <point x="127" y="437" type="qcurve"/>
      <point x="154" y="495"/>
      <point x="233" y="556"/>
      <point x="281" y="556" type="qcurve" smooth="yes"/>
      <point x="339" y="556"/>
      <point x="408" y="448"/>
      <point x="408" y="358" type="qcurve" smooth="yes"/>
      <point x="408" y="209"/>
      <point x="278" y="10"/>
      <point x="184" y="10" type="qcurve" smooth="yes"/>
      <point x="170" y="10"/>
      <point x="146" y="13"/>
    </contour>
  </outline>
</glyph>
<glyph name="Aogonek" format="1">
  <advance width="615"/>
  <unicode hex="0104"/>
  <outline>
    <contour>
      <point x="635" y="-232" type="qcurve"/>
      <point x="615" y="-262"/>
      <point x="566" y="-290"/>
      <point x="535" y="-290" type="qcurve" smooth="yes"/>
      <point x="498" y="-290"/>
      <point x="454" y="-249"/>
      <point x="454" y="-215" type="qcurve" smooth="yes"/>
      <point x="454" y="-185"/>
      <point x="485" y="-128"/>
      <point x="517" y="-101" type="qcurve"/>
      <point x="503" y="-3"/>
      <point x="473" y="153"/>
      <point x="457" y="219" type="qcurve"/>
      <point x="386" y="220"/>
      <point x="250" y="211"/>
      <point x="191" y="202" type="qcurve"/>
      <point x="170" y="150"/>
      <point x="119" y="40"/>
      <point x="88" y="-21" type="qcurve"/>
      <point x="69" y="-17"/>
      <point x="35" y="0"/>
      <point x="19" y="15" type="qcurve"/>
      <point x="108" y="172"/>
      <point x="221" y="473"/>
      <point x="274" y="705" type="qcurve"/>
      <point x="301" y="704"/>
      <point x="337" y="700"/>
      <point x="354" y="696" type="qcurve"/>
      <point x="452" y="506"/>
      <point x="559" y="160"/>
      <point x="595" y="-80" type="qcurve"/>
      <point x="589" y="-84"/>
      <point x="583" y="-87"/>
      <point x="580" y="-88" type="qcurve"/>
      <point x="547" y="-118"/>
      <point x="517" y="-171"/>
      <point x="517" y="-199" type="qcurve" smooth="yes"/>
      <point x="517" y="-218"/>
      <point x="534" y="-237"/>
      <point x="551" y="-237" type="qcurve" smooth="yes"/>
      <point x="569" y="-237"/>
      <point x="597" y="-216"/>
      <point x="610" y="-193" type="qcurve"/>
      <point x="618" y="-200"/>
      <point x="630" y="-218"/>
    </contour>
    <contour>
      <point x="316" y="611" type="qcurve"/>
      <point x="292" y="506"/>
      <point x="243" y="337"/>
      <point x="214" y="261" type="qcurve"/>
      <point x="262" y="268"/>
      <point x="376" y="277"/>
      <point x="442" y="279" type="qcurve"/>
      <point x="417" y="367"/>
      <point x="357" y="527"/>
    </contour>
  </outline>
</glyph>
<glyph name="Eogonek" format="1">
  <advance width="520"/>
  <unicode hex="0118"/>
  <outline>
    <contour>
      <point x="532" y="-161" type="qcurve"/>
      <point x="512" y="-191"/>
      <point x="463" y="-218"/>
      <point x="431" y="-218" type="qcurve" smooth="yes"/>
      <point x="394" y="-218"/>
      <point x="350" y="-177"/>
      <point x="350" y="-143" type="qcurve" smooth="yes"/>
      <point x="350" y="-110"/>
      <point x="388" y="-49"/>
      <point x="426" y="-20" type="qcurve"/>
      <point x="362" y="-28"/>
      <point x="219" y="-38"/>
      <point x="126" y="-41" type="qcurve"/>
      <point x="97" y="151"/>
      <point x="60" y="548"/>
      <point x="58" y="691" type="qcurve"/>
      <point x="197" y="715"/>
      <point x="365" y="733"/>
      <point x="457" y="735" type="qcurve"/>
      <point x="457" y="717"/>
      <point x="454" y="684"/>
      <point x="451" y="670" type="qcurve"/>
      <point x="369" y="669"/>
      <point x="218" y="656"/>
      <point x="145" y="644" type="qcurve"/>
      <point x="143" y="584"/>
      <point x="147" y="456"/>
      <point x="152" y="382" type="qcurve"/>
      <point x="248" y="399"/>
      <point x="353" y="414"/>
      <point x="405" y="418" type="qcurve"/>
      <point x="409" y="404"/>
      <point x="412" y="374"/>
      <point x="411" y="356" type="qcurve"/>
      <point x="335" y="350"/>
      <point x="224" y="337"/>
      <point x="156" y="326" type="qcurve"/>
      <point x="163" y="244"/>
      <point x="180" y="90"/>
      <point x="191" y="20" type="qcurve"/>
      <point x="274" y="22"/>
      <point x="411" y="38"/>
      <point x="475" y="52" type="qcurve"/>
      <point x="479" y="38"/>
      <point x="482" y="0"/>
      <point x="480" y="-13" type="qcurve"/>
      <point x="446" y="-44"/>
      <point x="414" y="-99"/>
      <point x="414" y="-127" type="qcurve" smooth="yes"/>
      <point x="414" y="-146"/>
      <point x="431" y="-165"/>
      <point x="448" y="-165" type="qcurve" smooth="yes"/>
      <point x="467" y="-165"/>
      <point x="495" y="-144"/>
      <point x="507" y="-121" type="qcurve"/>
      <point x="516" y="-129"/>
      <point x="528" y="-148"/>
    </contour>
  </outline>
</glyph>
<glyph name="eogonek" format="1">
  <advance width="435"/>
  <unicode hex="0119"/>
  <outline>
    <contour>
      <point x="119" y="308" type="qcurve"/>
      <point x="148" y="298"/>
      <point x="215" y="287"/>
      <point x="252" y="287" type="qcurve" smooth="yes"/>
      <point x="262" y="287"/>
      <point x="289" y="289"/>
      <point x="295" y="291" type="qcurve"/>
      <point x="303" y="320"/>
      <point x="310" y="369"/>
      <point x="310" y="389" type="qcurve" smooth="yes"/>
      <point x="310" y="433"/>
      <point x="281" y="470"/>
      <point x="249" y="470" type="qcurve" smooth="yes"/>
      <point x="207" y="470"/>
      <point x="137" y="380"/>
    </contour>
    <contour>
      <point x="361" y="-76" type="qcurve"/>
      <point x="369" y="-83"/>
      <point x="381" y="-101"/>
      <point x="386" y="-115" type="qcurve"/>
      <point x="368" y="-142"/>
      <point x="319" y="-170"/>
      <point x="288" y="-170" type="qcurve" smooth="yes"/>
      <point x="250" y="-170"/>
      <point x="205" y="-127"/>
      <point x="205" y="-91" type="qcurve" smooth="yes"/>
      <point x="205" y="-70"/>
      <point x="220" y="-33"/>
      <point x="236" y="-14" type="qcurve"/>
      <point x="221" y="-15"/>
      <point x="209" y="-16"/>
      <point x="204" y="-16" type="qcurve" smooth="yes"/>
      <point x="123" y="-16"/>
      <point x="30" y="110"/>
      <point x="30" y="216" type="qcurve" smooth="yes"/>
      <point x="30" y="334"/>
      <point x="163" y="525"/>
      <point x="255" y="525" type="qcurve" smooth="yes"/>
      <point x="314" y="525"/>
      <point x="383" y="449"/>
      <point x="383" y="386" type="qcurve" smooth="yes"/>
      <point x="383" y="351"/>
      <point x="370" y="281"/>
      <point x="359" y="252" type="qcurve"/>
      <point x="338" y="244"/>
      <point x="279" y="237"/>
      <point x="240" y="237" type="qcurve" smooth="yes"/>
      <point x="207" y="237"/>
      <point x="140" y="249"/>
      <point x="110" y="260" type="qcurve"/>
      <point x="108" y="248"/>
      <point x="107" y="225"/>
      <point x="107" y="214" type="qcurve" smooth="yes"/>
      <point x="107" y="135"/>
      <point x="162" y="38"/>
      <point x="208" y="38" type="qcurve" smooth="yes"/>
      <point x="248" y="38"/>
      <point x="328" y="113"/>
      <point x="342" y="165" type="qcurve"/>
      <point x="358" y="162"/>
      <point x="391" y="144"/>
      <point x="403" y="132" type="qcurve"/>
      <point x="389" y="97"/>
      <point x="352" y="48"/>
      <point x="322" y="25" type="qcurve" smooth="yes"/>
      <point x="296" y="7"/>
      <point x="268" y="-47"/>
      <point x="268" y="-75" type="qcurve" smooth="yes"/>
      <point x="268" y="-95"/>
      <point x="287" y="-120"/>
      <point x="302" y="-120" type="qcurve" smooth="yes"/>
      <point x="321" y="-120"/>
      <point x="349" y="-99"/>
    </contour>
  </outline>
</glyph>
<glyph name="Iogonek" format="1">
  <advance width="235"/>
  <unicode hex="012E"/>
  <outline>
    <contour>
      <point x="196" y="-169" type="qcurve"/>
      <point x="176" y="-199"/>
      <point x="128" y="-226"/>
      <point x="96" y="-226" type="qcurve" smooth="yes"/>
      <point x="59" y="-226"/>
      <point x="15" y="-185"/>
      <point x="15" y="-151" type="qcurve" smooth="yes"/>
      <point x="15" y="-118"/>
      <point x="53" y="-57"/>
      <point x="91" y="-28" type="qcurve"/>
      <point x="89" y="-28"/>
      <point x="85" y="-28"/>
      <point x="83" y="-28" type="qcurve"/>
      <point x="85" y="171"/>
      <point x="77" y="519"/>
      <point x="66" y="667" type="qcurve"/>
      <point x="78" y="674"/>
      <point x="105" y="680"/>
      <point x="119" y="680" type="qcurve" smooth="yes"/>
      <point x="127" y="680"/>
      <point x="142" y="679"/>
      <point x="151" y="677" type="qcurve"/>
      <point x="154" y="635"/>
      <point x="156" y="547"/>
      <point x="156" y="487" type="qcurve" smooth="yes"/>
      <point x="156" y="263"/>
      <point x="153" y="78"/>
      <point x="149" y="-20" type="qcurve"/>
      <point x="148" y="-20"/>
      <point x="145" y="-21"/>
      <point x="144" y="-21" type="qcurve"/>
      <point x="110" y="-52"/>
      <point x="78" y="-107"/>
      <point x="78" y="-135" type="qcurve" smooth="yes"/>
      <point x="78" y="-154"/>
      <point x="95" y="-173"/>
      <point x="112" y="-173" type="qcurve" smooth="yes"/>
      <point x="131" y="-173"/>
      <point x="159" y="-152"/>
      <point x="171" y="-129" type="qcurve"/>
      <point x="180" y="-136"/>
      <point x="191" y="-155"/>
    </contour>
  </outline>
</glyph>
<glyph name="dotlessi" format="1">
  <advance width="206"/>
  <unicode hex="0131"/>
  <outline>
    <contour>
      <point x="73" y="498" type="qcurve"/>
      <point x="85" y="505"/>
      <point x="110" y="512"/>
      <point x="124" y="512" type="qcurve" smooth="yes"/>
      <point x="132" y="512"/>
      <point x="145" y="510"/>
      <point x="152" y="508" type="qcurve"/>
      <point x="132" y="403"/>
      <point x="116" y="121"/>
      <point x="124" y="-1" type="qcurve"/>
      <point x="117" y="-5"/>
      <point x="95" y="-9"/>
      <point x="84" y="-9" type="qcurve" smooth="yes"/>
      <point x="79" y="-9"/>
      <point x="70" y="-8"/>
      <point x="64" y="-7" type="qcurve"/>
      <point x="47" y="112"/>
      <point x="53" y="392"/>
    </contour>
  </outline>
</glyph>
<glyph name="OE" format="1">
  <advance width="891"/>
  <unicode hex="0152"/>
  <outline>
    <contour>
      <point x="851" y="-10" type="qcurve"/>
      <point x="772" y="-22"/>
      <point x="599" y="-35"/>
      <point x="497" y="-38" type="qcurve"/>
      <point x="493" y="-11"/>
      <point x="484" y="53"/>
      <point x="475" y="117" type="qcurve"/>
      <point x="446" y="42"/>
      <point x="348" y="-35"/>
      <point x="283" y="-35" type="qcurve" smooth="yes"/>
      <point x="176" y="-35"/>
      <point x="45" y="165"/>
      <point x="45" y="324" type="qcurve" smooth="yes"/>
      <point x="45" y="501"/>
      <point x="186" y="717"/>
      <point x="305" y="717" type="qcurve" smooth="yes"/>
      <point x="342" y="717"/>
      <point x="404" y="693"/>
      <point x="429" y="669" type="qcurve"/>
      <point x="429" y="674"/>
      <point x="429" y="685"/>
      <point x="429" y="690" type="qcurve"/>
      <point x="577" y="716"/>
      <point x="739" y="732"/>
      <point x="828" y="734" type="qcurve"/>
      <point x="828" y="716"/>
      <point x="825" y="683"/>
      <point x="822" y="669" type="qcurve"/>
      <point x="742" y="668"/>
      <point x="591" y="656"/>
      <point x="516" y="644" type="qcurve"/>
      <point x="514" y="584"/>
      <point x="518" y="456"/>
      <point x="523" y="382" type="qcurve"/>
      <point x="619" y="399"/>
      <point x="724" y="414"/>
      <point x="776" y="418" type="qcurve"/>
      <point x="780" y="404"/>
      <point x="783" y="374"/>
      <point x="782" y="356" type="qcurve"/>
      <point x="706" y="350"/>
      <point x="595" y="337"/>
      <point x="527" y="326" type="qcurve"/>
      <point x="534" y="247"/>
      <point x="551" y="94"/>
      <point x="562" y="23" type="qcurve"/>
      <point x="645" y="25"/>
      <point x="782" y="41"/>
      <point x="846" y="55" type="qcurve"/>
      <point x="850" y="41"/>
      <point x="853" y="3"/>
    </contour>
    <contour>
      <point x="291" y="24" type="qcurve" smooth="yes"/>
      <point x="364" y="24"/>
      <point x="442" y="202"/>
      <point x="440" y="361" type="qcurve" smooth="yes"/>
      <point x="438" y="508"/>
      <point x="364" y="657"/>
      <point x="292" y="657" type="qcurve" smooth="yes"/>
      <point x="214" y="657"/>
      <point x="127" y="486"/>
      <point x="127" y="335" type="qcurve" smooth="yes"/>
      <point x="127" y="200"/>
      <point x="215" y="24"/>
    </contour>
  </outline>
</glyph>
<glyph name="Uogonek" format="1">
  <advance width="547"/>
  <unicode hex="0172"/>
  <outline>
    <contour>
      <point x="374" y="-214" type="qcurve"/>
      <point x="356" y="-241"/>
      <point x="307" y="-268"/>
      <point x="275" y="-268" type="qcurve" smooth="yes"/>
      <point x="237" y="-268"/>
      <point x="192" y="-226"/>
      <point x="192" y="-190" type="qcurve" smooth="yes"/>
      <point x="192" y="-159"/>
      <point x="220" y="-107"/>
      <point x="251" y="-80" type="qcurve"/>
      <point x="248" y="-80"/>
      <point x="243" y="-80"/>
      <point x="240" y="-80" type="qcurve" smooth="yes"/>
      <point x="146" y="-80"/>
      <point x="54" y="94"/>
      <point x="54" y="272" type="qcurve" smooth="yes"/>
      <point x="54" y="364"/>
      <point x="84" y="566"/>
      <point x="105" y="628" type="qcurve"/>
      <point x="113" y="631"/>
      <point x="139" y="634"/>
      <point x="150" y="634" type="qcurve" smooth="yes"/>
      <point x="159" y="634"/>
      <point x="175" y="632"/>
      <point x="182" y="630" type="qcurve"/>
      <point x="160" y="538"/>
      <point x="138" y="368"/>
      <point x="138" y="294" type="qcurve" smooth="yes"/>
      <point x="138" y="129"/>
      <point x="192" y="-18"/>
      <point x="254" y="-18" type="qcurve" smooth="yes"/>
      <point x="327" y="-18"/>
      <point x="406" y="160"/>
      <point x="406" y="321" type="qcurve" smooth="yes"/>
      <point x="406" y="418"/>
      <point x="384" y="591"/>
      <point x="358" y="691" type="qcurve"/>
      <point x="376" y="697"/>
      <point x="419" y="704"/>
      <point x="443" y="706" type="qcurve"/>
      <point x="467" y="609"/>
      <point x="489" y="446"/>
      <point x="489" y="370" type="qcurve" smooth="yes"/>
      <point x="489" y="189"/>
      <point x="415" y="-18"/>
      <point x="334" y="-60" type="qcurve" smooth="yes"/>
      <point x="297" y="-80"/>
      <point x="255" y="-141"/>
      <point x="255" y="-172" type="qcurve" smooth="yes"/>
      <point x="255" y="-193"/>
      <point x="274" y="-219"/>
      <point x="290" y="-219" type="qcurve" smooth="yes"/>
      <point x="307" y="-219"/>
      <point x="336" y="-198"/>
      <point x="349" y="-175" type="qcurve"/>
      <point x="357" y="-182"/>
      <point x="368" y="-200"/>
    </contour>
  </outline>
</glyph>
<glyph name="uogonek" format="1">
  <advance width="410"/>
  <unicode hex="0173"/>
  <outline>
    <contour>
      <point x="307" y="-140" type="qcurve"/>
      <point x="289" y="-167"/>
      <point x="239" y="-195"/>
      <point x="208" y="-195" type="qcurve" smooth="yes"/>
      <point x="169" y="-195"/>
      <point x="125" y="-156"/>
      <point x="125" y="-120" type="qcurve" smooth="yes"/>
      <point x="125" y="-92"/>
      <point x="156" y="-38"/>
      <point x="187" y="-10" type="qcurve"/>
      <point x="187" y="-10" type="line" smooth="yes"/>
      <point x="114" y="-10"/>
      <point x="39" y="132"/>
      <point x="39" y="270" type="qcurve" smooth="yes"/>
      <point x="39" y="340"/>
      <point x="62" y="481"/>
      <point x="79" y="512" type="qcurve"/>
      <point x="88" y="515"/>
      <point x="106" y="518"/>
      <point x="115" y="518" type="qcurve" smooth="yes"/>
      <point x="124" y="518"/>
      <point x="139" y="515"/>
      <point x="146" y="511" type="qcurve"/>
      <point x="131" y="463"/>
      <point x="115" y="339"/>
      <point x="115" y="267" type="qcurve" smooth="yes"/>
      <point x="115" y="170"/>
      <point x="160" y="46"/>
      <point x="198" y="46" type="qcurve" smooth="yes"/>
      <point x="245" y="46"/>
      <point x="294" y="190"/>
      <point x="294" y="320" type="qcurve" smooth="yes"/>
      <point x="294" y="360"/>
      <point x="286" y="447"/>
      <point x="282" y="464" type="qcurve"/>
      <point x="297" y="471"/>
      <point x="341" y="479"/>
      <point x="361" y="479" type="qcurve"/>
      <point x="366" y="456"/>
      <point x="371" y="392"/>
      <point x="371" y="359" type="qcurve" smooth="yes"/>
      <point x="371" y="223"/>
      <point x="318" y="49"/>
      <point x="267" y="14" type="qcurve" smooth="yes"/>
      <point x="230" y="-12"/>
      <point x="188" y="-75"/>
      <point x="188" y="-106" type="qcurve" smooth="yes"/>
      <point x="188" y="-123"/>
      <point x="208" y="-145"/>
      <point x="223" y="-145" type="qcurve" smooth="yes"/>
      <point x="241" y="-145"/>
      <point x="269" y="-124"/>
      <point x="281" y="-101" type="qcurve"/>
      <point x="289" y="-108"/>
      <point x="301" y="-126"/>
    </contour>
  </outline>
</glyph>
<glyph name="dotaccent" format="1">
  <advance width="261"/>
  <unicode hex="02D9"/>
  <outline>
    <contour>
      <point x="153" y="745" type="qcurve" smooth="yes"/>
      <point x="167" y="744"/>
      <point x="188" y="739"/>
      <point x="197" y="734" type="qcurve"/>
      <point x="187" y="712"/>
      <point x="166" y="651"/>
      <point x="160" y="622" type="qcurve"/>
      <point x="151" y="621"/>
      <point x="119" y="620"/>
      <point x="97" y="621" type="qcurve"/>
      <point x="95" y="629"/>
      <point x="94" y="644"/>
      <point x="94" y="652" type="qcurve" smooth="yes"/>
      <point x="94" y="673"/>
      <point x="103" y="722"/>
      <point x="111" y="738" type="qcurve"/>
      <point x="122" y="743"/>
      <point x="140" y="746"/>
    </contour>
    <contour>
      <point x="130" y="560" type="move" name="_top"/>
    </contour>
  </outline>
</glyph>
<glyph name="pi" format="1">
  <advance width="605"/>
  <unicode hex="03C0"/>
  <outline>
    <contour>
      <point x="220" y="324" type="qcurve" smooth="yes"/>
      <point x="221" y="239"/>
      <point x="202" y="103"/>
      <point x="176" y="7" type="qcurve"/>
      <point x="160" y="5"/>
      <point x="115" y="11"/>
      <point x="101" y="17" type="qcurve"/>
      <point x="128" y="106"/>
      <point x="149" y="226"/>
      <point x="150" y="303" type="qcurve" smooth="yes"/>
      <point x="151" y="348"/>
      <point x="147" y="417"/>
      <point x="142" y="450" type="qcurve"/>
      <point x="122" y="448"/>
      <point x="75" y="444"/>
      <point x="28" y="439" type="qcurve"/>
      <point x="22" y="462"/>
      <point x="20" y="503"/>
      <point x="24" y="522" type="qcurve"/>
      <point x="122" y="527"/>
      <point x="458" y="530"/>
      <point x="573" y="528" type="qcurve"/>
      <point x="578" y="511"/>
      <point x="579" y="468"/>
      <point x="574" y="446" type="qcurve"/>
      <point x="553" y="448"/>
      <point x="497" y="451"/>
      <point x="444" y="453" type="qcurve"/>
      <point x="434" y="390"/>
      <point x="427" y="311"/>
      <point x="427" y="278" type="qcurve" smooth="yes"/>
      <point x="427" y="175"/>
      <point x="456" y="65"/>
      <point x="483" y="65" type="qcurve" smooth="yes"/>
      <point x="501" y="65"/>
      <point x="516" y="113"/>
      <point x="518" y="176" type="qcurve"/>
      <point x="532" y="175"/>
      <point x="563" y="166"/>
      <point x="576" y="158" type="qcurve"/>
      <point x="573" y="86"/>
      <point x="523" y="10"/>
      <point x="477" y="10" type="qcurve" smooth="yes"/>
      <point x="417" y="10"/>
      <point x="354" y="155"/>
      <point x="354" y="290" type="qcurve" smooth="yes"/>
      <point x="354" y="325"/>
      <point x="361" y="404"/>
      <point x="368" y="456" type="qcurve"/>
      <point x="352" y="457"/>
      <point x="316" y="457"/>
      <point x="283" y="457" type="qcurve" smooth="yes"/>
      <point x="271" y="457"/>
      <point x="242" y="456"/>
      <point x="210" y="455" type="qcurve"/>
      <point x="214" y="426"/>
      <point x="219" y="358"/>
    </contour>
  </outline>
</glyph>
<glyph name="bn_danda" format="1">
  <advance width="586"/>
  <unicode hex="0964"/>
  <outline>
    <contour>
      <point x="440" y="262" type="qcurve" smooth="yes"/>
      <point x="440" y="158"/>
      <point x="455" y="-20"/>
      <point x="469" y="-81" type="qcurve"/>
      <point x="444" y="-91"/>
      <point x="405" y="-100"/>
      <point x="390" y="-100" type="qcurve"/>
      <point x="390" y="-90"/>
      <point x="388" y="-65"/>
      <point x="386" y="-40" type="qcurve" smooth="yes"/>
      <point x="383" y="0"/>
      <point x="381" y="42"/>
      <point x="381" y="61" type="qcurve" smooth="yes"/>
      <point x="381" y="266"/>
      <point x="391" y="473"/>
      <point x="403" y="585" type="qcurve"/>
      <point x="455" y="595" type="line"/>
      <point x="446" y="479"/>
      <point x="440" y="333"/>
    </contour>
  </outline>
</glyph>
<glyph name="bn_chandrabindu" format="1">
  <advance width="0"/>
  <unicode hex="0981"/>
  <outline>
    <contour>
      <point x="5" y="885" type="qcurve" smooth="yes"/>
      <point x="24" y="885"/>
      <point x="49" y="858"/>
      <point x="49" y="838" type="qcurve" smooth="yes"/>
      <point x="49" y="820"/>
      <point x="24" y="795"/>
      <point x="6" y="795" type="qcurve" smooth="yes"/>
      <point x="-12" y="795"/>
      <point x="-38" y="823"/>
      <point x="-38" y="842" type="qcurve" smooth="yes"/>
      <point x="-38" y="860"/>
      <point x="-13" y="885"/>
    </contour>
    <contour>
      <point x="109" y="824" type="qcurve"/>
      <point x="147" y="811" type="line"/>
      <point x="137" y="748"/>
      <point x="55" y="668"/>
      <point x="-1" y="668" type="qcurve" smooth="yes"/>
      <point x="-53" y="668"/>
      <point x="-130" y="731"/>
      <point x="-138" y="779" type="qcurve"/>
      <point x="-84" y="798" type="line"/>
      <point x="-75" y="767"/>
      <point x="-25" y="726"/>
      <point x="6" y="726" type="qcurve" smooth="yes"/>
      <point x="43" y="726"/>
      <point x="98" y="779"/>
    </contour>
    <contour>
      <point x="0" y="665" type="move" name="_chandrabindu"/>
    </contour>
  </outline>
</glyph>
<glyph name="bn_anusvar" format="1">
  <advance width="441"/>
  <unicode hex="0982"/>
  <outline>
    <contour>
      <point x="231" y="606" type="qcurve" smooth="yes"/>
      <point x="290" y="606"/>
      <point x="367" y="533"/>
      <point x="367" y="476" type="qcurve" smooth="yes"/>
      <point x="367" y="415"/>
      <point x="277" y="328"/>
      <point x="214" y="328" type="qcurve" smooth="yes"/>
      <point x="156" y="328"/>
      <point x="80" y="402"/>
      <point x="80" y="458" type="qcurve" smooth="yes"/>
      <point x="81" y="520"/>
      <point x="168" y="606"/>
    </contour>
    <contour>
      <point x="213" y="554" type="qcurve" smooth="yes"/>
      <point x="177" y="554"/>
      <point x="135" y="512"/>
      <point x="135" y="476" type="qcurve" smooth="yes"/>
      <point x="135" y="433"/>
      <point x="189" y="380"/>
      <point x="231" y="380" type="qcurve" smooth="yes"/>
      <point x="268" y="380"/>
      <point x="312" y="424"/>
      <point x="312" y="461" type="qcurve" smooth="yes"/>
      <point x="312" y="503"/>
      <point x="257" y="554"/>
    </contour>
    <contour>
      <point x="54" y="312" type="qcurve"/>
      <point x="164" y="269"/>
      <point x="366" y="94"/>
      <point x="425" y="-13" type="qcurve"/>
      <point x="417" y="-24"/>
      <point x="396" y="-41"/>
      <point x="381" y="-47" type="qcurve"/>
      <point x="314" y="61"/>
      <point x="123" y="218"/>
      <point x="25" y="247" type="qcurve"/>
      <point x="29" y="267"/>
      <point x="43" y="298"/>
    </contour>
  </outline>
</glyph>
<glyph name="bn_bisarga" format="1">
  <advance width="433"/>
  <unicode hex="0983"/>
  <outline>
    <contour>
      <point x="230" y="606" type="qcurve" smooth="yes"/>
      <point x="290" y="606"/>
      <point x="367" y="533"/>
      <point x="367" y="476" type="qcurve" smooth="yes"/>
      <point x="366" y="415"/>
      <point x="277" y="328"/>
      <point x="214" y="328" type="qcurve" smooth="yes"/>
      <point x="156" y="328"/>
      <point x="80" y="402"/>
      <point x="80" y="458" type="qcurve" smooth="yes"/>
      <point x="80" y="520"/>
      <point x="167" y="606"/>
    </contour>
    <contour>
      <point x="213" y="554" type="qcurve" smooth="yes"/>
      <point x="177" y="554"/>
      <point x="135" y="512"/>
      <point x="135" y="476" type="qcurve" smooth="yes"/>
      <point x="135" y="433"/>
      <point x="189" y="380"/>
      <point x="231" y="380" type="qcurve" smooth="yes"/>
      <point x="268" y="380"/>
      <point x="312" y="424"/>
      <point x="312" y="461" type="qcurve" smooth="yes"/>
      <point x="312" y="503"/>
      <point x="257" y="554"/>
    </contour>
    <contour>
      <point x="227" y="270" type="qcurve" smooth="yes"/>
      <point x="284" y="270"/>
      <point x="360" y="196"/>
      <point x="360" y="140" type="qcurve" smooth="yes"/>
      <point x="360" y="81"/>
      <point x="277" y="0"/>
      <point x="216" y="0" type="qcurve" smooth="yes"/>
      <point x="160" y="0"/>
      <point x="85" y="73"/>
      <point x="85" y="128" type="qcurve" smooth="yes"/>
      <point x="85" y="188"/>
      <point x="167" y="270"/>
    </contour>
    <contour>
      <point x="213" y="216" type="qcurve" smooth="yes"/>
      <point x="179" y="216"/>
      <point x="138" y="177"/>
      <point x="138" y="144" type="qcurve" smooth="yes"/>
      <point x="138" y="104"/>
      <point x="192" y="53"/>
      <point x="233" y="53" type="qcurve" smooth="yes"/>
      <point x="267" y="53"/>
      <point x="307" y="91"/>
      <point x="307" y="124" type="qcurve" smooth="yes"/>
      <point x="307" y="164"/>
      <point x="254" y="216"/>
    </contour>
  </outline>
</glyph>
<glyph name="bn_aa" format="1">
  <advance width="866"/>
  <unicode hex="0986"/>
  <outline>
    <contour>
      <point x="790" y="485" type="qcurve"/>
      <point x="775" y="357"/>
      <point x="771" y="100"/>
      <point x="783" y="-29" type="qcurve"/>
      <point x="766" y="-33"/>
      <point x="718" y="-36"/>
      <point x="701" y="-35" type="qcurve"/>
      <point x="704" y="156"/>
      <point x="715" y="354"/>
      <point x="726" y="458" type="qcurve"/>
      <point x="719" y="488"/>
      <point x="642" y="533"/>
      <point x="572" y="547" type="qcurve"/>
      <point x="563" y="501"/>
      <point x="553" y="370"/>
      <point x="553" y="296" type="qcurve" smooth="yes"/>
      <point x="553" y="199"/>
      <point x="566" y="44"/>
      <point x="579" y="-4" type="qcurve"/>
      <point x="567" y="-11"/>
      <point x="530" y="-19"/>
      <point x="509" y="-19" type="qcurve"/>
      <point x="484" y="25"/>
      <point x="423" y="97"/>
      <point x="389" y="125" type="qcurve"/>
      <point x="370" y="104"/>
      <point x="321" y="83"/>
      <point x="293" y="83" type="qcurve" smooth="yes"/>
      <point x="209" y="83"/>
      <point x="70" y="256"/>
      <point x="16" y="428" type="qcurve"/>
      <point x="27" y="438"/>
      <point x="51" y="452"/>
      <point x="62" y="457" type="qcurve"/>
      <point x="111" y="305"/>
      <point x="225" y="153"/>
      <point x="290" y="153" type="qcurve" smooth="yes"/>
      <point x="334" y="153"/>
      <point x="380" y="222"/>
      <point x="380" y="288" type="qcurve" smooth="yes"/>
      <point x="380" y="356"/>
      <point x="337" y="441"/>
      <point x="301" y="441" type="qcurve" smooth="yes"/>
      <point x="278" y="441"/>
      <point x="254" y="404"/>
      <point x="254" y="370" type="qcurve" smooth="yes"/>
      <point x="254" y="353"/>
      <point x="265" y="315"/>
      <point x="274" y="301" type="qcurve"/>
      <point x="256" y="301"/>
      <point x="220" y="307"/>
      <point x="210" y="312" type="qcurve"/>
      <point x="204" y="325"/>
      <point x="197" y="359"/>
      <point x="197" y="376" type="qcurve" smooth="yes"/>
      <point x="197" y="427"/>
      <point x="249" y="493"/>
      <point x="289" y="493" type="qcurve" smooth="yes"/>
      <point x="351" y="493"/>
      <point x="435" y="360"/>
      <point x="435" y="269" type="qcurve" smooth="yes"/>
      <point x="435" y="240"/>
      <point x="425" y="188"/>
      <point x="415" y="165" type="qcurve"/>
      <point x="438" y="144"/>
      <point x="478" y="96"/>
      <point x="496" y="68" type="qcurve"/>
      <point x="494" y="90"/>
      <point x="492" y="148"/>
      <point x="492" y="192" type="qcurve" smooth="yes"/>
      <point x="492" y="300"/>
      <point x="507" y="495"/>
      <point x="521" y="555" type="qcurve"/>
      <point x="481" y="560"/>
      <point x="392" y="565"/>
      <point x="347" y="565" type="qcurve" smooth="yes"/>
      <point x="262" y="565"/>
      <point x="85" y="547"/>
      <point x="0" y="530" type="qcurve"/>
      <point x="-5" y="546"/>
      <point x="-5" y="581"/>
      <point x="0" y="589" type="qcurve"/>
      <point x="77" y="608"/>
      <point x="260" y="628"/>
      <point x="350" y="628" type="qcurve" smooth="yes"/>
      <point x="488" y="628"/>
      <point x="705" y="578"/>
      <point x="754" y="534" type="qcurve"/>
      <point x="771" y="552"/>
      <point x="828" y="580"/>
      <point x="866" y="589" type="qcurve"/>
      <point x="870" y="581"/>
      <point x="870" y="544"/>
      <point x="866" y="530" type="qcurve"/>
      <point x="838" y="522"/>
      <point x="799" y="499"/>
    </contour>
    <contour>
      <point x="454" y="690" type="move" name="chandrabindu"/>
    </contour>
  </outline>
</glyph>
<glyph name="bn_i" format="1">
  <advance width="454"/>
  <unicode hex="0987"/>
  <outline>
    <contour>
      <point x="458" y="563" type="qcurve" smooth="yes"/>
      <point x="458" y="552"/>
      <point x="456" y="535"/>
      <point x="454" y="530" type="qcurve"/>
      <point x="411" y="541"/>
      <point x="285" y="556"/>
      <point x="229" y="556" type="qcurve" smooth="yes"/>
      <point x="177" y="556"/>
      <point x="53" y="542"/>
      <point x="0" y="530" type="qcurve"/>
      <point x="-3" y="537"/>
      <point x="-6" y="554"/>
      <point x="-6" y="563" type="qcurve" smooth="yes"/>
      <point x="-6" y="571"/>
      <point x="-3" y="585"/>
      <point x="0" y="589" type="qcurve"/>
      <point x="47" y="602"/>
      <point x="174" y="619"/>
      <point x="231" y="619" type="qcurve" smooth="yes"/>
      <point x="272" y="619"/>
      <point x="367" y="609"/>
      <point x="410" y="601" type="qcurve"/>
      <point x="397" y="651"/>
      <point x="347" y="701"/>
      <point x="309" y="701" type="qcurve" smooth="yes"/>
      <point x="291" y="701"/>
      <point x="252" y="696"/>
      <point x="214" y="688" type="qcurve" smooth="yes"/>
      <point x="178" y="680"/>
      <point x="142" y="675"/>
      <point x="126" y="675" type="qcurve" smooth="yes"/>
      <point x="79" y="675"/>
      <point x="6" y="724"/>
      <point x="-24" y="777" type="qcurve"/>
      <point x="-16" y="788"/>
      <point x="7" y="809"/>
      <point x="19" y="815" type="qcurve"/>
      <point x="46" y="770"/>
      <point x="98" y="733"/>
      <point x="130" y="733" type="qcurve" smooth="yes"/>
      <point x="142" y="733"/>
      <point x="173" y="738"/>
      <point x="207" y="745" type="qcurve" smooth="yes"/>
      <point x="247" y="754"/>
      <point x="289" y="760"/>
      <point x="307" y="760" type="qcurve" smooth="yes"/>
      <point x="365" y="760"/>
      <point x="442" y="669"/>
      <point x="454" y="589" type="qcurve"/>
      <point x="456" y="586"/>
      <point x="458" y="575"/>
    </contour>
    <contour>
      <point x="474" y="-74" type="qcurve"/>
      <point x="467" y="-85"/>
      <point x="449" y="-107"/>
      <point x="434" y="-122" type="qcurve"/>
      <point x="346" y="-26"/>
      <point x="160" y="99"/>
      <point x="54" y="132" type="qcurve"/>
      <point x="34" y="217" type="line"/>
      <point x="82" y="200"/>
      <point x="165" y="183"/>
      <point x="200" y="183" type="qcurve" smooth="yes"/>
      <point x="261" y="183"/>
      <point x="326" y="236"/>
      <point x="326" y="286" type="qcurve" smooth="yes"/>
      <point x="326" y="347"/>
      <point x="240" y="446"/>
      <point x="187" y="446" type="qcurve" smooth="yes"/>
      <point x="161" y="446"/>
      <point x="133" y="422"/>
      <point x="133" y="400" type="qcurve" smooth="yes"/>
      <point x="133" y="381"/>
      <point x="156" y="343"/>
      <point x="182" y="319" type="qcurve"/>
      <point x="168" y="312"/>
      <point x="128" y="304"/>
      <point x="112" y="305" type="qcurve"/>
      <point x="92" y="330"/>
      <point x="72" y="378"/>
      <point x="72" y="403" type="qcurve" smooth="yes"/>
      <point x="72" y="447"/>
      <point x="130" y="498"/>
      <point x="177" y="498" type="qcurve" smooth="yes"/>
      <point x="259" y="498"/>
      <point x="389" y="355"/>
      <point x="389" y="266" type="qcurve" smooth="yes"/>
      <point x="389" y="198"/>
      <point x="302" y="120"/>
      <point x="223" y="117" type="qcurve"/>
      <point x="286" y="82"/>
      <point x="412" y="-14"/>
    </contour>
    <contour>
      <point x="193" y="787" type="move" name="chandrabindu"/>
    </contour>
  </outline>
</glyph>
<glyph name="bn_ii" format="1">
  <advance width="543"/>
  <unicode hex="0988"/>
  <outline>
    <contour>
      <point x="546" y="563" type="qcurve" smooth="yes"/>
      <point x="546" y="553"/>
      <point x="544" y="536"/>
      <point x="543" y="530" type="qcurve"/>
      <point x="488" y="542"/>
      <point x="348" y="556"/>
      <point x="274" y="556" type="qcurve" smooth="yes"/>
      <point x="201" y="556"/>
      <point x="64" y="543"/>
      <point x="0" y="530" type="qcurve"/>
      <point x="-3" y="537"/>
      <point x="-6" y="554"/>
      <point x="-6" y="563" type="qcurve" smooth="yes"/>
      <point x="-6" y="571"/>
      <point x="-3" y="585"/>
      <point x="0" y="589" type="qcurve"/>
      <point x="55" y="603"/>
      <point x="196" y="619"/>
      <point x="274" y="619" type="qcurve" smooth="yes"/>
      <point x="336" y="619"/>
      <point x="453" y="609"/>
      <point x="498" y="600" type="qcurve"/>
      <point x="486" y="651"/>
      <point x="436" y="701"/>
      <point x="397" y="701" type="qcurve" smooth="yes"/>
      <point x="380" y="701"/>
      <point x="340" y="697"/>
      <point x="301" y="690" type="qcurve" smooth="yes"/>
      <point x="264" y="683"/>
      <point x="228" y="679"/>
      <point x="212" y="679" type="qcurve" smooth="yes"/>
      <point x="165" y="679"/>
      <point x="91" y="726"/>
      <point x="61" y="777" type="qcurve"/>
      <point x="68" y="786"/>
      <point x="90" y="803"/>
      <point x="106" y="812" type="qcurve"/>
      <point x="134" y="769"/>
      <point x="184" y="737"/>
      <point x="216" y="737" type="qcurve" smooth="yes"/>
      <point x="228" y="737"/>
      <point x="259" y="741"/>
      <point x="294" y="747" type="qcurve" smooth="yes"/>
      <point x="336" y="755"/>
      <point x="378" y="760"/>
      <point x="395" y="760" type="qcurve" smooth="yes"/>
      <point x="453" y="760"/>
      <point x="531" y="669"/>
      <point x="543" y="589" type="qcurve"/>
      <point x="545" y="586"/>
      <point x="546" y="575"/>
    </contour>
    <contour>
      <point x="492" y="-5" type="qcurve"/>
      <point x="479" y="-11"/>
      <point x="444" y="-18"/>
      <point x="428" y="-19" type="qcurve"/>
      <point x="406" y="60"/>
      <point x="405" y="257"/>
      <point x="424" y="348" type="qcurve"/>
      <point x="366" y="186"/>
      <point x="260" y="70"/>
      <point x="174" y="70" type="qcurve" smooth="yes"/>
      <point x="150" y="70"/>
      <point x="95" y="80"/>
      <point x="68" y="89" type="qcurve"/>
      <point x="48" y="169" type="line"/>
      <point x="87" y="152"/>
      <point x="147" y="137"/>
      <point x="172" y="137" type="qcurve" smooth="yes"/>
      <point x="226" y="137"/>
      <point x="289" y="201"/>
      <point x="289" y="255" type="qcurve" smooth="yes"/>
      <point x="289" y="324"/>
      <point x="199" y="431"/>
      <point x="142" y="431" type="qcurve" smooth="yes"/>
      <point x="117" y="431"/>
      <point x="88" y="406"/>
      <point x="88" y="384" type="qcurve" smooth="yes"/>
      <point x="88" y="360"/>
      <point x="127" y="314"/>
      <point x="161" y="297" type="qcurve"/>
      <point x="151" y="284"/>
      <point x="118" y="266"/>
      <point x="105" y="265" type="qcurve"/>
      <point x="67" y="293"/>
      <point x="30" y="353"/>
      <point x="30" y="387" type="qcurve" smooth="yes"/>
      <point x="30" y="431"/>
      <point x="88" y="482"/>
      <point x="135" y="482" type="qcurve" smooth="yes"/>
      <point x="206" y="482"/>
      <point x="324" y="369"/>
      <point x="339" y="289" type="qcurve"/>
      <point x="363" y="345"/>
      <point x="410" y="432"/>
      <point x="429" y="454" type="qcurve"/>
      <point x="449" y="447"/>
      <point x="480" y="429"/>
      <point x="493" y="415" type="qcurve"/>
      <point x="463" y="320"/>
      <point x="462" y="109"/>
    </contour>
    <contour>
      <point x="262" y="787" type="move" name="chandrabindu"/>
    </contour>
  </outline>
</glyph>
<glyph name="bn_uu" format="1">
  <advance width="623"/>
  <unicode hex="098A"/>
  <outline>
    <contour>
      <point x="602" y="206" type="qcurve" smooth="yes"/>
      <point x="602" y="97"/>
      <point x="492" y="-26"/>
      <point x="392" y="-26" type="qcurve" smooth="yes"/>
      <point x="264" y="-26"/>
      <point x="71" y="181"/>
      <point x="5" y="389" type="qcurve"/>
      <point x="13" y="395"/>
      <point x="31" y="405"/>
      <point x="52" y="415" type="qcurve"/>
      <point x="99" y="260"/>
      <point x="211" y="82"/>
      <point x="286" y="44" type="qcurve"/>
      <point x="228" y="92"/>
      <point x="137" y="276"/>
      <point x="96" y="435" type="qcurve"/>
      <point x="106" y="442"/>
      <point x="129" y="455"/>
      <point x="144" y="461" type="qcurve"/>
      <point x="198" y="240"/>
      <point x="321" y="50"/>
      <point x="411" y="50" type="qcurve" smooth="yes"/>
      <point x="478" y="50"/>
      <point x="549" y="142"/>
      <point x="549" y="228" type="qcurve" smooth="yes"/>
      <point x="549" y="253"/>
      <point x="542" y="309"/>
      <point x="535" y="338" type="qcurve"/>
      <point x="490" y="284"/>
      <point x="428" y="244"/>
      <point x="395" y="244" type="qcurve" smooth="yes"/>
      <point x="346" y="244"/>
      <point x="279" y="327"/>
      <point x="279" y="385" type="qcurve" smooth="yes"/>
      <point x="279" y="408"/>
      <point x="293" y="484"/>
      <point x="311" y="558" type="qcurve"/>
      <point x="311" y="558" type="line" smooth="yes"/>
      <point x="223" y="558"/>
      <point x="71" y="544"/>
      <point x="0" y="530" type="qcurve"/>
      <point x="-3" y="535"/>
      <point x="-6" y="550"/>
      <point x="-6" y="562" type="qcurve" smooth="yes"/>
      <point x="-6" y="571"/>
      <point x="-3" y="584"/>
      <point x="0" y="589" type="qcurve"/>
      <point x="68" y="605"/>
      <point x="223" y="621"/>
      <point x="311" y="621" type="qcurve" smooth="yes"/>
      <point x="388" y="621"/>
      <point x="521" y="610"/>
      <point x="579" y="598" type="qcurve"/>
      <point x="567" y="649"/>
      <point x="516" y="701"/>
      <point x="478" y="701" type="qcurve" smooth="yes"/>
      <point x="457" y="701"/>
      <point x="409" y="696"/>
      <point x="360" y="688" type="qcurve" smooth="yes"/>
      <point x="314" y="681"/>
      <point x="269" y="676"/>
      <point x="250" y="676" type="qcurve" smooth="yes"/>
      <point x="199" y="676"/>
      <point x="122" y="725"/>
      <point x="92" y="777" type="qcurve"/>
      <point x="100" y="788"/>
      <point x="124" y="808"/>
      <point x="136" y="815" type="qcurve"/>
      <point x="164" y="770"/>
      <point x="219" y="734"/>
      <point x="254" y="734" type="qcurve" smooth="yes"/>
      <point x="268" y="734"/>
      <point x="307" y="738"/>
      <point x="351" y="746" type="qcurve" smooth="yes"/>
      <point x="403" y="754"/>
      <point x="455" y="760"/>
      <point x="476" y="760" type="qcurve" smooth="yes"/>
      <point x="535" y="760"/>
      <point x="612" y="669"/>
      <point x="623" y="589" type="qcurve"/>
      <point x="626" y="582"/>
      <point x="628" y="568"/>
      <point x="628" y="561" type="qcurve" smooth="yes"/>
      <point x="628" y="552"/>
      <point x="625" y="535"/>
      <point x="623" y="530" type="qcurve"/>
      <point x="569" y="542"/>
      <point x="447" y="555"/>
      <point x="378" y="557" type="qcurve"/>
      <point x="353" y="472"/>
      <point x="336" y="392"/>
      <point x="336" y="368" type="qcurve" smooth="yes"/>
      <point x="336" y="338"/>
      <point x="361" y="304"/>
      <point x="382" y="304" type="qcurve" smooth="yes"/>
      <point x="404" y="304"/>
      <point x="456" y="346"/>
      <point x="512" y="418" type="qcurve"/>
      <point x="523" y="416"/>
      <point x="548" y="405"/>
      <point x="558" y="399" type="qcurve"/>
      <point x="579" y="357"/>
      <point x="602" y="256"/>
    </contour>
    <contour>
      <point x="307" y="787" type="move" name="chandrabindu"/>
    </contour>
  </outline>
</glyph>
<glyph name="bn_li" format="1">
  <advance width="473"/>
  <unicode hex="098C"/>
  <outline>
    <contour>
      <point x="433" y="325" type="qcurve" smooth="yes"/>
      <point x="433" y="254"/>
      <point x="392" y="70"/>
      <point x="357" y="-20" type="qcurve"/>
      <point x="341" y="-20"/>
      <point x="310" y="-13"/>
      <point x="296" y="-6" type="qcurve"/>
      <point x="300" y="105"/>
      <point x="227" y="241"/>
      <point x="165" y="241" type="qcurve" smooth="yes"/>
      <point x="124" y="241"/>
      <point x="74" y="181"/>
      <point x="74" y="132" type="qcurve" smooth="yes"/>
      <point x="74" y="93"/>
      <point x="106" y="47"/>
      <point x="132" y="47" type="qcurve" smooth="yes"/>
      <point x="154" y="47"/>
      <point x="189" y="84"/>
      <point x="200" y="117" type="qcurve"/>
      <point x="210" y="99"/>
      <point x="225" y="59"/>
      <point x="226" y="44" type="qcurve"/>
      <point x="213" y="15"/>
      <point x="165" y="-19"/>
      <point x="138" y="-19" type="qcurve" smooth="yes"/>
      <point x="90" y="-19"/>
      <point x="22" y="75"/>
      <point x="22" y="143" type="qcurve" smooth="yes"/>
      <point x="22" y="216"/>
      <point x="101" y="312"/>
      <point x="162" y="312" type="qcurve" smooth="yes"/>
      <point x="230" y="312"/>
      <point x="324" y="195"/>
      <point x="334" y="96" type="qcurve"/>
      <point x="355" y="151"/>
      <point x="381" y="293"/>
      <point x="381" y="353" type="qcurve" smooth="yes"/>
      <point x="381" y="407"/>
      <point x="325" y="459"/>
      <point x="230" y="479" type="qcurve" smooth="yes"/>
      <point x="169" y="493"/>
      <point x="113" y="512"/>
      <point x="94" y="525" type="qcurve" smooth="yes"/>
      <point x="66" y="543"/>
      <point x="34" y="600"/>
      <point x="26" y="645" type="qcurve"/>
      <point x="37" y="653"/>
      <point x="66" y="665"/>
      <point x="79" y="668" type="qcurve"/>
      <point x="90" y="613"/>
      <point x="138" y="562"/>
      <point x="202" y="548" type="qcurve"/>
      <point x="270" y="533" type="line" smooth="yes"/>
      <point x="358" y="514"/>
      <point x="433" y="417"/>
    </contour>
    <contour>
      <point x="247" y="690" type="move" name="chandrabindu"/>
    </contour>
  </outline>
</glyph>
<glyph name="bn_ai" format="1">
  <advance width="651"/>
  <unicode hex="0990"/>
  <outline>
    <contour>
      <point x="491" y="-10" type="qcurve"/>
      <point x="479" y="-15"/>
      <point x="447" y="-20"/>
      <point x="431" y="-20" type="qcurve"/>
      <point x="418" y="5"/>
      <point x="402" y="36"/>
      <point x="397" y="41" type="qcurve" smooth="yes"/>
      <point x="385" y="55"/>
      <point x="356" y="69"/>
      <point x="337" y="69" type="qcurve" smooth="yes"/>
      <point x="323" y="69"/>
      <point x="287" y="62"/>
      <point x="247" y="50" type="qcurve" smooth="yes"/>
      <point x="203" y="36"/>
      <point x="159" y="28"/>
      <point x="141" y="28" type="qcurve" smooth="yes"/>
      <point x="87" y="28"/>
      <point x="23" y="98"/>
      <point x="23" y="155" type="qcurve" smooth="yes"/>
      <point x="23" y="186"/>
      <point x="44" y="259"/>
      <point x="63" y="294" type="qcurve"/>
      <point x="78" y="293"/>
      <point x="103" y="285"/>
      <point x="113" y="278" type="qcurve"/>
      <point x="100" y="258"/>
      <point x="84" y="197"/>
      <point x="84" y="172" type="qcurve" smooth="yes"/>
      <point x="84" y="137"/>
      <point x="120" y="100"/>
      <point x="152" y="100" type="qcurve" smooth="yes"/>
      <point x="165" y="100"/>
      <point x="200" y="107"/>
      <point x="237" y="119" type="qcurve" smooth="yes"/>
      <point x="276" y="132"/>
      <point x="315" y="140"/>
      <point x="330" y="140" type="qcurve" smooth="yes"/>
      <point x="365" y="140"/>
      <point x="413" y="99"/>
      <point x="430" y="54" type="qcurve"/>
      <point x="442" y="141"/>
      <point x="456" y="379"/>
      <point x="456" y="506" type="qcurve" smooth="yes"/>
      <point x="456" y="542"/>
      <point x="425" y="583"/>
      <point x="398" y="583" type="qcurve" smooth="yes"/>
      <point x="347" y="583"/>
      <point x="231" y="458"/>
      <point x="231" y="399" type="qcurve" smooth="yes"/>
      <point x="231" y="372"/>
      <point x="260" y="343"/>
      <point x="286" y="343" type="qcurve" smooth="yes"/>
      <point x="307" y="343"/>
      <point x="347" y="364"/>
      <point x="364" y="385" type="qcurve"/>
      <point x="367" y="381"/>
      <point x="370" y="368"/>
      <point x="370" y="358" type="qcurve" smooth="yes"/>
      <point x="370" y="345"/>
      <point x="364" y="319"/>
      <point x="358" y="309" type="qcurve"/>
      <point x="341" y="294"/>
      <point x="297" y="278"/>
      <point x="273" y="278" type="qcurve" smooth="yes"/>
      <point x="222" y="278"/>
      <point x="158" y="340"/>
      <point x="158" y="391" type="qcurve" smooth="yes"/>
      <point x="158" y="431"/>
      <point x="197" y="515"/>
      <point x="232" y="552" type="qcurve" smooth="yes"/>
      <point x="268" y="590"/>
      <point x="352" y="634"/>
      <point x="389" y="634" type="qcurve" smooth="yes"/>
      <point x="444" y="634"/>
      <point x="518" y="549"/>
      <point x="518" y="484" type="qcurve" smooth="yes"/>
      <point x="518" y="480"/>
      <point x="518" y="471"/>
      <point x="518" y="466" type="qcurve"/>
      <point x="548" y="489"/>
      <point x="581" y="553"/>
      <point x="581" y="587" type="qcurve" smooth="yes"/>
      <point x="581" y="616"/>
      <point x="553" y="654"/>
      <point x="523" y="666" type="qcurve" smooth="yes"/>
      <point x="508" y="672"/>
      <point x="466" y="682"/>
      <point x="419" y="690" type="qcurve" smooth="yes"/>
      <point x="362" y="699"/>
      <point x="303" y="717"/>
      <point x="282" y="730" type="qcurve" smooth="yes"/>
      <point x="255" y="747"/>
      <point x="222" y="805"/>
      <point x="214" y="849" type="qcurve"/>
      <point x="226" y="858"/>
      <point x="255" y="870"/>
      <point x="266" y="872" type="qcurve"/>
      <point x="278" y="815"/>
      <point x="328" y="764"/>
      <point x="389" y="753" type="qcurve"/>
      <point x="460" y="740" type="line" smooth="yes"/>
      <point x="544" y="723"/>
      <point x="623" y="646"/>
      <point x="623" y="581" type="qcurve" smooth="yes"/>
      <point x="623" y="528"/>
      <point x="571" y="433"/>
      <point x="517" y="388" type="qcurve"/>
      <point x="516" y="282"/>
      <point x="503" y="86"/>
    </contour>
    <contour>
      <point x="454" y="787" type="move" name="chandrabindu"/>
    </contour>
  </outline>
</glyph>
<glyph name="bn_o" format="1">
  <advance width="661"/>
  <unicode hex="0993"/>
  <outline>
    <contour>
      <point x="614" y="160" type="qcurve" smooth="yes"/>
      <point x="614" y="80"/>
      <point x="513" y="-20"/>
      <point x="428" y="-20" type="qcurve" smooth="yes"/>
      <point x="293" y="-20"/>
      <point x="91" y="256"/>
      <point x="21" y="544" type="qcurve"/>
      <point x="33" y="554"/>
      <point x="58" y="568"/>
      <point x="72" y="573" type="qcurve"/>
      <point x="135" y="312"/>
      <point x="316" y="50"/>
      <point x="432" y="50" type="qcurve" smooth="yes"/>
      <point x="491" y="50"/>
      <point x="556" y="115"/>
      <point x="556" y="175" type="qcurve" smooth="yes"/>
      <point x="556" y="202"/>
      <point x="541" y="250"/>
      <point x="527" y="271" type="qcurve"/>
      <point x="506" y="245"/>
      <point x="457" y="217"/>
      <point x="431" y="217" type="qcurve" smooth="yes"/>
      <point x="392" y="217"/>
      <point x="340" y="270"/>
      <point x="340" y="311" type="qcurve" smooth="yes"/>
      <point x="340" y="352"/>
      <point x="391" y="407"/>
      <point x="430" y="407" type="qcurve" smooth="yes"/>
      <point x="453" y="407"/>
      <point x="498" y="386"/>
      <point x="515" y="367" type="qcurve"/>
      <point x="532" y="394"/>
      <point x="550" y="451"/>
      <point x="550" y="478" type="qcurve" smooth="yes"/>
      <point x="550" y="527"/>
      <point x="495" y="580"/>
      <point x="445" y="580" type="qcurve" smooth="yes"/>
      <point x="378" y="581"/>
      <point x="288" y="494"/>
      <point x="288" y="429" type="qcurve" smooth="yes"/>
      <point x="288" y="417"/>
      <point x="290" y="393"/>
      <point x="292" y="385" type="qcurve"/>
      <point x="274" y="385"/>
      <point x="229" y="403"/>
      <point x="218" y="416" type="qcurve"/>
      <point x="217" y="512"/>
      <point x="334" y="634"/>
      <point x="425" y="634" type="qcurve" smooth="yes"/>
      <point x="506" y="634"/>
      <point x="607" y="540"/>
      <point x="607" y="464" type="qcurve" smooth="yes"/>
      <point x="607" y="424"/>
      <point x="580" y="343"/>
      <point x="557" y="312" type="qcurve"/>
      <point x="585" y="279"/>
      <point x="614" y="202"/>
    </contour>
    <contour>
      <point x="382" y="316" type="qcurve" smooth="yes"/>
      <point x="382" y="299"/>
      <point x="406" y="276"/>
      <point x="425" y="276" type="qcurve" smooth="yes"/>
      <point x="443" y="276"/>
      <point x="476" y="299"/>
      <point x="492" y="323" type="qcurve"/>
      <point x="479" y="342"/>
      <point x="445" y="362"/>
      <point x="428" y="362" type="qcurve" smooth="yes"/>
      <point x="408" y="362"/>
      <point x="382" y="336"/>
    </contour>
    <contour>
      <point x="356" y="690" type="move" name="chandrabindu"/>
    </contour>
  </outline>
</glyph>
<glyph name="bn_au" format="1">
  <advance width="725"/>
  <unicode hex="0994"/>
  <outline>
    <contour>
      <point x="614" y="160" type="qcurve" smooth="yes"/>
      <point x="614" y="80"/>
      <point x="513" y="-20"/>
      <point x="428" y="-20" type="qcurve" smooth="yes"/>
      <point x="293" y="-20"/>
      <point x="91" y="256"/>
      <point x="21" y="544" type="qcurve"/>
      <point x="33" y="554"/>
      <point x="58" y="568"/>
      <point x="72" y="573" type="qcurve"/>
      <point x="135" y="312"/>
      <point x="316" y="50"/>
      <point x="432" y="50" type="qcurve" smooth="yes"/>
      <point x="491" y="50"/>
      <point x="556" y="115"/>
      <point x="556" y="175" type="qcurve" smooth="yes"/>
      <point x="556" y="202"/>
      <point x="541" y="250"/>
      <point x="527" y="271" type="qcurve"/>
      <point x="506" y="245"/>
      <point x="457" y="217"/>
      <point x="431" y="217" type="qcurve" smooth="yes"/>
      <point x="392" y="217"/>
      <point x="340" y="270"/>
      <point x="340" y="311" type="qcurve" smooth="yes"/>
      <point x="340" y="352"/>
      <point x="391" y="407"/>
      <point x="430" y="407" type="qcurve" smooth="yes"/>
      <point x="453" y="407"/>
      <point x="498" y="386"/>
      <point x="515" y="367" type="qcurve"/>
      <point x="532" y="394"/>
      <point x="550" y="451"/>
      <point x="550" y="478" type="qcurve" smooth="yes"/>
      <point x="550" y="527"/>
      <point x="495" y="580"/>
      <point x="445" y="580" type="qcurve" smooth="yes"/>
      <point x="378" y="581"/>
      <point x="288" y="494"/>
      <point x="288" y="429" type="qcurve" smooth="yes"/>
      <point x="288" y="417"/>
      <point x="290" y="393"/>
      <point x="292" y="385" type="qcurve"/>
      <point x="274" y="385"/>
      <point x="229" y="403"/>
      <point x="218" y="416" type="qcurve"/>
      <point x="217" y="512"/>
      <point x="334" y="634"/>
      <point x="425" y="634" type="qcurve" smooth="yes"/>
      <point x="501" y="634"/>
      <point x="601" y="549"/>
      <point x="606" y="479" type="qcurve"/>
      <point x="628" y="501"/>
      <point x="653" y="559"/>
      <point x="653" y="588" type="qcurve" smooth="yes"/>
      <point x="653" y="627"/>
      <point x="595" y="670"/>
      <point x="491" y="690" type="qcurve" smooth="yes"/>
      <point x="429" y="701"/>
      <point x="372" y="719"/>
      <point x="353" y="731" type="qcurve" smooth="yes"/>
      <point x="326" y="748"/>
      <point x="294" y="807"/>
      <point x="286" y="853" type="qcurve"/>
      <point x="297" y="859"/>
      <point x="326" y="868"/>
      <point x="339" y="870" type="qcurve"/>
      <point x="350" y="814"/>
      <point x="401" y="766"/>
      <point x="469" y="753" type="qcurve"/>
      <point x="536" y="740" type="line" smooth="yes"/>
      <point x="616" y="725"/>
      <point x="695" y="646"/>
      <point x="695" y="582" type="qcurve" smooth="yes"/>
      <point x="695" y="531"/>
      <point x="644" y="430"/>
      <point x="593" y="381" type="qcurve"/>
      <point x="586" y="362"/>
      <point x="568" y="327"/>
      <point x="557" y="312" type="qcurve"/>
      <point x="585" y="279"/>
      <point x="614" y="202"/>
    </contour>
    <contour>
      <point x="382" y="316" type="qcurve" smooth="yes"/>
      <point x="382" y="299"/>
      <point x="406" y="276"/>
      <point x="425" y="276" type="qcurve" smooth="yes"/>
      <point x="443" y="276"/>
      <point x="476" y="299"/>
      <point x="492" y="323" type="qcurve"/>
      <point x="479" y="342"/>
      <point x="445" y="362"/>
      <point x="428" y="362" type="qcurve" smooth="yes"/>
      <point x="408" y="362"/>
      <point x="382" y="336"/>
    </contour>
    <contour>
      <point x="523" y="787" type="move" name="chandrabindu"/>
    </contour>
  </outline>
</glyph>
<glyph name="bn_kha" format="1">
  <advance width="546"/>
  <unicode hex="0996"/>
  <outline>
    <contour>
      <point x="486" y="471" type="qcurve" smooth="yes"/>
      <point x="486" y="305"/>
      <point x="450" y="65"/>
      <point x="413" y="-21" type="qcurve"/>
      <point x="395" y="-21"/>
      <point x="358" y="-13"/>
      <point x="346" y="-6" type="qcurve"/>
      <point x="304" y="101"/>
      <point x="208" y="209"/>
      <point x="143" y="225" type="qcurve"/>
      <point x="128" y="239"/>
      <point x="109" y="276"/>
      <point x="108" y="294" type="qcurve"/>
      <point x="188" y="335" type="line" smooth="yes"/>
      <point x="250" y="366"/>
      <point x="305" y="430"/>
      <point x="305" y="471" type="qcurve" smooth="yes"/>
      <point x="305" y="479"/>
      <point x="303" y="491"/>
      <point x="301" y="497" type="qcurve"/>
      <point x="273" y="459"/>
      <point x="194" y="412"/>
      <point x="157" y="412" type="qcurve" smooth="yes"/>
      <point x="105" y="412"/>
      <point x="45" y="471"/>
      <point x="45" y="522" type="qcurve" smooth="yes"/>
      <point x="45" y="537"/>
      <point x="50" y="563"/>
      <point x="56" y="575" type="qcurve"/>
      <point x="69" y="581"/>
      <point x="106" y="588"/>
      <point x="126" y="588" type="qcurve"/>
      <point x="118" y="577"/>
      <point x="110" y="551"/>
      <point x="110" y="536" type="qcurve" smooth="yes"/>
      <point x="110" y="506"/>
      <point x="136" y="479"/>
      <point x="164" y="479" type="qcurve" smooth="yes"/>
      <point x="195" y="479"/>
      <point x="264" y="523"/>
      <point x="288" y="559" type="qcurve"/>
      <point x="331" y="537" type="line"/>
      <point x="344" y="518"/>
      <point x="357" y="471"/>
      <point x="357" y="443" type="qcurve" smooth="yes"/>
      <point x="357" y="390"/>
      <point x="285" y="299"/>
      <point x="220" y="269" type="qcurve"/>
      <point x="208" y="264" type="line"/>
      <point x="261" y="234"/>
      <point x="343" y="120"/>
      <point x="369" y="40" type="qcurve"/>
      <point x="397" y="107"/>
      <point x="426" y="297"/>
      <point x="426" y="418" type="qcurve" smooth="yes"/>
      <point x="426" y="429"/>
      <point x="425" y="452"/>
      <point x="425" y="470" type="qcurve" smooth="yes"/>
      <point x="424" y="481"/>
      <point x="424" y="489"/>
      <point x="424" y="492" type="qcurve" smooth="yes"/>
      <point x="424" y="516"/>
      <point x="441" y="550"/>
      <point x="457" y="558" type="qcurve" smooth="yes"/>
      <point x="473" y="567"/>
      <point x="515" y="582"/>
      <point x="546" y="589" type="qcurve"/>
      <point x="549" y="586"/>
      <point x="552" y="571"/>
      <point x="552" y="562" type="qcurve" smooth="yes"/>
      <point x="552" y="551"/>
      <point x="549" y="534"/>
      <point x="546" y="530" type="qcurve"/>
      <point x="531" y="526"/>
      <point x="510" y="518"/>
      <point x="501" y="514" type="qcurve" smooth="yes"/>
      <point x="493" y="509"/>
      <point x="486" y="490"/>
    </contour>
    <contour>
      <point x="375" y="-1" type="move" name="blwm"/>
    </contour>
    <contour>
      <point x="165" y="0" type="move" name="nukt"/>
    </contour>
    <contour>
      <point x="459" y="690" type="move" name="reph"/>
    </contour>
    <contour>
      <point x="459" y="690" type="move" name="chandrabindu"/>
    </contour>
    <contour>
      <point x="262" y="0" type="move" name="haln"/>
    </contour>
  </outline>
</glyph>
<glyph name="bn_gha" format="1">
  <advance width="486"/>
  <unicode hex="0998"/>
  <outline>
    <contour>
      <point x="258" y="411" type="qcurve"/>
      <point x="267" y="398"/>
      <point x="278" y="362"/>
      <point x="279" y="342" type="qcurve"/>
      <point x="151" y="243" type="line"/>
      <point x="212" y="217"/>
      <point x="310" y="133"/>
      <point x="345" y="76" type="qcurve"/>
      <point x="343" y="99"/>
      <point x="341" y="159"/>
      <point x="341" y="203" type="qcurve" smooth="yes"/>
      <point x="341" y="298"/>
      <point x="351" y="464"/>
      <point x="362" y="551" type="qcurve"/>
      <point x="337" y="554"/>
      <point x="280" y="557"/>
      <point x="250" y="557" type="qcurve" smooth="yes"/>
      <point x="236" y="557"/>
      <point x="221" y="557"/>
      <point x="215" y="556" type="qcurve"/>
      <point x="161" y="534"/>
      <point x="106" y="476"/>
      <point x="106" y="442" type="qcurve" smooth="yes"/>
      <point x="106" y="412"/>
      <point x="143" y="373"/>
      <point x="171" y="373" type="qcurve" smooth="yes"/>
      <point x="190" y="373"/>
      <point x="237" y="393"/>
    </contour>
    <contour>
      <point x="405" y="286" type="qcurve" smooth="yes"/>
      <point x="405" y="180"/>
      <point x="416" y="38"/>
      <point x="428" y="-6" type="qcurve"/>
      <point x="417" y="-12"/>
      <point x="383" y="-18"/>
      <point x="359" y="-18" type="qcurve"/>
      <point x="309" y="72"/>
      <point x="182" y="178"/>
      <point x="103" y="195" type="qcurve"/>
      <point x="86" y="210"/>
      <point x="69" y="245"/>
      <point x="69" y="266" type="qcurve"/>
      <point x="157" y="333" type="line"/>
      <point x="106" y="337"/>
      <point x="45" y="397"/>
      <point x="45" y="445" type="qcurve" smooth="yes"/>
      <point x="45" y="475"/>
      <point x="68" y="524"/>
      <point x="92" y="547" type="qcurve"/>
      <point x="67" y="544"/>
      <point x="21" y="535"/>
      <point x="0" y="530" type="qcurve"/>
      <point x="-3" y="538"/>
      <point x="-5" y="555"/>
      <point x="-5" y="563" type="qcurve" smooth="yes"/>
      <point x="-5" y="570"/>
      <point x="-2" y="584"/>
      <point x="0" y="589" type="qcurve"/>
      <point x="47" y="603"/>
      <point x="182" y="620"/>
      <point x="253" y="620" type="qcurve" smooth="yes"/>
      <point x="316" y="620"/>
      <point x="437" y="604"/>
      <point x="486" y="589" type="qcurve"/>
      <point x="488" y="585"/>
      <point x="491" y="571"/>
      <point x="491" y="564" type="qcurve" smooth="yes"/>
      <point x="491" y="557"/>
      <point x="489" y="541"/>
      <point x="486" y="530" type="qcurve"/>
      <point x="474" y="533"/>
      <point x="445" y="539"/>
      <point x="423" y="543" type="qcurve"/>
      <point x="413" y="483"/>
      <point x="405" y="370"/>
    </contour>
    <contour>
      <point x="379" y="0" type="move" name="blwm"/>
    </contour>
    <contour>
      <point x="134" y="0" type="move" name="nukt"/>
    </contour>
    <contour>
      <point x="291" y="690" type="move" name="reph"/>
    </contour>
    <contour>
      <point x="291" y="690" type="move" name="chandrabindu"/>
    </contour>
    <contour>
      <point x="255" y="0" type="move" name="haln"/>
    </contour>
  </outline>
</glyph>
<glyph name="bn_nga" format="1">
  <advance width="574"/>
  <unicode hex="0999"/>
  <outline>
    <contour>
      <point x="301" y="505" type="qcurve"/>
      <point x="323" y="498"/>
      <point x="361" y="492"/>
      <point x="377" y="492" type="qcurve" smooth="yes"/>
      <point x="411" y="492"/>
      <point x="448" y="520"/>
      <point x="448" y="545" type="qcurve" smooth="yes"/>
      <point x="448" y="566"/>
      <point x="418" y="592"/>
      <point x="393" y="592" type="qcurve" smooth="yes"/>
      <point x="363" y="592"/>
      <point x="316" y="547"/>
    </contour>
    <contour>
      <point x="543" y="192" type="qcurve" smooth="yes"/>
      <point x="543" y="89"/>
      <point x="442" y="-30"/>
      <point x="355" y="-30" type="qcurve" smooth="yes"/>
      <point x="238" y="-30"/>
      <point x="72" y="182"/>
      <point x="10" y="426" type="qcurve"/>
      <point x="21" y="432"/>
      <point x="47" y="443"/>
      <point x="63" y="448" type="qcurve"/>
      <point x="121" y="234"/>
      <point x="259" y="41"/>
      <point x="356" y="41" type="qcurve" smooth="yes"/>
      <point x="420" y="41"/>
      <point x="489" y="129"/>
      <point x="489" y="211" type="qcurve" smooth="yes"/>
      <point x="489" y="241"/>
      <point x="482" y="296"/>
      <point x="476" y="321" type="qcurve"/>
      <point x="434" y="275"/>
      <point x="372" y="237"/>
      <point x="341" y="236" type="qcurve" smooth="yes"/>
      <point x="288" y="234"/>
      <point x="221" y="315"/>
      <point x="221" y="381" type="qcurve" smooth="yes"/>
      <point x="221" y="406"/>
      <point x="225" y="449"/>
      <point x="229" y="468" type="qcurve"/>
      <point x="193" y="481"/>
      <point x="128" y="515"/>
      <point x="103" y="532" type="qcurve"/>
      <point x="109" y="553"/>
      <point x="123" y="584"/>
      <point x="131" y="596" type="qcurve"/>
      <point x="154" y="577"/>
      <point x="215" y="541"/>
      <point x="246" y="527" type="qcurve"/>
      <point x="267" y="580"/>
      <point x="339" y="635"/>
      <point x="389" y="635" type="qcurve" smooth="yes"/>
      <point x="436" y="635"/>
      <point x="496" y="582"/>
      <point x="496" y="541" type="qcurve" smooth="yes"/>
      <point x="496" y="494"/>
      <point x="426" y="437"/>
      <point x="368" y="437" type="qcurve" smooth="yes"/>
      <point x="352" y="437"/>
      <point x="311" y="443"/>
      <point x="286" y="449" type="qcurve"/>
      <point x="283" y="430"/>
      <point x="279" y="389"/>
      <point x="279" y="368" type="qcurve" smooth="yes"/>
      <point x="279" y="329"/>
      <point x="301" y="294"/>
      <point x="326" y="294" type="qcurve" smooth="yes"/>
      <point x="347" y="294"/>
      <point x="410" y="345"/>
      <point x="453" y="397" type="qcurve"/>
      <point x="464" y="395"/>
      <point x="489" y="384"/>
      <point x="499" y="378" type="qcurve"/>
      <point x="520" y="337"/>
      <point x="543" y="240"/>
    </contour>
    <contour>
      <point x="325" y="-3" type="move" name="blwm"/>
    </contour>
    <contour>
      <point x="151" y="-120" type="move" name="nukt"/>
    </contour>
    <contour>
      <point x="345" y="690" type="move" name="reph"/>
    </contour>
    <contour>
      <point x="345" y="690" type="move" name="chandrabindu"/>
    </contour>
    <contour>
      <point x="265" y="-3" type="move" name="haln"/>
    </contour>
  </outline>
</glyph>
<glyph name="bn_jha" format="1">
  <advance width="609"/>
  <unicode hex="099D"/>
  <outline>
    <contour>
      <point x="292" y="78" type="qcurve"/>
      <point x="292" y="84"/>
      <point x="292" y="95"/>
      <point x="292" y="100" type="qcurve" smooth="yes"/>
      <point x="292" y="174"/>
      <point x="306" y="341"/>
      <point x="318" y="423" type="qcurve"/>
      <point x="266" y="399"/>
      <point x="144" y="317"/>
      <point x="101" y="276" type="qcurve"/>
      <point x="164" y="243"/>
      <point x="260" y="143"/>
    </contour>
    <contour>
      <point x="357" y="168" type="qcurve" smooth="yes"/>
      <point x="357" y="115"/>
      <point x="364" y="26"/>
      <point x="371" y="-6" type="qcurve"/>
      <point x="359" y="-13"/>
      <point x="324" y="-19"/>
      <point x="301" y="-19" type="qcurve"/>
      <point x="257" y="82"/>
      <point x="135" y="204"/>
      <point x="57" y="226" type="qcurve"/>
      <point x="43" y="244"/>
      <point x="30" y="281"/>
      <point x="29" y="305" type="qcurve"/>
      <point x="77" y="358"/>
      <point x="246" y="470"/>
      <point x="332" y="505" type="qcurve"/>
      <point x="337" y="530"/>
      <point x="340" y="545"/>
      <point x="342" y="551" type="qcurve"/>
      <point x="318" y="554"/>
      <point x="269" y="557"/>
      <point x="244" y="557" type="qcurve" smooth="yes"/>
      <point x="184" y="557"/>
      <point x="49" y="542"/>
      <point x="0" y="530" type="qcurve"/>
      <point x="-1" y="536"/>
      <point x="-3" y="554"/>
      <point x="-3" y="565" type="qcurve" smooth="yes"/>
      <point x="-3" y="572"/>
      <point x="-1" y="585"/>
      <point x="0" y="589" type="qcurve"/>
      <point x="42" y="602"/>
      <point x="183" y="621"/>
      <point x="244" y="621" type="qcurve" smooth="yes"/>
      <point x="274" y="621"/>
      <point x="338" y="615"/>
      <point x="364" y="610" type="qcurve" smooth="yes"/>
      <point x="380" y="608"/>
      <point x="396" y="589"/>
      <point x="396" y="573" type="qcurve" smooth="yes"/>
      <point x="396" y="571"/>
      <point x="395" y="562"/>
      <point x="392" y="547" type="qcurve" smooth="yes"/>
      <point x="377" y="465"/>
      <point x="362" y="329"/>
      <point x="359" y="261" type="qcurve"/>
      <point x="397" y="236"/>
      <point x="463" y="169"/>
      <point x="489" y="127" type="qcurve"/>
      <point x="482" y="176"/>
      <point x="474" y="293"/>
      <point x="474" y="354" type="qcurve" smooth="yes"/>
      <point x="474" y="366"/>
      <point x="475" y="401"/>
      <point x="476" y="440" type="qcurve" smooth="yes"/>
      <point x="476" y="463"/>
      <point x="477" y="486"/>
      <point x="477" y="496" type="qcurve" smooth="yes"/>
      <point x="478" y="518"/>
      <point x="496" y="548"/>
      <point x="515" y="557" type="qcurve" smooth="yes"/>
      <point x="540" y="569"/>
      <point x="584" y="583"/>
      <point x="609" y="589" type="qcurve"/>
      <point x="612" y="585"/>
      <point x="615" y="571"/>
      <point x="615" y="561" type="qcurve" smooth="yes"/>
      <point x="615" y="551"/>
      <point x="612" y="534"/>
      <point x="609" y="530" type="qcurve"/>
      <point x="590" y="525"/>
      <point x="559" y="513"/>
      <point x="548" y="507" type="qcurve" smooth="yes"/>
      <point x="537" y="501"/>
      <point x="528" y="485"/>
      <point x="528" y="471" type="qcurve" smooth="yes"/>
      <point x="527" y="455"/>
      <point x="527" y="415"/>
      <point x="527" y="381" type="qcurve" smooth="yes"/>
      <point x="527" y="279"/>
      <point x="555" y="102"/>
      <point x="582" y="32" type="qcurve"/>
      <point x="568" y="24"/>
      <point x="532" y="16"/>
      <point x="514" y="17" type="qcurve"/>
      <point x="482" y="79"/>
      <point x="404" y="171"/>
      <point x="357" y="201" type="qcurve"/>
      <point x="357" y="193"/>
      <point x="357" y="176"/>
    </contour>
    <contour>
      <point x="322" y="0" type="move" name="blwm"/>
    </contour>
    <contour>
      <point x="90" y="0" type="move" name="nukt"/>
    </contour>
    <contour>
      <point x="399" y="690" type="move" name="reph"/>
    </contour>
    <contour>
      <point x="399" y="690" type="move" name="chandrabindu"/>
    </contour>
    <contour>
      <point x="234" y="0" type="move" name="haln"/>
    </contour>
  </outline>
</glyph>
<glyph name="bn_dha" format="1">
  <advance width="481"/>
  <unicode hex="09A7"/>
  <outline>
    <contour>
      <point x="393" y="292" type="qcurve" smooth="yes"/>
      <point x="393" y="193"/>
      <point x="403" y="42"/>
      <point x="412" y="-4" type="qcurve"/>
      <point x="399" y="-11"/>
      <point x="363" y="-19"/>
      <point x="341" y="-19" type="qcurve"/>
      <point x="291" y="86"/>
      <point x="162" y="209"/>
      <point x="81" y="228" type="qcurve"/>
      <point x="66" y="245"/>
      <point x="50" y="282"/>
      <point x="48" y="304" type="qcurve"/>
      <point x="65" y="322"/>
      <point x="112" y="359"/>
      <point x="139" y="377" type="qcurve"/>
      <point x="90" y="388"/>
      <point x="31" y="454"/>
      <point x="31" y="500" type="qcurve" smooth="yes"/>
      <point x="31" y="552"/>
      <point x="98" y="619"/>
      <point x="152" y="619" type="qcurve" smooth="yes"/>
      <point x="188" y="619"/>
      <point x="250" y="575"/>
      <point x="263" y="541" type="qcurve"/>
      <point x="254" y="527"/>
      <point x="224" y="502"/>
      <point x="209" y="498" type="qcurve"/>
      <point x="207" y="524"/>
      <point x="172" y="557"/>
      <point x="147" y="557" type="qcurve" smooth="yes"/>
      <point x="122" y="557"/>
      <point x="93" y="521"/>
      <point x="93" y="490" type="qcurve" smooth="yes"/>
      <point x="93" y="457"/>
      <point x="137" y="415"/>
      <point x="169" y="415" type="qcurve" smooth="yes"/>
      <point x="182" y="415"/>
      <point x="213" y="423"/>
      <point x="234" y="433" type="qcurve"/>
      <point x="262" y="447"/>
      <point x="321" y="474"/>
      <point x="350" y="485" type="qcurve"/>
      <point x="350" y="487"/>
      <point x="351" y="492"/>
      <point x="351" y="493" type="qcurve" smooth="yes"/>
      <point x="354" y="517"/>
      <point x="370" y="544"/>
      <point x="385" y="553" type="qcurve" smooth="yes"/>
      <point x="402" y="565"/>
      <point x="451" y="583"/>
      <point x="481" y="589" type="qcurve"/>
      <point x="484" y="585"/>
      <point x="487" y="569"/>
      <point x="487" y="561" type="qcurve" smooth="yes"/>
      <point x="487" y="553"/>
      <point x="483" y="535"/>
      <point x="481" y="530" type="qcurve"/>
      <point x="461" y="524"/>
      <point x="433" y="513"/>
      <point x="422" y="507" type="qcurve" smooth="yes"/>
      <point x="411" y="500"/>
      <point x="403" y="486"/>
      <point x="401" y="464" type="qcurve" smooth="yes"/>
      <point x="396" y="402"/>
      <point x="393" y="327"/>
    </contour>
    <contour>
      <point x="333" y="71" type="qcurve"/>
      <point x="332" y="100"/>
      <point x="331" y="154"/>
      <point x="331" y="181" type="qcurve" smooth="yes"/>
      <point x="331" y="237"/>
      <point x="336" y="346"/>
      <point x="341" y="403" type="qcurve"/>
      <point x="285" y="381"/>
      <point x="166" y="312"/>
      <point x="125" y="278" type="qcurve"/>
      <point x="192" y="246"/>
      <point x="297" y="141"/>
    </contour>
    <contour>
      <point x="365" y="0" type="move" name="blwm"/>
    </contour>
    <contour>
      <point x="157" y="0" type="move" name="nukt"/>
    </contour>
    <contour>
      <point x="390" y="690" type="move" name="reph"/>
    </contour>
    <contour>
      <point x="390" y="690" type="move" name="chandrabindu"/>
    </contour>
    <contour>
      <point x="262" y="0" type="move" name="haln"/>
    </contour>
  </outline>
</glyph>
<glyph name="bn_na" format="1">
  <advance width="480"/>
  <unicode hex="09A8"/>
  <outline>
    <contour>
      <point x="406" y="-12" type="qcurve"/>
      <point x="392" y="-15"/>
      <point x="353" y="-19"/>
      <point x="332" y="-19" type="qcurve"/>
      <point x="330" y="15"/>
      <point x="327" y="106"/>
      <point x="327" y="162" type="qcurve" smooth="yes"/>
      <point x="327" y="165"/>
      <point x="327" y="170"/>
      <point x="327" y="172" type="qcurve"/>
      <point x="327" y="172" type="line"/>
      <point x="328" y="238"/>
      <point x="212" y="356"/>
      <point x="147" y="356" type="qcurve" smooth="yes"/>
      <point x="113" y="356"/>
      <point x="75" y="321"/>
      <point x="75" y="289" type="qcurve" smooth="yes"/>
      <point x="75" y="254"/>
      <point x="123" y="214"/>
      <point x="166" y="214" type="qcurve" smooth="yes"/>
      <point x="183" y="214"/>
      <point x="214" y="221"/>
      <point x="222" y="226" type="qcurve"/>
      <point x="222" y="209"/>
      <point x="217" y="168"/>
      <point x="213" y="154" type="qcurve"/>
      <point x="209" y="150"/>
      <point x="187" y="145"/>
      <point x="172" y="145" type="qcurve" smooth="yes"/>
      <point x="108" y="145"/>
      <point x="27" y="227"/>
      <point x="27" y="293" type="qcurve" smooth="yes"/>
      <point x="27" y="351"/>
      <point x="93" y="423"/>
      <point x="147" y="423" type="qcurve" smooth="yes"/>
      <point x="200" y="423"/>
      <point x="298" y="348"/>
      <point x="329" y="284" type="qcurve"/>
      <point x="331" y="361"/>
      <point x="344" y="487"/>
      <point x="357" y="552" type="qcurve"/>
      <point x="329" y="555"/>
      <point x="277" y="557"/>
      <point x="254" y="557" type="qcurve" smooth="yes"/>
      <point x="193" y="557"/>
      <point x="57" y="543"/>
      <point x="0" y="530" type="qcurve"/>
      <point x="-2" y="540"/>
      <point x="-5" y="557"/>
      <point x="-5" y="564" type="qcurve" smooth="yes"/>
      <point x="-5" y="571"/>
      <point x="-2" y="584"/>
      <point x="0" y="589" type="qcurve"/>
      <point x="63" y="604"/>
      <point x="192" y="620"/>
      <point x="252" y="620" type="qcurve" smooth="yes"/>
      <point x="310" y="620"/>
      <point x="421" y="605"/>
      <point x="480" y="589" type="qcurve"/>
      <point x="482" y="585"/>
      <point x="484" y="573"/>
      <point x="484" y="563" type="qcurve" smooth="yes"/>
      <point x="484" y="552"/>
      <point x="482" y="535"/>
      <point x="480" y="530" type="qcurve"/>
      <point x="466" y="534"/>
      <point x="431" y="542"/>
      <point x="411" y="545" type="qcurve"/>
      <point x="400" y="478"/>
      <point x="390" y="345"/>
      <point x="390" y="261" type="qcurve" smooth="yes"/>
      <point x="390" y="178"/>
      <point x="399" y="25"/>
    </contour>
    <contour>
      <point x="359" y="0" type="move" name="blwm"/>
    </contour>
    <contour>
      <point x="182" y="-3" type="move" name="nukt"/>
    </contour>
    <contour>
      <point x="383" y="690" type="move" name="reph"/>
    </contour>
    <contour>
      <point x="383" y="690" type="move" name="chandrabindu"/>
    </contour>
    <contour>
      <point x="279" y="0" type="move" name="haln"/>
    </contour>
  </outline>
</glyph>
<glyph name="bn_pa" format="1">
  <advance width="539"/>
  <unicode hex="09AA"/>
  <outline>
    <contour>
      <point x="478" y="-12" type="qcurve"/>
      <point x="464" y="-15"/>
      <point x="425" y="-19"/>
      <point x="404" y="-19" type="qcurve"/>
      <point x="401" y="16"/>
      <point x="399" y="108"/>
      <point x="399" y="169" type="qcurve" smooth="yes"/>
      <point x="399" y="218"/>
      <point x="401" y="307"/>
      <point x="403" y="346" type="qcurve"/>
      <point x="402" y="368"/>
      <point x="395" y="411"/>
      <point x="388" y="432" type="qcurve"/>
      <point x="348" y="381"/>
      <point x="228" y="262"/>
      <point x="169" y="215" type="qcurve"/>
      <point x="153" y="226"/>
      <point x="127" y="254"/>
      <point x="118" y="270" type="qcurve"/>
      <point x="121" y="272"/>
      <point x="128" y="277"/>
      <point x="135" y="282" type="qcurve"/>
      <point x="131" y="280" type="line"/>
      <point x="142" y="287"/>
      <point x="155" y="309"/>
      <point x="155" y="322" type="qcurve" smooth="yes"/>
      <point x="155" y="349"/>
      <point x="90" y="395"/>
      <point x="31" y="410" type="qcurve"/>
      <point x="22" y="427"/>
      <point x="10" y="462"/>
      <point x="6" y="481" type="qcurve"/>
      <point x="48" y="545"/>
      <point x="165" y="619"/>
      <point x="227" y="619" type="qcurve" smooth="yes"/>
      <point x="294" y="619"/>
      <point x="391" y="533"/>
      <point x="416" y="453" type="qcurve"/>
      <point x="419" y="477"/>
      <point x="422" y="495"/>
      <point x="423" y="502" type="qcurve" smooth="yes"/>
      <point x="428" y="528"/>
      <point x="443" y="553"/>
      <point x="456" y="561" type="qcurve" smooth="yes"/>
      <point x="469" y="569"/>
      <point x="512" y="584"/>
      <point x="538" y="589" type="qcurve"/>
      <point x="541" y="585"/>
      <point x="544" y="569"/>
      <point x="544" y="561" type="qcurve" smooth="yes"/>
      <point x="544" y="553"/>
      <point x="540" y="535"/>
      <point x="538" y="530" type="qcurve"/>
      <point x="521" y="525"/>
      <point x="504" y="519"/>
      <point x="497" y="516" type="qcurve" smooth="yes"/>
      <point x="486" y="510"/>
      <point x="475" y="487"/>
      <point x="472" y="463" type="qcurve" smooth="yes"/>
      <point x="467" y="421"/>
      <point x="462" y="319"/>
      <point x="462" y="261" type="qcurve" smooth="yes"/>
      <point x="462" y="178"/>
      <point x="471" y="25"/>
    </contour>
    <contour>
      <point x="82" y="459" type="qcurve"/>
      <point x="135" y="436"/>
      <point x="194" y="380"/>
      <point x="194" y="351" type="qcurve" smooth="yes"/>
      <point x="194" y="344"/>
      <point x="191" y="330"/>
      <point x="188" y="324" type="qcurve"/>
      <point x="235" y="362"/>
      <point x="324" y="450"/>
      <point x="357" y="491" type="qcurve"/>
      <point x="333" y="521"/>
      <point x="271" y="553"/>
      <point x="236" y="553" type="qcurve" smooth="yes"/>
      <point x="195" y="553"/>
      <point x="121" y="508"/>
    </contour>
    <contour>
      <point x="430" y="-1" type="move" name="blwm"/>
    </contour>
    <contour>
      <point x="228" y="0" type="move" name="nukt"/>
    </contour>
    <contour>
      <point x="455" y="690" type="move" name="reph"/>
    </contour>
    <contour>
      <point x="455" y="690" type="move" name="chandrabindu"/>
    </contour>
    <contour>
      <point x="339" y="0" type="move" name="haln"/>
    </contour>
  </outline>
</glyph>
<glyph name="bn_ba" format="1">
  <advance width="467"/>
  <unicode hex="09AC"/>
  <outline>
    <contour>
      <point x="377" y="292" type="qcurve" smooth="yes"/>
      <point x="377" y="197"/>
      <point x="391" y="43"/>
      <point x="404" y="-4" type="qcurve"/>
      <point x="392" y="-11"/>
      <point x="355" y="-19"/>
      <point x="334" y="-19" type="qcurve"/>
      <point x="282" y="79"/>
      <point x="150" y="194"/>
      <point x="66" y="213" type="qcurve"/>
      <point x="50" y="231"/>
      <point x="35" y="266"/>
      <point x="33" y="289" type="qcurve"/>
      <point x="80" y="345"/>
      <point x="248" y="464"/>
      <point x="337" y="504" type="qcurve"/>
      <point x="339" y="521"/>
      <point x="342" y="541"/>
      <point x="344" y="550" type="qcurve"/>
      <point x="319" y="553"/>
      <point x="269" y="556"/>
      <point x="244" y="556" type="qcurve" smooth="yes"/>
      <point x="188" y="556"/>
      <point x="56" y="542"/>
      <point x="0" y="530" type="qcurve"/>
      <point x="-2" y="536"/>
      <point x="-5" y="553"/>
      <point x="-5" y="562" type="qcurve" smooth="yes"/>
      <point x="-5" y="570"/>
      <point x="-2" y="584"/>
      <point x="0" y="589" type="qcurve"/>
      <point x="50" y="602"/>
      <point x="188" y="619"/>
      <point x="248" y="619" type="qcurve" smooth="yes"/>
      <point x="301" y="619"/>
      <point x="422" y="602"/>
      <point x="467" y="589" type="qcurve"/>
      <point x="469" y="585"/>
      <point x="472" y="570"/>
      <point x="472" y="563" type="qcurve" smooth="yes"/>
      <point x="472" y="556"/>
      <point x="470" y="543"/>
      <point x="467" y="530" type="qcurve"/>
      <point x="455" y="533"/>
      <point x="424" y="539"/>
      <point x="397" y="543" type="qcurve"/>
      <point x="386" y="481"/>
      <point x="377" y="369"/>
    </contour>
    <contour>
      <point x="318" y="79" type="qcurve"/>
      <point x="316" y="99"/>
      <point x="315" y="152"/>
      <point x="315" y="185" type="qcurve" smooth="yes"/>
      <point x="315" y="247"/>
      <point x="320" y="362"/>
      <point x="326" y="421" type="qcurve"/>
      <point x="272" y="395"/>
      <point x="150" y="308"/>
      <point x="108" y="264" type="qcurve"/>
      <point x="175" y="235"/>
      <point x="281" y="142"/>
    </contour>
    <contour>
      <point x="353" y="0" type="move" name="blwm"/>
    </contour>
    <contour>
      <point x="123" y="0" type="move" name="nukt"/>
    </contour>
    <contour>
      <point x="347" y="690" type="move" name="reph"/>
    </contour>
    <contour>
      <point x="347" y="690" type="move" name="chandrabindu"/>
    </contour>
    <contour>
      <point x="265" y="0" type="move" name="haln"/>
    </contour>
  </outline>
</glyph>
<glyph name="bn_nukta" format="1">
  <advance width="0"/>
  <unicode hex="09BC"/>
  <outline>
    <contour>
      <point x="-52" y="-29" type="qcurve" smooth="yes"/>
      <point x="-52" y="-9"/>
      <point x="-24" y="18"/>
      <point x="-3" y="18" type="qcurve" smooth="yes"/>
      <point x="20" y="18"/>
      <point x="51" y="-16"/>
      <point x="51" y="-40" type="qcurve" smooth="yes"/>
      <point x="51" y="-60"/>
      <point x="24" y="-87"/>
      <point x="3" y="-87" type="qcurve" smooth="yes"/>
      <point x="-21" y="-87"/>
      <point x="-52" y="-53"/>
    </contour>
    <contour>
      <point x="0" y="-28" type="move" name="_nukt"/>
    </contour>
  </outline>
</glyph>
<glyph name="bn_aakaar" format="1">
  <advance width="233"/>
  <unicode hex="09BE"/>
  <outline>
    <contour>
      <point x="159" y="488" type="qcurve"/>
      <point x="158" y="357"/>
      <point x="148" y="82"/>
      <point x="138" y="-54" type="qcurve"/>
      <point x="118" y="-54"/>
      <point x="69" y="-47"/>
      <point x="56" y="-43" type="qcurve"/>
      <point x="75" y="58"/>
      <point x="95" y="295"/>
      <point x="97" y="448" type="qcurve"/>
      <point x="94" y="478"/>
      <point x="44" y="520"/>
      <point x="0" y="530" type="qcurve"/>
      <point x="-4" y="542"/>
      <point x="-4" y="579"/>
      <point x="0" y="589" type="qcurve"/>
      <point x="37" y="580"/>
      <point x="100" y="552"/>
      <point x="121" y="534" type="qcurve"/>
      <point x="138" y="551"/>
      <point x="196" y="580"/>
      <point x="233" y="589" type="qcurve"/>
      <point x="238" y="581"/>
      <point x="237" y="545"/>
      <point x="233" y="530" type="qcurve"/>
      <point x="207" y="523"/>
      <point x="169" y="502"/>
    </contour>
  </outline>
</glyph>
<glyph name="bn_ikaar" format="1">
  <advance width="233"/>
  <unicode hex="09BF"/>
  <outline>
    <contour>
      <point x="194" y="-42" type="qcurve"/>
      <point x="182" y="-46"/>
      <point x="134" y="-52"/>
      <point x="112" y="-52" type="qcurve"/>
      <point x="103" y="79"/>
      <point x="94" y="337"/>
      <point x="94" y="457" type="qcurve"/>
      <point x="89" y="483"/>
      <point x="41" y="521"/>
      <point x="0" y="530" type="qcurve"/>
      <point x="-4" y="542"/>
      <point x="-4" y="579"/>
      <point x="0" y="589" type="qcurve"/>
      <point x="29" y="582"/>
      <point x="74" y="564"/>
      <point x="92" y="553" type="qcurve"/>
      <point x="65" y="595"/>
      <point x="40" y="666"/>
      <point x="40" y="702" type="qcurve" smooth="yes"/>
      <point x="40" y="772"/>
      <point x="130" y="850"/>
      <point x="212" y="850" type="qcurve" smooth="yes"/>
      <point x="294" y="850"/>
      <point x="511" y="786"/>
      <point x="644" y="722" type="qcurve"/>
      <point x="641" y="710"/>
      <point x="628" y="685"/>
      <point x="617" y="672" type="qcurve"/>
      <point x="497" y="733"/>
      <point x="315" y="787"/>
      <point x="233" y="787" type="qcurve" smooth="yes"/>
      <point x="168" y="787"/>
      <point x="107" y="735"/>
      <point x="107" y="678" type="qcurve" smooth="yes"/>
      <point x="107" y="650"/>
      <point x="120" y="594"/>
      <point x="139" y="550" type="qcurve"/>
      <point x="156" y="562"/>
      <point x="204" y="582"/>
      <point x="233" y="589" type="qcurve"/>
      <point x="238" y="581"/>
      <point x="237" y="545"/>
      <point x="233" y="530" type="qcurve"/>
      <point x="205" y="522"/>
      <point x="167" y="500"/>
      <point x="157" y="486" type="qcurve"/>
      <point x="156" y="323"/>
      <point x="174" y="70"/>
    </contour>
  </outline>
</glyph>
<glyph name="bn_iikaar" format="1">
  <advance width="233"/>
  <unicode hex="09C0"/>
  <outline>
    <contour>
      <point x="159" y="488" type="qcurve"/>
      <point x="160" y="394"/>
      <point x="148" y="181"/>
      <point x="124" y="-54" type="qcurve"/>
      <point x="104" y="-54"/>
      <point x="58" y="-45"/>
      <point x="45" y="-38" type="qcurve"/>
      <point x="72" y="80"/>
      <point x="96" y="311"/>
      <point x="97" y="441" type="qcurve"/>
      <point x="97" y="441" type="line"/>
      <point x="97" y="474"/>
      <point x="49" y="518"/>
      <point x="0" y="530" type="qcurve"/>
      <point x="-4" y="543"/>
      <point x="-4" y="580"/>
      <point x="0" y="589" type="qcurve"/>
      <point x="24" y="584"/>
      <point x="71" y="566"/>
      <point x="92" y="554" type="qcurve"/>
      <point x="88" y="687"/>
      <point x="-70" y="816"/>
      <point x="-227" y="816" type="qcurve" smooth="yes"/>
      <point x="-298" y="816"/>
      <point x="-371" y="788"/>
      <point x="-371" y="761" type="qcurve" smooth="yes"/>
      <point x="-371" y="741"/>
      <point x="-329" y="720"/>
      <point x="-290" y="720" type="qcurve" smooth="yes"/>
      <point x="-271" y="720"/>
      <point x="-234" y="725"/>
      <point x="-204" y="734" type="qcurve" smooth="yes"/>
      <point x="-179" y="740"/>
      <point x="-154" y="744"/>
      <point x="-143" y="744" type="qcurve" smooth="yes"/>
      <point x="-120" y="744"/>
      <point x="-80" y="730"/>
      <point x="-64" y="717" type="qcurve"/>
      <point x="-66" y="702"/>
      <point x="-79" y="674"/>
      <point x="-87" y="666" type="qcurve"/>
      <point x="-98" y="680"/>
      <point x="-128" y="694"/>
      <point x="-145" y="694" type="qcurve" smooth="yes"/>
      <point x="-154" y="694"/>
      <point x="-176" y="690"/>
      <point x="-199" y="682" type="qcurve" smooth="yes"/>
      <point x="-232" y="672"/>
      <point x="-273" y="665"/>
      <point x="-293" y="665" type="qcurve" smooth="yes"/>
      <point x="-352" y="665"/>
      <point x="-424" y="720"/>
      <point x="-424" y="765" type="qcurve" smooth="yes"/>
      <point x="-424" y="819"/>
      <point x="-320" y="880"/>
      <point x="-228" y="880" type="qcurve" smooth="yes"/>
      <point x="-70" y="880"/>
      <point x="137" y="708"/>
      <point x="156" y="560" type="qcurve"/>
      <point x="172" y="569"/>
      <point x="212" y="584"/>
      <point x="233" y="589" type="qcurve"/>
      <point x="238" y="581"/>
      <point x="238" y="544"/>
      <point x="233" y="530" type="qcurve"/>
      <point x="207" y="523"/>
      <point x="170" y="502"/>
    </contour>
  </outline>
</glyph>
<glyph name="bn_rikaar" format="1">
  <advance width="0"/>
  <unicode hex="09C3"/>
  <outline>
    <contour>
      <point x="24" y="-291" type="qcurve"/>
      <point x="-155" y="-152" type="line"/>
      <point x="-155" y="-135" type="line"/>
      <point x="-28" y="-8" type="line"/>
      <point x="-28" y="11" type="line"/>
      <point x="18" y="4" type="line"/>
      <point x="37" y="-24" type="line"/>
      <point x="-84" y="-145" type="line"/>
      <point x="58" y="-244" type="line"/>
      <point x="53" y="-257"/>
      <point x="35" y="-281"/>
    </contour>
    <contour>
      <point x="0" y="-20" type="move" name="_blwm"/>
    </contour>
  </outline>
</glyph>
<glyph name="bn_ekaar" format="1">
  <advance width="260"/>
  <unicode hex="09C7"/>
  <outline>
    <contour>
      <point x="306" y="-1" type="qcurve"/>
      <point x="288" y="-32"/>
      <point x="236" y="-66"/>
      <point x="208" y="-66" type="qcurve" smooth="yes"/>
      <point x="144" y="-66"/>
      <point x="67" y="95"/>
      <point x="67" y="229" type="qcurve" smooth="yes"/>
      <point x="67" y="303"/>
      <point x="87" y="438"/>
      <point x="104" y="483" type="qcurve"/>
      <point x="90" y="496"/>
      <point x="39" y="519"/>
      <point x="0" y="530" type="qcurve"/>
      <point x="-2" y="539"/>
      <point x="-4" y="554"/>
      <point x="-4" y="561" type="qcurve" smooth="yes"/>
      <point x="-4" y="568"/>
      <point x="-2" y="584"/>
      <point x="0" y="589" type="qcurve"/>
      <point x="42" y="581"/>
      <point x="116" y="550"/>
      <point x="142" y="532" type="qcurve"/>
      <point x="157" y="551"/>
      <point x="216" y="579"/>
      <point x="260" y="589" type="qcurve"/>
      <point x="262" y="585"/>
      <point x="264" y="572"/>
      <point x="264" y="562" type="qcurve" smooth="yes"/>
      <point x="264" y="551"/>
      <point x="262" y="535"/>
      <point x="260" y="530" type="qcurve"/>
      <point x="191" y="515"/>
      <point x="137" y="383"/>
      <point x="137" y="232" type="qcurve" smooth="yes"/>
      <point x="137" y="109"/>
      <point x="166" y="-13"/>
      <point x="195" y="-13" type="qcurve" smooth="yes"/>
      <point x="209" y="-13"/>
      <point x="239" y="21"/>
      <point x="263" y="64" type="qcurve"/>
      <point x="280" y="55"/>
      <point x="306" y="14"/>
    </contour>
  </outline>
</glyph>
<glyph name="bn_okaar" format="1">
  <advance width="1148"/>
  <unicode hex="09CB"/>
  <outline>
    <contour>
      <point x="594" y="591" type="qcurve" smooth="yes"/>
      <point x="613" y="591"/>
      <point x="634" y="569"/>
      <point x="634" y="549" type="qcurve" smooth="yes"/>
      <point x="634" y="530"/>
      <point x="613" y="508"/>
      <point x="594" y="508" type="qcurve" smooth="yes"/>
      <point x="575" y="508"/>
      <point x="554" y="529"/>
      <point x="554" y="549" type="qcurve" smooth="yes"/>
      <point x="554" y="569"/>
      <point x="575" y="591"/>
    </contour>
    <contour>
      <point x="1074" y="488" type="qcurve"/>
      <point x="1073" y="357"/>
      <point x="1063" y="82"/>
      <point x="1053" y="-54" type="qcurve"/>
      <point x="1033" y="-54"/>
      <point x="984" y="-47"/>
      <point x="971" y="-43" type="qcurve"/>
      <point x="990" y="58"/>
      <point x="1010" y="295"/>
      <point x="1012" y="448" type="qcurve"/>
      <point x="1009" y="478"/>
      <point x="959" y="520"/>
      <point x="915" y="530" type="qcurve"/>
      <point x="911" y="542"/>
      <point x="911" y="579"/>
      <point x="915" y="589" type="qcurve"/>
      <point x="952" y="580"/>
      <point x="1015" y="552"/>
      <point x="1036" y="534" type="qcurve"/>
      <point x="1053" y="551"/>
      <point x="1111" y="580"/>
      <point x="1148" y="589" type="qcurve"/>
      <point x="1153" y="581"/>
      <point x="1152" y="545"/>
      <point x="1148" y="530" type="qcurve"/>
      <point x="1122" y="523"/>
      <point x="1084" y="502"/>
    </contour>
    <contour>
      <point x="306" y="-1" type="qcurve"/>
      <point x="288" y="-32"/>
      <point x="236" y="-66"/>
      <point x="208" y="-66" type="qcurve" smooth="yes"/>
      <point x="144" y="-66"/>
      <point x="67" y="95"/>
      <point x="67" y="229" type="qcurve" smooth="yes"/>
      <point x="67" y="303"/>
      <point x="87" y="438"/>
      <point x="104" y="483" type="qcurve"/>
      <point x="90" y="496"/>
      <point x="39" y="519"/>
      <point x="0" y="530" type="qcurve"/>
      <point x="-2" y="539"/>
      <point x="-4" y="554"/>
      <point x="-4" y="561" type="qcurve" smooth="yes"/>
      <point x="-4" y="568"/>
      <point x="-2" y="584"/>
      <point x="0" y="589" type="qcurve"/>
      <point x="42" y="581"/>
      <point x="116" y="550"/>
      <point x="142" y="532" type="qcurve"/>
      <point x="157" y="551"/>
      <point x="216" y="579"/>
      <point x="260" y="589" type="qcurve"/>
      <point x="262" y="585"/>
      <point x="264" y="572"/>
      <point x="264" y="562" type="qcurve" smooth="yes"/>
      <point x="264" y="551"/>
      <point x="262" y="535"/>
      <point x="260" y="530" type="qcurve"/>
      <point x="191" y="515"/>
      <point x="137" y="383"/>
      <point x="137" y="232" type="qcurve" smooth="yes"/>
      <point x="137" y="109"/>
      <point x="166" y="-13"/>
      <point x="195" y="-13" type="qcurve" smooth="yes"/>
      <point x="209" y="-13"/>
      <point x="239" y="21"/>
      <point x="263" y="64" type="qcurve"/>
      <point x="280" y="55"/>
      <point x="306" y="14"/>
    </contour>
    <contour>
      <point x="726" y="554" type="qcurve" smooth="yes"/>
      <point x="745" y="554"/>
      <point x="767" y="531"/>
      <point x="767" y="512" type="qcurve" smooth="yes"/>
      <point x="767" y="494"/>
      <point x="745" y="473"/>
      <point x="726" y="473" type="qcurve" smooth="yes"/>
      <point x="707" y="473"/>
      <point x="686" y="494"/>
      <point x="686" y="512" type="qcurve" smooth="yes"/>
      <point x="686" y="531"/>
      <point x="708" y="554"/>
    </contour>
    <contour>
      <point x="460" y="554" type="qcurve" smooth="yes"/>
      <point x="478" y="554"/>
      <point x="500" y="531"/>
      <point x="500" y="512" type="qcurve" smooth="yes"/>
      <point x="500" y="494"/>
      <point x="478" y="473"/>
      <point x="460" y="473" type="qcurve" smooth="yes"/>
      <point x="442" y="473"/>
      <point x="420" y="494"/>
      <point x="420" y="512" type="qcurve" smooth="yes"/>
      <point x="420" y="531"/>
      <point x="442" y="554"/>
    </contour>
    <contour>
      <point x="365" y="457" type="qcurve" smooth="yes"/>
      <point x="383" y="457"/>
      <point x="404" y="435"/>
      <point x="404" y="415" type="qcurve" smooth="yes"/>
      <point x="404" y="397"/>
      <point x="382" y="374"/>
      <point x="365" y="374" type="qcurve" smooth="yes"/>
      <point x="347" y="374"/>
      <point x="324" y="398"/>
      <point x="324" y="416" type="qcurve" smooth="yes"/>
      <point x="324" y="434"/>
      <point x="347" y="457"/>
    </contour>
    <contour>
      <point x="824" y="457" type="qcurve" smooth="yes"/>
      <point x="842" y="457"/>
      <point x="863" y="435"/>
      <point x="863" y="416" type="qcurve" smooth="yes"/>
      <point x="863" y="397"/>
      <point x="842" y="374"/>
      <point x="824" y="374" type="qcurve" smooth="yes"/>
      <point x="807" y="374"/>
      <point x="782" y="399"/>
      <point x="782" y="416" type="qcurve" smooth="yes"/>
      <point x="782" y="433"/>
      <point x="807" y="457"/>
    </contour>
    <contour>
      <point x="859" y="327" type="qcurve" smooth="yes"/>
      <point x="878" y="327"/>
      <point x="899" y="305"/>
      <point x="899" y="286" type="qcurve" smooth="yes"/>
      <point x="899" y="267"/>
      <point x="877" y="244"/>
      <point x="859" y="244" type="qcurve" smooth="yes"/>
      <point x="841" y="244"/>
      <point x="819" y="268"/>
      <point x="819" y="286" type="qcurve" smooth="yes"/>
      <point x="819" y="304"/>
      <point x="841" y="327"/>
    </contour>
    <contour>
      <point x="330" y="327" type="qcurve" smooth="yes"/>
      <point x="348" y="327"/>
      <point x="369" y="305"/>
      <point x="369" y="286" type="qcurve" smooth="yes"/>
      <point x="369" y="267"/>
      <point x="348" y="244"/>
      <point x="330" y="244" type="qcurve" smooth="yes"/>
      <point x="311" y="244"/>
      <point x="288" y="267"/>
      <point x="288" y="286" type="qcurve" smooth="yes"/>
      <point x="288" y="304"/>
      <point x="311" y="327"/>
    </contour>
    <contour>
      <point x="824" y="197" type="qcurve" smooth="yes"/>
      <point x="842" y="197"/>
      <point x="863" y="175"/>
      <point x="863" y="156" type="qcurve" smooth="yes"/>
      <point x="863" y="136"/>
      <point x="842" y="113"/>
      <point x="824" y="113" type="qcurve" smooth="yes"/>
      <point x="806" y="113"/>
      <point x="782" y="138"/>
      <point x="782" y="156" type="qcurve" smooth="yes"/>
      <point x="782" y="173"/>
      <point x="807" y="197"/>
    </contour>
    <contour>
      <point x="365" y="197" type="qcurve" smooth="yes"/>
      <point x="383" y="197"/>
      <point x="404" y="175"/>
      <point x="404" y="156" type="qcurve" smooth="yes"/>
      <point x="404" y="136"/>
      <point x="383" y="113"/>
      <point x="365" y="113" type="qcurve" smooth="yes"/>
      <point x="347" y="113"/>
      <point x="324" y="137"/>
      <point x="324" y="156" type="qcurve" smooth="yes"/>
      <point x="324" y="174"/>
      <point x="347" y="197"/>
    </contour>
    <contour>
      <point x="726" y="99" type="qcurve" smooth="yes"/>
      <point x="745" y="99"/>
      <point x="767" y="77"/>
      <point x="767" y="58" type="qcurve" smooth="yes"/>
      <point x="767" y="40"/>
      <point x="745" y="18"/>
      <point x="726" y="18" type="qcurve" smooth="yes"/>
      <point x="708" y="18"/>
      <point x="686" y="40"/>
      <point x="686" y="58" type="qcurve" smooth="yes"/>
      <point x="686" y="77"/>
      <point x="707" y="99"/>
    </contour>
    <contour>
      <point x="460" y="99" type="qcurve" smooth="yes"/>
      <point x="478" y="99"/>
      <point x="500" y="77"/>
      <point x="500" y="58" type="qcurve" smooth="yes"/>
      <point x="500" y="40"/>
      <point x="478" y="18"/>
      <point x="460" y="18" type="qcurve" smooth="yes"/>
      <point x="442" y="18"/>
      <point x="420" y="40"/>
      <point x="420" y="58" type="qcurve" smooth="yes"/>
      <point x="420" y="77"/>
      <point x="442" y="99"/>
    </contour>
    <contour>
      <point x="594" y="64" type="qcurve" smooth="yes"/>
      <point x="613" y="64"/>
      <point x="634" y="42"/>
      <point x="634" y="22" type="qcurve" smooth="yes"/>
      <point x="634" y="4"/>
      <point x="612" y="-18"/>
      <point x="594" y="-18" type="qcurve" smooth="yes"/>
      <point x="575" y="-18"/>
      <point x="554" y="3"/>
      <point x="554" y="22" type="qcurve" smooth="yes"/>
      <point x="554" y="42"/>
      <point x="575" y="64"/>
    </contour>
  </outline>
</glyph>
